<svg width="5356" height="556" xmlns="http://www.w3.org/2000/svg" version="1.1" fill="none">
 <g>
  <title>background</title>
  <rect fill="none" id="canvas_background" height="716" width="1441" y="-1" x="-1"/>
 </g>
 <g>
  <title>Layer 1</title>
  <g id="svg_1" transform="matrix(1,0,0,1,0,0) ">
   <svg id="svg_51" y="0" x="0" viewBox="0 0 256 256" fill="none" height="256" width="256" xmlns="http://www.w3.org/2000/svg">
    <rect id="svg_52" rx="60" fill="#242938" height="256" width="256"/>
    <path id="svg_53" clip-rule="evenodd" d="m203.819,68.8354l-63.14,-37.4802c-7.536,-4.4736 -16.825,-4.4736 -24.361,0l-63.1406,37.4802c-7.534,4.4737 -12.1774,12.7396 -12.1774,21.6869l0,74.9607c0,8.945 4.6434,17.215 12.1796,21.689l63.1404,37.473c3.768,2.238 7.97,3.354 12.179,3.354c4.207,0 8.41,-1.116 12.178,-3.354l63.14,-37.473c7.536,-4.474 12.182,-12.744 12.182,-21.689l0,-74.9607c0,-8.9473 -4.646,-17.2132 -12.18,-21.6869z" fill-rule="evenodd" fill="#242938"/>
    <path id="svg_54" clip-rule="evenodd" d="m118.527,220.808l-63.1404,-37.474c-6.1758,-3.666 -10.0122,-10.506 -10.0122,-17.852l0,-74.9586c0,-7.3466 3.8365,-14.186 10.01,-17.8504l63.1426,-37.4802c3.027,-1.797 6.475,-2.7473 9.972,-2.7473c3.495,0 6.943,0.9503 9.973,2.7473l63.14,37.4802c5.204,3.0889 8.714,8.4379 9.701,14.4373c-2.094,-4.4692 -6.817,-5.6841 -12.32,-2.4694l-59.734,36.8961c-7.448,4.354 -12.94,9.24 -12.945,18.221l0,73.604c-0.004,5.378 2.168,8.861 5.504,9.871c-1.096,0.19 -2.201,0.322 -3.319,0.322c-3.497,0 -6.945,-0.95 -9.972,-2.747zm85.292,-151.9737l-63.14,-37.478c-3.768,-2.2379 -7.975,-3.3558 -12.18,-3.3558c-4.206,0 -8.413,1.1179 -12.181,3.3558l-63.1406,37.478c-7.534,4.4737 -12.1774,12.7418 -12.1774,21.6891l0,74.9586c0,8.945 4.6434,17.215 12.1796,21.689l63.1404,37.475c3.77,2.236 7.973,3.354 12.179,3.354c4.207,0 8.41,-1.118 12.178,-3.354l63.142,-37.475c7.536,-4.474 12.18,-12.744 12.18,-21.689l0,-74.9586c0,-8.9473 -4.644,-17.2154 -12.18,-21.6891z" fill-rule="evenodd" fill="#fff"/>
    <path id="svg_55" clip-rule="evenodd" d="m187.267,172.729l-15.722,9.41c-0.417,0.243 -0.723,0.516 -0.726,1.017l0,4.114c0,0.503 0.338,0.712 0.754,0.467l15.966,-9.703c0.416,-0.243 0.48,-0.708 0.483,-1.209l0,-3.629c0,-0.5 -0.338,-0.71 -0.755,-0.467z" fill-rule="evenodd" fill="#47B353"/>
    <path id="svg_56" clip-rule="evenodd" d="m153.788,138.098c0.509,-0.258 0.928,0.059 0.935,0.725l0.053,5.439c2.277,-0.906 4.255,-1.148 6.047,-0.734c0.389,0.104 0.561,0.633 0.402,1.261l-1.197,4.82c-0.093,0.364 -0.298,0.732 -0.545,0.961c-0.104,0.102 -0.21,0.181 -0.315,0.234c-0.161,0.082 -0.32,0.108 -0.472,0.077c-0.818,-0.185 -2.763,-0.61 -5.823,0.94c-3.21,1.625 -4.333,4.414 -4.311,6.484c0.027,2.472 1.295,3.221 5.673,3.296c5.834,0.097 8.355,2.646 8.416,8.522c0.06,5.77 -3.02,11.966 -7.732,15.763l0.104,5.384c0.006,0.648 -0.415,1.391 -0.924,1.649l-3.189,1.837c-0.511,0.258 -0.93,-0.06 -0.937,-0.708l-0.055,-5.296c-2.731,1.135 -5.499,1.409 -7.267,0.699c-0.333,-0.13 -0.476,-0.622 -0.344,-1.182l1.156,-4.868c0.092,-0.384 0.295,-0.768 0.571,-1.012c0.097,-0.095 0.198,-0.168 0.299,-0.219c0.183,-0.092 0.362,-0.112 0.514,-0.055c1.905,0.642 4.342,0.342 6.685,-0.844c2.977,-1.506 4.968,-4.542 4.937,-7.558c-0.029,-2.737 -1.51,-3.874 -5.113,-3.901c-4.586,0.013 -8.861,-0.891 -8.932,-7.642c-0.057,-5.558 2.833,-11.342 7.408,-14.999l-0.057,-5.435c-0.007,-0.668 0.401,-1.403 0.926,-1.667l3.087,-1.971z" fill-rule="evenodd" fill="#242938"/>
   </svg>
  </g>
  <svg id="svg_57" y="0" x="300" viewBox="0 0 256 256" fill="none" height="256" width="256" xmlns="http://www.w3.org/2000/svg">
   <rect id="svg_58" rx="60" fill="#2396ED" height="256" width="256"/>
   <path id="svg_59" d="m141.187,122.123l20.717,0l0,-18.744l-20.717,0l0,18.744zm-24.662,0l20.716,0l0,-18.744l-20.716,0l0,18.744zm-24.1696,0l20.7166,0l0,-18.744l-20.7166,0l0,18.744zm-24.1695,0l20.2234,0l0,-18.744l-20.2234,0l0,18.744zm-24.6626,0l20.7166,0l0,-18.744l-20.7166,0l0,18.744zm24.6626,-22.6897l20.2234,0l0,-18.7437l-20.2234,0l0,18.7437zm24.1695,0l20.7166,0l0,-18.7437l-20.7166,0l0,18.7437zm24.1696,0l20.716,0l0,-18.7437l-20.716,0l0,18.7437zm0,-22.6897l20.716,0l0,-18.7436l-20.716,0l0,18.7436zm111.475,36.9944c0,0 -8.879,-8.386 -27.129,-5.426c-1.973,-14.3045 -17.264,-22.6898 -17.264,-22.6898c0,0 -14.304,17.2638 -3.946,36.5008c-2.959,1.48 -7.892,3.453 -15.291,3.453l-135.6443,0c-2.4663,9.372 -2.4663,71.521 65.6027,71.521c48.8316,0 85.3326,-22.689 102.5966,-64.123c25.649,1.974 31.075,-19.236 31.075,-19.236z" fill="#fff"/>
  </svg>
  <svg id="svg_60" y="0" x="600" viewBox="0 0 256 256" fill="none" height="256" width="256" xmlns="http://www.w3.org/2000/svg">
   <rect id="svg_61" rx="60" fill="#F03C2E" height="256" width="256"/>
   <g id="svg_62" clip-path="url(#svg_3)">
    <path id="svg_63" d="m224.225,119.094l-87.319,-87.319c-1.195,-1.1963 -2.615,-2.1452 -4.177,-2.7926c-1.563,-0.6475 -3.238,-0.9807 -4.929,-0.9807c-1.691,0 -3.366,0.3332 -4.929,0.9807c-1.562,0.6474 -2.982,1.5963 -4.177,2.7926l-18.125,18.125l23,23c5.35,-1.875 11.475,-0.5938 15.737,3.6687c2.029,2.0327 3.446,4.5951 4.088,7.3945c0.642,2.7994 0.484,5.723 -0.457,8.4368l22.169,22.169c5.363,-1.85 11.55,-0.657 15.831,3.637c1.424,1.424 2.553,3.114 3.323,4.974c0.77,1.86 1.166,3.853 1.166,5.866c-0.001,2.013 -0.397,4.006 -1.168,5.866c-0.771,1.859 -1.9,3.549 -3.324,4.972c-1.423,1.424 -3.113,2.552 -4.973,3.322c-1.86,0.771 -3.853,1.167 -5.866,1.166c-2.013,0 -4.007,-0.397 -5.866,-1.167c-1.86,-0.771 -3.55,-1.9 -4.973,-3.324c-4.5,-4.5 -5.612,-11.125 -3.337,-16.669l-20.675,-20.675l0,54.407c1.501,0.742 2.872,1.722 4.062,2.9c1.423,1.423 2.552,3.112 3.323,4.972c0.77,1.859 1.166,3.852 1.166,5.865c0,2.013 -0.396,4.006 -1.166,5.865c-0.771,1.86 -1.9,3.55 -3.323,4.973c-1.423,1.423 -3.113,2.552 -4.972,3.322c-1.86,0.77 -3.853,1.167 -5.865,1.167c-2.013,0 -4.006,-0.397 -5.865,-1.167c-1.86,-0.77 -3.55,-1.899 -4.973,-3.322c-1.425,-1.423 -2.555,-3.112 -3.326,-4.971c-0.772,-1.86 -1.169,-3.854 -1.169,-5.867c0,-2.013 0.397,-4.006 1.169,-5.866c0.771,-1.86 1.901,-3.549 3.326,-4.971c1.481,-1.475 3.125,-2.594 5.019,-3.344l0,-54.913c-1.825,-0.75 -3.538,-1.8558 -5.019,-3.3433c-2.152,-2.1494 -3.615,-4.8911 -4.203,-7.8753c-0.587,-2.9843 -0.273,-6.076 0.903,-8.8809l-22.6873,-22.675l-59.875,59.8125c-1.1971,1.196 -2.1468,2.616 -2.7948,4.179c-0.648,1.563 -0.9815,3.238 -0.9815,4.93c0,1.692 0.3335,3.368 0.9815,4.931c0.648,1.563 1.5977,2.983 2.7948,4.179l87.3253,87.312c1.195,1.196 2.615,2.145 4.177,2.793c1.563,0.647 3.238,0.98 4.929,0.98c1.691,0 3.366,-0.333 4.929,-0.98c1.562,-0.648 2.982,-1.597 4.177,-2.793l86.919,-86.781c1.197,-1.196 2.147,-2.616 2.795,-4.179c0.648,-1.563 0.981,-3.238 0.981,-4.93c0,-1.692 -0.333,-3.368 -0.981,-4.931c-0.648,-1.563 -1.598,-2.983 -2.795,-4.179" fill="#fff"/>
   </g>
   <defs>
    <clipPath id="svg_3">
     <rect id="svg_64" x="28" y="28" fill="#fff" height="200" width="200"/>
    </clipPath>
    <linearGradient y2="0.499632" y1="0.499632" x2="1.000528" x1="-0.000319" id="svg_11">
     <stop stop-color="#F97A12" offset="0.258"/>
     <stop stop-color="#B07B58" offset="0.459"/>
     <stop stop-color="#577BAE" offset="0.724"/>
     <stop stop-color="#1E7CE5" offset="0.91"/>
     <stop stop-color="#087CFA" offset="1"/>
    </linearGradient>
    <linearGradient y2="0.776051" y1="0.34514" x2="1.212255" x1="0.003768" id="svg_10">
     <stop stop-color="#F97A12"/>
     <stop stop-color="#CB7A3E" offset="0.072"/>
     <stop stop-color="#9E7B6A" offset="0.154"/>
     <stop stop-color="#757B91" offset="0.242"/>
     <stop stop-color="#537BB1" offset="0.334"/>
     <stop stop-color="#387CCC" offset="0.432"/>
     <stop stop-color="#237CE0" offset="0.538"/>
     <stop stop-color="#147CEF" offset="0.655"/>
     <stop stop-color="#0B7CF7" offset="0.792"/>
     <stop stop-color="#087CFA" offset="1"/>
    </linearGradient>
    <linearGradient y2="-0.065868" y1="0.976988" x2="0.301935" x1="0.782246" id="svg_9">
     <stop stop-color="#FE315D"/>
     <stop stop-color="#CB417E" offset="0.078"/>
     <stop stop-color="#9E4E9B" offset="0.16"/>
     <stop stop-color="#755BB4" offset="0.247"/>
     <stop stop-color="#5365CA" offset="0.339"/>
     <stop stop-color="#386DDB" offset="0.436"/>
     <stop stop-color="#2374E9" offset="0.541"/>
     <stop stop-color="#1478F3" offset="0.658"/>
     <stop stop-color="#0B7BF8" offset="0.794"/>
     <stop stop-color="#087CFA" offset="1"/>
    </linearGradient>
    <linearGradient y2="1.326207" y1="0.241187" x2="1.033957" x1="0.199636" id="svg_8">
     <stop stop-color="#FE315D"/>
     <stop stop-color="#F63462" offset="0.04"/>
     <stop stop-color="#DF3A71" offset="0.104"/>
     <stop stop-color="#C24383" offset="0.167"/>
     <stop stop-color="#AD4A91" offset="0.291"/>
     <stop stop-color="#755BB4" offset="0.55"/>
     <stop stop-color="#1D76ED" offset="0.917"/>
     <stop stop-color="#087CFA" offset="1"/>
    </linearGradient>
    <radialGradient gradientTransform="translate(21.2925 125.178) rotate(90) scale(199.78 230.653)" gradientUnits="userSpaceOnUse" r="1" cy="0" cx="0" id="svg_19">
     <stop stop-color="#20C6B7"/>
     <stop stop-color="#4D9ABF" offset="1"/>
    </radialGradient>
    <linearGradient y2="0.780523" y1="0.120395" x2="0.797863" x1="0.129591" id="svg_28">
     <stop stop-color="#387EB8"/>
     <stop stop-color="#366994" offset="1"/>
    </linearGradient>
    <linearGradient y2="0.882699" y1="0.205795" x2="0.908922" x1="0.191276" id="svg_27">
     <stop stop-color="#FFE052"/>
     <stop stop-color="#FFC331" offset="1"/>
    </linearGradient>
    <linearGradient y2="0.944387" x2="0.576617" y1="0.020464" x1="0.576617" id="svg_38">
     <stop stop-color="#97D9F6"/>
     <stop stop-color="#0F80CC" offset="0.920245"/>
     <stop stop-color="#0F80CC" offset="1"/>
    </linearGradient>
    <linearGradient y2="1.032407" y1="0" x2="0.697222" x1="0.269444" id="svg_41">
     <stop stop-color="#32B1C1"/>
     <stop stop-color="#14C6B7" offset="1"/>
    </linearGradient>
    <linearGradient y2="0.857723" x2="0.576359" y1="-0.033213" x1="-0.008281" id="svg_47">
     <stop stop-color="#41D1FF"/>
     <stop stop-color="#BD34FE" offset="1"/>
    </linearGradient>
    <linearGradient y2="0.890301" x2="0.5105" y1="0.022418" x1="0.279861" id="svg_46">
     <stop stop-color="#FFEA83"/>
     <stop stop-color="#FFDD35" offset="0.083333"/>
     <stop stop-color="#FFA800" offset="1"/>
    </linearGradient>
   </defs>
  </svg>
  <svg id="svg_65" y="0" x="900" fill="none" viewBox="0 0 256 256" height="256" width="256" xmlns="http://www.w3.org/2000/svg">
   <rect id="svg_66" fill="#242938" rx="60" height="256" width="256"/>
   <path id="svg_67" fill="white" d="m128.001,30c-55.2219,0 -100.001,44.7708 -100.001,100.001c0,44.183 28.6533,81.667 68.3867,94.89c4.9973,0.926 6.8323,-2.169 6.8323,-4.81c0,-2.385 -0.093,-10.262 -0.136,-18.618c-27.8199,6.049 -33.6903,-11.799 -33.6903,-11.799c-4.549,-11.559 -11.1033,-14.632 -11.1033,-14.632c-9.0731,-6.207 0.6839,-6.079 0.6839,-6.079c10.0418,0.705 15.3293,10.305 15.3293,10.305c8.9191,15.288 23.3939,10.868 29.1004,8.313c0.898,-6.464 3.489,-10.875 6.349,-13.372c-22.2115,-2.529 -45.5607,-11.104 -45.5607,-49.421c0,-10.918 3.9064,-19.839 10.3034,-26.8418c-1.0383,-2.5187 -4.4612,-12.6897 0.9688,-26.464c0,0 8.3974,-2.6877 27.5075,10.2504c7.977,-2.2157 16.531,-3.3268 25.03,-3.3649c8.498,0.0381 17.06,1.1492 25.051,3.3649c19.087,-12.9381 27.473,-10.2504 27.473,-10.2504c5.443,13.7743 2.019,23.9453 0.98,26.464c6.412,7.0028 10.292,15.9238 10.292,26.8418c0,38.409 -23.394,46.866 -45.662,49.341c3.587,3.104 6.783,9.189 6.783,18.519c0,13.38 -0.116,24.149 -0.116,27.443c0,2.661 1.8,5.779 6.869,4.797c39.712,-13.238 68.329,-50.709 68.329,-94.877c0,-55.2302 -44.773,-100.001 -99.999,-100.001zm-62.5474,142.453c-0.2203,0.497 -1.0019,0.646 -1.714,0.305c-0.7253,-0.326 -1.1327,-1.004 -0.8975,-1.502c0.2153,-0.512 0.9985,-0.654 1.7222,-0.311c0.727,0.326 1.141,1.01 0.8893,1.508zm4.9189,4.389c-0.4769,0.443 -1.4092,0.237 -2.0418,-0.462c-0.6541,-0.697 -0.7767,-1.629 -0.2931,-2.078c0.4918,-0.442 1.396,-0.235 2.0517,0.462c0.6541,0.706 0.7816,1.631 0.2832,2.078zm3.3746,5.616c-0.6127,0.426 -1.6146,0.027 -2.2339,-0.863c-0.6128,-0.889 -0.6128,-1.955 0.0132,-2.383c0.621,-0.427 1.608,-0.043 2.2356,0.84c0.611,0.904 0.611,1.971 -0.0149,2.406zm5.7071,6.504c-0.5481,0.604 -1.7156,0.442 -2.5701,-0.383c-0.8743,-0.806 -1.1178,-1.95 -0.568,-2.555c0.5548,-0.606 1.7289,-0.435 2.59,0.383c0.8677,0.804 1.1326,1.957 0.5481,2.555zm7.3759,2.195c-0.2418,0.784 -1.3662,1.14 -2.4989,0.807c-1.131,-0.343 -1.8712,-1.26 -1.6427,-2.052c0.2352,-0.788 1.3645,-1.159 2.5055,-0.803c1.1294,0.341 1.8712,1.252 1.6361,2.048zm8.3941,0.932c0.0281,0.824 -0.9323,1.508 -2.1213,1.523c-1.1956,0.027 -2.1627,-0.641 -2.176,-1.452c0,-0.833 0.939,-1.51 2.1346,-1.53c1.189,-0.023 2.1627,0.639 2.1627,1.459zm8.2458,-0.316c0.143,0.804 -0.683,1.631 -1.864,1.851c-1.161,0.212 -2.2358,-0.285 -2.3831,-1.083c-0.1441,-0.825 0.6971,-1.651 1.8561,-1.865c1.183,-0.205 2.241,0.279 2.391,1.097z"/>
  </svg>
  <svg id="svg_68" y="0" x="1200" viewBox="0 0 256 256" fill="none" height="256" width="256" xmlns="http://www.w3.org/2000/svg">
   <rect id="svg_69" rx="60" fill="#00B4E0" height="256" width="256"/>
   <path id="svg_70" d="m40.5,113.234c-0.4,0 -0.5,-0.2 -0.3,-0.5l2.1,-2.7c0.2,-0.3 0.7,-0.5 1.1,-0.5l35.7,0c0.4,0 0.5,0.3 0.3,0.6l-1.7,2.6c-0.2,0.3 -0.7,0.6 -1,0.6l-36.2,-0.1z" fill="#fff"/>
   <path id="svg_71" d="m25.4,122.434c-0.4,0 -0.5,-0.2 -0.3,-0.5l2.1,-2.7c0.2,-0.3 0.7,-0.5 1.1,-0.5l45.6,0c0.4,0 0.6,0.3 0.5,0.6l-0.8,2.4c-0.1,0.4 -0.5,0.6 -0.9,0.6l-47.3,0.1z" fill="#fff"/>
   <path id="svg_72" d="m49.6,131.634c-0.4,0 -0.5,-0.3 -0.3,-0.6l1.4,-2.5c0.2,-0.3 0.6,-0.6 1,-0.6l20,0c0.4,0 0.6,0.3 0.6,0.7l-0.2,2.4c0,0.4 -0.4,0.7 -0.7,0.7l-21.8,-0.1z" fill="#fff"/>
   <path id="svg_73" d="m153.4,111.434c-6.3,1.6 -10.6,2.8 -16.8,4.4c-1.5,0.4 -1.6,0.5 -2.9,-1c-1.5,-1.7 -2.6,-2.8 -4.7,-3.8c-6.3,-3.1 -12.4,-2.2 -18.1,1.5c-6.8,4.4 -10.3,10.9 -10.2,19c0.1,8 5.6,14.6 13.5,15.7c6.8,0.9 12.5,-1.5 17,-6.6c0.9,-1.1 1.7,-2.3 2.7,-3.7c-3.6,0 -8.1,0 -19.3,0c-2.1,0 -2.6,-1.3 -1.9,-3c1.3,-3.1 3.7,-8.3 5.1,-10.9c0.3,-0.6 1,-1.6 2.5,-1.6c5.1,0 23.9,0 36.4,0c-0.2,2.7 -0.2,5.4 -0.6,8.1c-1.1,7.2 -3.8,13.8 -8.2,19.6c-7.2,9.5 -16.6,15.4 -28.5,17c-9.8,1.3 -18.9,-0.6 -26.9,-6.6c-7.4,-5.6 -11.6,-13 -12.7,-22.2c-1.3,-10.9 1.9,-20.7 8.5,-29.3c7.1,-9.2997 16.5,-15.1997 28,-17.2997c9.4,-1.7 18.4,-0.6 26.5,4.9c5.3,3.5 9.1,8.2997 11.6,14.0997c0.6,0.9 0.2,1.4 -1,1.7z" fill="#fff"/>
   <path id="svg_74" d="m186.5,166.734c-9.1,-0.2 -17.4,-2.8 -24.4,-8.8c-5.9,-5.1 -9.6,-11.6 -10.8,-19.3c-1.8,-11.3 1.3,-21.3 8.1,-30.2c7.3,-9.5997 16.1,-14.5997 28,-16.6997c10.2,-1.8 19.8,-0.8 28.5,5.1c7.9,5.3997 12.8,12.6997 14.1,22.2997c1.7,13.5 -2.2,24.5 -11.5,33.9c-6.6,6.7 -14.7,10.9 -24,12.8c-2.7,0.5 -5.4,0.6 -8,0.9zm23.8,-40.4c-0.1,-1.3 -0.1,-2.3 -0.3,-3.3c-1.8,-9.9 -10.9,-15.5 -20.4,-13.3c-9.3,2.1 -15.3,8 -17.5,17.4c-1.8,7.8 2,15.7 9.2,18.9c5.5,2.4 11,2.1 16.3,-0.6c7.9,-4.1 12.2,-10.5 12.7,-19.1z" fill="#fff"/>
  </svg>
  <svg id="svg_75" y="0" x="1500" viewBox="0 0 256 256" fill="none" height="256" width="256" xmlns="http://www.w3.org/2000/svg">
   <rect id="svg_76" rx="60" fill="#E14E1D" height="256" width="256"/>
   <path id="svg_77" d="m48,38l8.6098,96.593l110.7102,0l-3.715,41.43l-35.646,9.638l-35.579,-9.624l-2.3788,-26.602l-32.0623,0l4.5847,51.281l65.4274,18.172l65.51,-18.172l8.783,-98.061l-116.4199,0l-2.9231,-32.7102l122.14,0l0.098,0l2.861,-31.9448l-160,0z" fill="#fff"/>
   <path id="svg_78" d="m128,38l-80,0l8.6098,96.593l71.3902,0l0,-31.938l-42.1759,0l-2.9231,-32.7102l45.099,0l0,-31.9448z" fill="#EBEBEB"/>
   <path id="svg_79" d="m128,185.647l-0.041,0.014l-35.579,-9.624l-2.3788,-26.602l-32.0624,0l4.5848,51.281l65.4274,18.172l0.049,-0.014l0,-33.227z" fill="#EBEBEB"/>
  </svg>
  <svg id="svg_80" y="0" x="1800" viewBox="0 0 256 256" fill="none" height="256" width="256" xmlns="http://www.w3.org/2000/svg">
   <rect id="svg_81" rx="60" fill="#242938" height="256" width="256"/>
   <path id="svg_82" d="m78.5714,184l-48.2858,-38.286l24,-44.571l68.8574,26.857l-44.5716,56z" fill="url(#svg_11)"/>
   <path id="svg_83" d="m228,81.4285l-3.714,115.7145l-76.857,30.857l-46.286,-29.714l67.714,-70.286l-29.714,-64.8572l26.571,-32l62.286,50.2857z" fill="url(#svg_10)"/>
   <path id="svg_84" d="m228,81.4285l-60.857,72.0005l-28,-90.2862l26.571,-32l62.286,50.2857z" fill="url(#svg_9)"/>
   <path id="svg_85" d="m124.286,194l-80.286,29.143l12.8571,-45.143l16.8572,-55.429l-45.7143,-15.428l28.8571,-79.143l62.8569,7.7143l61.715,70.5717l-57.143,87.714z" fill="url(#svg_8)"/>
   <path id="svg_86" d="m190.571,66.5715l-123.4282,0l0,123.4285l123.4282,0l0,-123.4285z" fill="#000"/>
   <path id="svg_87" d="m124.857,166.857l-46.2857,0l0,7.714l46.2857,0l0,-7.714z" fill="#fff"/>
   <path id="svg_88" d="m112,92.0001l0,-9.4286l-25.7144,0l0,9.4286l7.4286,0l0,32.2859l-7.4286,0l0,9.428l25.7144,0l0,-9.428l-7.143,0l0,-32.2859l7.143,0z" fill="#fff"/>
   <path id="svg_89" d="m136.571,134.572c-4,0 -7.428,-0.858 -10,-2.286c-2.571,-1.429 -4.857,-3.429 -6.571,-5.429l7.143,-8c1.428,1.715 2.857,2.857 4.286,3.715c1.428,0.857 3.142,1.428 4.857,1.428c2,0 3.714,-0.571 5.143,-2c1.142,-1.428 1.714,-3.428 1.714,-6.571l0,-32.8575l11.428,0l0,33.4285c0,3.143 -0.285,5.714 -1.142,8c-0.858,2.286 -2,4 -3.715,5.714c-1.428,1.429 -3.428,2.858 -5.714,3.429c-2.286,0.857 -4.571,1.429 -7.429,1.429z" fill="#fff"/>

  </svg>
  <svg id="svg_90" y="0" x="2100" viewBox="0 0 256 256" fill="none" height="256" width="256" xmlns="http://www.w3.org/2000/svg">
   <rect id="svg_91" rx="60" fill="#242938" height="256" width="256"/>
   <path id="svg_92" d="m101.634,182.619c0,0 -7.6792,4.674 5.345,6.011c15.728,2.004 24.044,1.669 41.407,-1.668c0,0 4.674,3.009 11.02,5.344c-39.075,16.696 -88.4971,-1.002 -57.772,-9.687zm-5.0088,-21.705c0,0 -8.3499,6.346 4.6738,7.679c17.028,1.669 30.391,2.004 53.433,-2.667c0,0 3.009,3.341 8.015,5.01c-47.083,14.025 -99.8495,1.333 -66.1218,-10.019l0,-0.003zm92.1698,38.07c0,0 5.676,4.674 -6.346,8.35c-22.376,6.678 -93.8386,8.685 -113.8755,0c-7.0095,-3.009 6.3462,-7.352 10.6852,-8.015c4.3425,-1.002 6.6779,-1.002 6.6779,-1.002c-7.6797,-5.344 -51.0942,11.02 -22.0407,15.729c79.8131,13.027 145.6031,-5.676 124.8961,-15.028l0.003,-0.034zm-83.488,-60.781c0,0 -36.4018,8.685 -13.0277,11.687c10.0187,1.333 29.7207,1.002 48.0887,-0.335c15.028,-1.334 30.09,-4.007 30.09,-4.007c0,0 -5.345,2.338 -9.017,4.674c-37.099,9.693 -108.2303,5.351 -87.8583,-4.668c17.3699,-8.35 31.7243,-7.351 31.7243,-7.351l0,0zm65.116,36.401c37.407,-19.37 20.037,-38.07 8.015,-35.731c-3.009,0.667 -4.342,1.334 -4.342,1.334c0,0 1.001,-2.004 3.34,-2.667c23.709,-8.35 42.413,25.046 -7.679,38.07c0,0 0.335,-0.335 0.666,-1.002l0,-0.004zm-61.444,52.76c36.067,2.339 91.168,-1.334 92.505,-18.369c0,0 -2.667,6.678 -29.72,11.688c-30.722,5.676 -68.796,5.009 -91.1683,1.333c0,0 4.6741,4.007 28.3863,5.344l-0.003,0.004z" fill="#fff"/>
   <path id="svg_93" d="m147.685,28c0,0 20.704,21.0388 -19.702,52.7594c-32.3939,25.7126 -7.351,40.4086 0,57.1016c-19.035,-17.028 -32.7221,-32.059 -23.377,-46.0848c13.725,-20.6934 51.456,-30.7118 43.079,-63.7762zm-10.685,95.842c9.683,11.02 -2.667,21.039 -2.667,21.039c0,0 24.711,-12.686 13.359,-28.387c-10.354,-15.028 -18.368,-22.3756 25.046,-47.4251c0,0 -68.46,17.0279 -35.731,54.7661l-0.007,0.007z" fill="#F58219"/>
  </svg>
  <svg id="svg_94" y="0" x="2400" fill="none" viewBox="0 0 256 256" height="256" width="256" xmlns="http://www.w3.org/2000/svg">
   <rect id="svg_95" fill="#F0DB4F" rx="60" height="256" width="256"/>
   <path id="svg_96" fill="#323330" d="m67.3117,213.932l19.591,-11.856c3.7794,6.701 7.2175,12.371 15.4643,12.371c7.905,0 12.889,-3.092 12.889,-15.12l0,-81.798l24.058,0l0,82.138c0,24.917 -14.606,36.259 -35.916,36.259c-19.2447,0 -30.4161,-9.967 -36.0867,-21.996"/>
   <path id="svg_97" fill="#323330" d="m152.381,211.354l19.588,-11.341c5.157,8.421 11.859,14.607 23.715,14.607c9.969,0 16.325,-4.984 16.325,-11.858c0,-8.248 -6.53,-11.17 -17.528,-15.98l-6.013,-2.579c-17.357,-7.388 -28.871,-16.668 -28.871,-36.258c0,-18.044 13.748,-31.792 35.229,-31.792c15.294,0 26.292,5.328 34.196,19.247l-18.731,12.029c-4.125,-7.389 -8.591,-10.31 -15.465,-10.31c-7.046,0 -11.514,4.468 -11.514,10.31c0,7.217 4.468,10.139 14.778,14.608l6.014,2.577c20.449,8.765 31.963,17.699 31.963,37.804c0,21.654 -17.012,33.51 -39.867,33.51c-22.339,0 -36.774,-10.654 -43.819,-24.574"/>
  </svg>
  <svg id="svg_98" y="0" x="2700" viewBox="0 0 256 256" fill="none" height="256" width="256" xmlns="http://www.w3.org/2000/svg">
   <rect id="svg_99" rx="60" fill="#242938" height="256" width="256"/>
   <path id="svg_100" d="m85.9493,199.926l24.5307,13.62l37.096,0l34.702,-26.055l15.556,-40.859l-35.899,-43.227l-10.171,-24.2782l-49.66,1.7764l0.598,13.6196l-9.5729,17.7642l-14.9578,29.016l-2.9916,24.278l10.7696,34.345z" fill="#ECEFF1"/>
   <path id="svg_101" d="m187.064,114.656c-9.573,-13.62 -17.351,-21.9097 -21.539,-39.0822c-4.188,-17.1725 1.197,-12.4352 -2.393,-27.2391c-1.795,-7.698 -4.787,-13.0274 -7.778,-17.1725c-3.59,-4.1451 -7.778,-6.5137 -10.172,-7.1059c-5.384,-2.9607 -17.949,-7.698 -33.505,0.5922c-16.1547,8.2902 -14.3598,26.0548 -11.368,62.1763c0,2.3686 -0.5985,5.3294 -1.7951,7.698c-2.3933,5.3294 -6.5815,10.0662 -10.1714,14.2122c-4.1882,5.921 -8.3764,11.843 -11.3679,18.356c-7.1798,13.62 -13.7612,30.792 -11.9663,37.306c2.9916,-0.592 40.6857,56.255 40.6857,57.439c2.393,-0.592 12.564,-0.592 21.539,-0.592c12.565,-0.592 19.744,-1.184 29.916,1.184c0,-1.776 -0.599,-3.553 -0.599,-5.329c0,-3.553 0.599,-6.514 1.197,-10.659c0.598,-2.961 1.197,-5.921 1.795,-9.474c-5.983,5.329 -16.753,11.251 -26.924,13.027c-8.975,1.776 -23.933,-1.184 -31.113,-10.067c0.599,0 1.795,0 2.394,-0.592c1.795,-0.592 3.59,-1.184 4.188,-2.368c1.795,-2.961 0.598,-5.922 -0.598,-7.698c-1.197,-1.777 -10.1717,-8.291 -14.3599,-11.843c-4.1882,-3.553 -6.5815,-5.33 -8.9747,-7.698c0,0 -3.5899,-3.553 -4.7866,-4.738c-1.1966,-1.184 -1.7949,-2.368 -2.3932,-2.961c-1.1966,-2.96 -1.795,-6.513 -1.1966,-11.25c0.5983,-6.514 2.9915,-11.844 5.9831,-17.765c1.1966,-2.369 4.1882,-7.106 4.1882,-7.106c0,0 -10.1713,24.871 -4.7865,32.569c0,0 0.5983,-7.698 2.9916,-15.396c1.7949,-5.33 4.7865,-13.028 8.3763,-17.173c3.5899,-4.145 12.5643,-19.541 13.1633,-29.0156c0,-4.1451 0.598,-8.2902 0.598,-11.2509c-2.393,-2.3687 39.489,-8.2902 41.882,-1.7765c0.598,2.3686 8.975,23.686 13.761,34.937c2.393,5.33 5.385,10.067 7.18,15.988c1.795,6.514 2.991,15.396 2.991,24.279c0,1.776 0,4.737 -0.598,7.698c1.197,0 24.531,-24.871 -2.991,-45.596c0,0 16.752,7.698 17.351,23.094c0.598,12.435 -4.787,22.502 -5.983,24.278c0.598,0 12.564,5.33 13.162,5.33c2.394,0 7.18,-1.777 7.18,-1.777c0.599,-1.776 2.393,-6.514 2.393,-8.29c4.189,-13.62 -5.983,-35.529 -15.556,-49.149l0,0z" fill="#263238"/>
   <path id="svg_102" d="m111.078,75.5738c4.296,0 7.778,-5.3024 7.778,-11.8431c0,-6.5408 -3.482,-11.8431 -7.778,-11.8431c-4.295,0 -7.778,5.3023 -7.778,11.8431c0,6.5407 3.483,11.8431 7.778,11.8431z" fill="#ECEFF1"/>
   <path id="svg_103" d="m138.002,76.7581c5.618,0 10.172,-6.0977 10.172,-13.6195c0,-7.5219 -4.554,-13.6196 -10.172,-13.6196c-5.617,0 -10.171,6.0977 -10.171,13.6196c0,7.5218 4.554,13.6195 10.171,13.6195z" fill="#ECEFF1"/>
   <path id="svg_104" d="m115.424,64.5411c-0.497,-3.8935 -2.761,-6.817 -5.056,-6.53c-2.294,0.2871 -3.752,3.6761 -3.254,7.5696c0.497,3.8934 2.76,6.817 5.055,6.5299c2.295,-0.2871 3.752,-3.6761 3.255,-7.5695z" fill="#212121"/>
   <path id="svg_105" d="m137.404,73.2052c3.305,0 5.983,-3.4465 5.983,-7.698c0,-4.2515 -2.678,-7.6981 -5.983,-7.6981c-3.304,0 -5.983,3.4466 -5.983,7.6981c0,4.2515 2.679,7.698 5.983,7.698z" fill="#212121"/>
   <path id="svg_106" d="m216.98,195.781c-2.393,-1.184 -6.582,-2.961 -10.172,-8.29c-1.794,-2.961 -1.196,-11.251 -4.188,-14.804c-1.795,-2.368 -4.188,-1.184 -4.786,-1.184c-5.385,1.184 -17.95,9.474 -26.326,0c-1.197,-1.184 -2.992,-2.961 -5.983,-2.961c-2.992,0 -4.188,1.184 -5.385,3.553c-1.197,2.369 -1.197,4.145 -1.197,10.067c0,4.737 0,10.066 -0.598,14.211c-1.197,10.067 -2.991,15.989 -2.991,21.91c0,6.514 1.794,10.659 4.188,12.435c1.795,1.777 4.786,2.961 11.368,2.961c6.581,0 10.769,-2.368 14.958,-6.514c2.991,-2.96 5.384,-4.145 13.761,-10.066c6.581,-4.145 16.753,-9.475 18.547,-11.251c1.197,-1.184 2.992,-1.777 2.992,-5.33c0,-2.96 -2.393,-4.145 -4.188,-4.737l0,0z" fill="#FFC107"/>
   <path id="svg_107" d="m96.7189,197.558c-5.9832,-9.475 -6.5815,-11.251 -10.7697,-17.173c-3.5899,-5.921 -11.3679,-17.172 -16.1544,-17.172c-3.5899,0 -5.3849,1.776 -7.7781,4.145c-2.3933,2.368 -4.7865,7.698 -8.9747,10.659c-3.5899,2.96 -13.7612,2.368 -16.1545,5.921c-2.3933,3.553 2.3933,8.883 2.3933,17.765c0,3.553 -2.9916,5.921 -3.5899,8.29c-0.5983,2.961 -1.1967,4.737 0,7.106c2.3932,3.553 5.3848,4.737 25.7275,8.882c10.7696,2.369 20.9409,8.29 27.5224,8.883c6.5814,0.592 17.9492,0 17.9492,-15.989c0.599,-9.474 -4.786,-11.843 -10.1711,-21.317z" fill="#FFC107"/>
   <path id="svg_108" d="m108.087,90.3777c-3.59,-2.3686 -6.582,-4.7373 -6.582,-8.2902c0,-3.5529 2.394,-4.7372 5.984,-7.698c0.598,-0.5922 7.179,-6.5137 13.761,-6.5137c6.581,0 14.359,4.1451 17.351,5.3294c5.385,1.1843 10.769,2.3686 10.171,6.5137c-0.598,5.9215 -1.196,7.1059 -7.18,10.0666c-4.188,1.1843 -11.966,7.698 -17.351,7.698c-2.393,0 -5.983,0 -8.376,-0.5921c-1.795,-0.5922 -4.787,-3.5529 -7.778,-6.5137l0,0z" fill="#FFC107"/>
   <path id="svg_109" d="m106.89,85.6405c1.197,1.1843 2.992,2.3686 4.787,2.9607c1.196,0.5922 2.991,1.1844 2.991,1.1844c2.394,0 4.189,0 5.385,0c2.992,0 7.18,-1.1843 11.368,-3.553c4.188,-1.7764 4.787,-2.9608 7.778,-4.1451c2.992,-1.7764 5.983,-3.5529 4.787,-4.145c-1.197,-0.5922 -2.394,0 -6.582,2.3686c-3.59,2.3686 -6.581,3.5529 -10.171,5.3294c-1.795,0.5921 -4.188,1.7764 -5.983,1.7764c-1.795,0 -3.59,0 -5.385,0c-1.795,0 -2.992,-0.5921 -4.787,-1.1843c-1.196,-0.5921 -1.795,-1.1843 -2.393,-1.1843c-1.196,-0.5921 -3.59,-2.9608 -4.786,-3.5529c0,0 -1.197,0 -0.599,0.5921c1.795,1.7765 2.394,2.3687 3.59,3.553z" fill="#634703"/>
   <path id="svg_110" d="m124.84,72.613c0.598,1.1843 1.795,1.1843 2.393,1.7765c0.598,0.5921 1.196,0.5921 1.196,0.5921c0.599,-0.5921 0,-1.7764 -0.598,-1.7764c0,-1.1843 -2.991,-1.1843 -2.991,-0.5922l0,0z" fill="#634703"/>
   <path id="svg_111" d="m115.267,73.7973c0,0.5922 1.196,1.1843 1.196,0.5922c0.599,-0.5922 1.197,-1.1843 1.795,-1.1843c1.197,-0.5922 0.598,-1.1843 -1.196,-1.1843c-1.197,0.5921 -1.197,1.1843 -1.795,1.7764l0,0z" fill="#634703"/>
   <path id="svg_112" d="m173.303,178.609c0,0.592 0,1.184 0,1.776c1.197,2.369 4.188,2.961 6.581,2.961c3.59,0 7.18,-2.369 8.975,-4.737c0,-0.592 0.598,-1.185 1.197,-1.777c1.196,-1.776 1.795,-2.96 2.393,-3.553c0,0 -0.598,-0.592 -0.598,-1.184c-0.599,-1.184 -2.394,-2.369 -4.787,-2.961c-1.795,-0.592 -4.786,-1.184 -5.983,-1.184c-5.385,-0.592 -8.376,1.184 -10.171,2.961c0,0 0.598,0 0.598,0.592c1.197,1.184 1.795,2.369 1.795,4.145c0.598,1.184 0,1.776 0,2.961l0,0z" fill="#455A64"/>
  </svg>
  <svg id="svg_113" y="0" x="3000" viewBox="0 0 256 256" fill="none" height="256" width="256" xmlns="http://www.w3.org/2000/svg">
   <rect id="svg_114" rx="60" fill="#242938" height="256" width="256"/>
   <path id="svg_115" d="m217,69l-178,0c-5.5228,0 -10,4.4772 -10,10l0,98c0,5.523 4.4772,10 10,10l178,0c5.523,0 10,-4.477 10,-10l0,-98c0,-5.5228 -4.477,-10 -10,-10z" stroke-width="10" stroke="#fff"/>
   <path id="svg_116" d="m54,162l0,-68l20,0l20,25l20,-25l20,0l0,68l-20,0l0,-39l-20,25l-20,-25l0,39l-20,0zm125,0l-30,-33l20,0l0,-35l20,0l0,35l20,0l-30,33z" fill="#fff"/>
  </svg>
  <svg id="svg_117" y="0" x="3300" viewBox="0 0 256 256" fill="none" height="256" width="256" xmlns="http://www.w3.org/2000/svg">
   <rect id="svg_118" rx="60" fill="#242938" height="256" width="256"/>
   <g id="svg_119" clip-path="url(#svg_17)">
    <path id="svg_120" clip-rule="evenodd" d="m203.801,178.21c-9.79,-0.272 -17.385,0.731 -23.75,3.409c-1.833,0.736 -4.774,0.736 -5.016,3.043c0.98,0.968 1.098,2.552 1.957,3.894c1.467,2.435 4.041,5.715 6.365,7.417l7.834,5.598c4.774,2.917 10.16,4.622 14.811,7.542c2.694,1.704 5.386,3.894 8.08,5.721c1.372,0.973 2.203,2.558 3.918,3.163l0,-0.368c-0.856,-1.091 -1.103,-2.672 -1.956,-3.894l-3.677,-3.526c-3.547,-4.744 -7.957,-8.884 -12.731,-12.287c-3.918,-2.677 -12.484,-6.326 -14.076,-10.825l-0.241,-0.273c2.689,-0.272 5.872,-1.219 8.445,-1.949c4.165,-1.091 7.957,-0.851 12.238,-1.945l5.88,-1.704l0,-1.091c-2.204,-2.189 -3.795,-5.11 -6.119,-7.176c-6.242,-5.353 -13.102,-10.586 -20.203,-14.965c-3.794,-2.432 -8.692,-4.017 -12.731,-6.081c-1.473,-0.731 -3.918,-1.096 -4.774,-2.312c-2.209,-2.672 -3.43,-6.204 -5.021,-9.369l-10.037,-21.168c-2.203,-4.745 -3.553,-9.49 -6.242,-13.869c-12.611,-20.6826 -26.324,-33.2122 -47.38,-45.5018c-4.5273,-2.555 -9.9134,-3.6539 -15.6397,-4.99l-9.1807,-0.4908c-1.9618,-0.8508 -3.9182,-3.1631 -5.633,-4.2593c-6.9775,-4.3792 -24.9741,-13.8684 -30.1187,-1.3634c-3.3063,7.9077 4.8977,15.6927 7.6826,19.7093c2.0853,2.7976 4.7742,5.9607 6.2477,9.1238c0.8231,2.0669 1.0975,4.2592 1.9563,6.4489c1.9563,5.3526 3.7947,11.3161 6.3656,16.3063c1.3719,2.555 2.8124,5.235 4.5273,7.545c0.9795,1.363 2.6944,1.947 3.0593,4.136c-1.7149,2.435 -1.8328,6.081 -2.8124,9.127c-4.4093,13.748 -2.6944,30.78 3.5477,40.902c1.9619,3.04 6.5852,9.734 12.8575,7.177c5.5095,-2.19 4.2803,-9.124 5.8717,-15.208c0.3704,-1.458 0.1235,-2.432 0.8561,-3.408l0,0.273l5.0211,10.097c3.7947,5.961 10.4076,12.167 15.9136,16.306c2.936,2.19 5.263,5.964 8.934,7.3l0,-0.368l-0.241,0c-0.736,-1.091 -1.839,-1.582 -2.818,-2.433c-2.203,-2.189 -4.651,-4.867 -6.366,-7.299c-5.139,-6.812 -9.6661,-14.357 -13.7077,-22.142c-1.9618,-3.771 -3.6767,-7.908 -5.2626,-11.679c-0.7408,-1.461 -0.7408,-3.654 -1.9618,-4.379c-1.8384,2.672 -4.5273,4.99 -5.88,8.273c-2.3267,5.23 -2.5682,11.679 -3.4242,18.371c-0.4939,0.122 -0.2744,0 -0.4939,0.272c-3.9127,-0.97 -5.2626,-4.99 -6.7305,-8.393c-3.6713,-8.638 -4.2859,-22.507 -1.1031,-32.484c0.8561,-2.555 4.5328,-10.585 3.0649,-13.018c-0.7409,-2.312 -3.1829,-3.648 -4.5328,-5.475c-1.5914,-2.312 -3.3008,-5.2301 -4.4038,-7.7851c-2.9359,-6.817 -4.4038,-14.3566 -7.5893,-21.1708c-1.4735,-3.1631 -4.0416,-6.4489 -6.1242,-9.3665c-2.3267,-3.2858 -4.8922,-5.5981 -6.7305,-9.4893c-0.6119,-1.3634 -1.468,-3.5284 -0.4884,-4.99c0.2414,-0.9734 0.7353,-1.3634 1.7094,-1.5815c1.5914,-1.3634 6.1241,0.3654 7.7155,1.0907c4.5273,1.8269 8.3219,3.5285 12.1166,6.0807c1.7149,1.2162 3.5533,3.5285 5.7565,4.1393l2.5737,0c3.9181,0.8508 8.3219,0.2727 11.9904,1.3634c6.4891,2.0724 12.3635,5.11 17.6318,8.3985c16.035,10.0973 29.26,24.4539 38.193,41.6106c1.468,2.798 2.08,5.353 3.43,8.273c2.574,5.964 5.757,12.045 8.322,17.888c2.574,5.718 5.021,11.562 8.693,16.306c1.838,2.555 9.18,3.891 12.484,5.23c2.45,1.091 6.242,2.073 8.451,3.409c4.159,2.555 8.322,5.475 12.237,8.273c1.956,1.456 8.081,4.499 8.445,6.926l0.014,-0.066zm-124.8426,-105.7227c-1.6914,-0.0149 -3.3775,0.1896 -5.0157,0.6081l0,0.2727l0.2415,0c0.9795,1.9469 2.6944,3.2857 3.9181,4.99l2.8179,5.8408l0.2414,-0.2727c1.7149,-1.2162 2.5737,-3.1631 2.5737,-6.0808c-0.7353,-0.8507 -0.856,-1.7042 -1.4679,-2.555c-0.7353,-1.2161 -2.3267,-1.8269 -3.309,-2.7976l0,-0.0055z" fill-rule="evenodd" fill="#fff"/>
   </g>
   <defs>
    <clipPath id="svg_17">
     <rect id="svg_121" x="38" y="38" fill="#fff" height="180" width="180"/>
    </clipPath>
   </defs>
  </svg>
  <svg id="svg_122" y="0" x="3600" fill="none" viewBox="0 0 256 256" height="256" width="256" xmlns="http://www.w3.org/2000/svg">
   <rect id="svg_123" fill="#242938" rx="60" height="256" width="256"/>
   <path id="svg_124" fill="url(#svg_19)" d="m172.787,97.4052l-0.073,-0.0313c-0.041,-0.0156 -0.083,-0.0313 -0.12,-0.0678c-0.06,-0.0643 -0.104,-0.1414 -0.129,-0.2255c-0.025,-0.0841 -0.031,-0.1729 -0.017,-0.2596l4.032,-24.6511l18.909,18.9135l-19.665,8.3665c-0.055,0.022 -0.113,0.0327 -0.172,0.0313l-0.078,0c-0.026,-0.0156 -0.053,-0.0365 -0.105,-0.0887c-0.732,-0.8148 -1.607,-1.4884 -2.582,-1.9873l0,0zm27.426,-1.5022l20.218,20.217c4.199,4.205 6.301,6.301 7.068,8.732c0.114,0.36 0.208,0.72 0.281,1.09l-48.316,-20.462c-0.026,-0.011 -0.052,-0.021 -0.078,-0.032c-0.193,-0.078 -0.418,-0.167 -0.418,-0.365c0,-0.198 0.23,-0.292 0.423,-0.37l0.062,-0.026l20.76,-8.784l0,0zm26.743,36.528c-1.043,1.961 -3.077,3.996 -6.52,7.443l-22.794,22.789l-29.481,-6.139l-0.157,-0.031c-0.261,-0.042 -0.537,-0.089 -0.537,-0.324c-0.112,-1.216 -0.473,-2.396 -1.061,-3.467c-0.588,-1.07 -1.39,-2.008 -2.356,-2.755c-0.12,-0.12 -0.088,-0.308 -0.052,-0.48c0,-0.026 0,-0.052 0.011,-0.073l5.544,-34.04l0.021,-0.115c0.032,-0.261 0.078,-0.563 0.313,-0.563c1.188,-0.148 2.335,-0.531 3.374,-1.127c1.039,-0.595 1.949,-1.391 2.677,-2.342c0.047,-0.052 0.078,-0.11 0.141,-0.141c0.167,-0.078 0.365,0 0.537,0.073l50.335,21.292l0.005,0zm-34.556,35.474l-37.483,37.483l6.416,-39.433l0.01,-0.053c0.006,-0.052 0.016,-0.104 0.032,-0.151c0.052,-0.125 0.187,-0.177 0.318,-0.229l0.062,-0.026c1.405,-0.6 2.648,-1.524 3.626,-2.697c0.125,-0.146 0.276,-0.287 0.469,-0.313c0.05,-0.008 0.101,-0.008 0.151,0l26.393,5.425l0.006,-0.006zm-45.417,45.417l-4.225,4.225l-46.7093,-67.507c-0.0169,-0.024 -0.0343,-0.049 -0.0522,-0.073c-0.073,-0.099 -0.1512,-0.198 -0.1356,-0.313c0.0052,-0.083 0.0574,-0.156 0.1148,-0.219l0.0521,-0.067c0.1409,-0.209 0.2608,-0.418 0.3912,-0.642l0.1044,-0.183l0.0156,-0.015c0.073,-0.125 0.1408,-0.245 0.266,-0.313c0.1096,-0.052 0.2608,-0.031 0.3808,-0.005l51.7482,10.672c0.145,0.022 0.281,0.081 0.397,0.172c0.068,0.068 0.083,0.141 0.099,0.224c0.361,1.366 1.033,2.63 1.963,3.693c0.93,1.063 2.093,1.897 3.399,2.436c0.146,0.073 0.083,0.235 0.016,0.407c-0.034,0.075 -0.06,0.154 -0.079,0.235c-0.652,3.964 -6.243,38.066 -7.746,47.273zm-8.825,8.82c-3.114,3.083 -4.95,4.715 -7.026,5.373c-2.047,0.647 -4.244,0.647 -6.291,0c-2.43,-0.772 -4.532,-2.869 -8.731,-7.073l-46.9084,-46.908l12.2526,-19.003c0.0573,-0.093 0.1147,-0.177 0.2086,-0.245c0.1304,-0.094 0.3182,-0.052 0.4747,0c2.8123,0.849 5.8317,0.696 8.5439,-0.433c0.1408,-0.052 0.2816,-0.088 0.3912,0.011c0.0547,0.05 0.1037,0.106 0.146,0.167l46.9394,68.116l0,-0.005zm-73.4787,-53.131l-10.7607,-10.76l21.2502,-9.066c0.0543,-0.024 0.1129,-0.036 0.1721,-0.036c0.1774,0 0.2817,0.177 0.3756,0.339c0.2136,0.328 0.4398,0.648 0.6781,0.959l0.0678,0.084c0.0626,0.088 0.0209,0.177 -0.0417,0.261l-11.7362,18.219l-0.0052,0zm-15.523,-15.523l-13.6139,-13.614c-2.3159,-2.316 -3.9955,-3.995 -5.1639,-5.44l41.3947,8.586c0.052,0.009 0.1041,0.018 0.1564,0.026c0.2556,0.041 0.5373,0.088 0.5373,0.328c0,0.261 -0.3078,0.381 -0.5686,0.48l-0.1199,0.052l-22.6221,9.582zm-21.1563,-26.054c0.0472,-0.877 0.2049,-1.744 0.4694,-2.582c0.772,-2.431 2.8689,-4.527 7.073,-8.732l17.4217,-17.4212c8.0214,11.6412 16.0646,23.2682 24.1294,34.8802c0.1409,0.187 0.2973,0.396 0.1357,0.552c-0.7616,0.84 -1.5231,1.758 -2.0604,2.755c-0.0583,0.128 -0.148,0.239 -0.2608,0.323c-0.0678,0.042 -0.1408,0.026 -0.2191,0.01l-0.0104,0l-46.6785,-9.79l0,0.005zm29.6272,-33.3984l23.4253,-23.4253c2.2012,0.965 10.2131,4.3502 17.3799,7.3755c5.4246,2.2951 10.3696,4.3815 11.9236,5.0596c0.157,0.0626 0.298,0.1252 0.365,0.2817c0.042,0.0939 0.021,0.2138 0,0.3129c-0.37,1.691 -0.315,3.4475 0.161,5.1118c0.476,1.6644 1.358,3.1843 2.567,4.4232c0.157,0.1565 0,0.3808 -0.135,0.5738l-0.073,0.1095l-23.7854,36.8407c-0.0626,0.105 -0.12,0.193 -0.2243,0.261c-0.1252,0.078 -0.3025,0.042 -0.4486,0.005c-0.9251,-0.242 -1.8761,-0.372 -2.8323,-0.386c-0.8554,0 -1.7839,0.157 -2.7228,0.329l-0.0052,0c-0.1043,0.016 -0.1982,0.036 -0.2817,-0.026c-0.0921,-0.075 -0.1714,-0.165 -0.2347,-0.266l-25.0788,-36.5804l0,0zm28.1563,-28.1562l30.3265,-30.3262c4.199,-4.1989 6.301,-6.301 8.731,-7.0678c2.047,-0.6472 4.244,-0.6472 6.291,0c2.431,0.7668 4.533,2.8689 8.732,7.0678l6.572,6.5722l-21.569,33.4037c-0.053,0.0972 -0.126,0.1824 -0.213,0.2503c-0.131,0.0887 -0.313,0.0522 -0.47,0c-1.7,-0.516 -3.501,-0.61 -5.246,-0.2737c-1.745,0.3363 -3.382,1.0926 -4.769,2.2037c-0.141,0.146 -0.349,0.0626 -0.527,-0.0157c-2.816,-1.2257 -24.7237,-10.4842 -27.8585,-11.8143l0,0zm65.2325,-19.1743l19.914,19.9149l-4.798,29.7211l0,0.0783c-0.005,0.0677 -0.019,0.1345 -0.042,0.1982c-0.052,0.1043 -0.157,0.1252 -0.261,0.1565c-1.026,0.3108 -1.992,0.7921 -2.858,1.424c-0.038,0.0265 -0.072,0.0562 -0.105,0.0886c-0.057,0.0626 -0.114,0.12 -0.208,0.1304c-0.077,0.0024 -0.153,-0.01 -0.225,-0.0365l-30.347,-12.8941l-0.057,-0.0261c-0.193,-0.0782 -0.422,-0.1721 -0.422,-0.3703c-0.179,-1.6911 -0.731,-3.3214 -1.617,-4.7727c-0.146,-0.2399 -0.308,-0.4903 -0.183,-0.7355l21.209,-32.8768l0,0zm-20.51,44.8894l28.448,12.0495c0.157,0.073 0.329,0.14 0.397,0.302c0.027,0.097 0.027,0.2 0,0.297c-0.084,0.418 -0.157,0.892 -0.157,1.372l0,0.798c0,0.199 -0.203,0.282 -0.391,0.36l-0.057,0.021c-4.507,1.925 -63.2711,26.983 -63.3598,26.983c-0.0886,0 -0.1825,0 -0.2712,-0.089c-0.1565,-0.156 0,-0.375 0.1408,-0.574c0.0249,-0.034 0.0493,-0.069 0.0731,-0.104l23.3781,-36.1994l0.042,-0.0626c0.136,-0.2191 0.292,-0.4642 0.542,-0.4642l0.235,0.0365c0.532,0.073 1.002,0.1408 1.476,0.1408c3.547,0 6.833,-1.7265 8.815,-4.6788c0.048,-0.0788 0.108,-0.1493 0.178,-0.2086c0.141,-0.1044 0.349,-0.0522 0.511,0.0208l0,0zm-32.5795,47.9095l64.0535,-27.316c0,0 0.094,0 0.182,0.088c0.35,0.35 0.647,0.584 0.934,0.803l0.141,0.089c0.13,0.073 0.261,0.157 0.271,0.292c0,0.052 0,0.084 -0.01,0.131l-5.488,33.706l-0.021,0.135c-0.036,0.261 -0.073,0.559 -0.318,0.559c-1.463,0.098 -2.88,0.552 -4.127,1.322c-1.248,0.77 -2.29,1.832 -3.034,3.096l-0.027,0.041c-0.073,0.12 -0.14,0.235 -0.26,0.298c-0.11,0.052 -0.251,0.031 -0.365,0.005l-51.0813,-10.537c-0.0522,-0.01 -0.7929,-2.707 -0.8502,-2.712l0,0z"/>

  </svg>
  <svg id="svg_125" y="0" x="3900" viewBox="0 0 256 256" fill="none" height="256" width="256" xmlns="http://www.w3.org/2000/svg">
   <rect id="svg_126" rx="60" fill="#242938" height="256" width="256"/>
   <path id="svg_127" d="m121.451,28.0537c-0.43,0.0391 -1.799,0.176 -3.031,0.2737c-28.4063,2.5611 -55.0143,17.8886 -71.8667,41.4468c-9.3842,13.0987 -15.3861,27.957 -17.654,43.6948c-0.8015,5.494 -0.8993,7.117 -0.8993,14.565c0,7.449 0.0978,9.072 0.8993,14.565c5.435,37.556 32.1603,69.111 68.4067,80.802c6.491,2.092 13.333,3.519 21.114,4.379c3.031,0.332 16.129,0.332 19.16,0c13.431,-1.486 24.809,-4.809 36.031,-10.538c1.72,-0.879 2.053,-1.114 1.818,-1.309c-0.156,-0.118 -7.488,-9.952 -16.285,-21.838l-15.992,-21.603l-20.04,-29.658c-11.026,-16.305 -20.097,-29.639 -20.176,-29.639c-0.078,-0.019 -0.156,13.158 -0.195,29.248c-0.059,28.172 -0.078,29.306 -0.43,29.97c-0.508,0.958 -0.899,1.349 -1.721,1.78c-0.6252,0.312 -1.1726,0.371 -4.1247,0.371l-3.3822,0l-0.8993,-0.567c-0.5865,-0.371 -1.0166,-0.86 -1.3099,-1.427l-0.4106,-0.88l0.0391,-39.198l0.0587,-39.2183l0.6061,-0.7625c0.3128,-0.4105 0.9775,-0.9384 1.4467,-1.1926c0.8015,-0.391 1.1144,-0.4301 4.4966,-0.4301c3.9885,0 4.6525,0.1564 5.6895,1.2904c0.293,0.3128 11.143,16.6571 24.125,36.3441c12.981,19.687 30.733,46.569 39.452,59.765l15.836,23.989l0.802,-0.528c7.096,-4.614 14.604,-11.183 20.547,-18.026c12.649,-14.526 20.802,-32.238 23.539,-51.124c0.801,-5.493 0.899,-7.116 0.899,-14.565c0,-7.448 -0.098,-9.071 -0.899,-14.565c-5.435,-37.556 -32.161,-69.1103 -68.407,-80.8014c-6.393,-2.0723 -13.196,-3.4995 -20.821,-4.3597c-1.877,-0.1955 -14.8,-0.4106 -16.422,-0.2542zm40.938,60.4888c0.938,0.4692 1.701,1.3685 1.975,2.3069c0.156,0.5083 0.195,11.3786 0.156,35.8746l-0.059,35.152l-6.197,-9.502l-6.217,-9.501l0,-25.552c0,-16.52 0.078,-25.8069 0.195,-26.2565c0.313,-1.0948 0.997,-1.955 1.936,-2.4634c0.801,-0.4105 1.095,-0.4496 4.164,-0.4496c2.894,0 3.402,0.0391 4.047,0.391z" fill="#fff"/>
  </svg>
  <svg id="svg_128" y="0" x="4200" viewBox="0 0 256 256" fill="none" height="256" width="256" xmlns="http://www.w3.org/2000/svg">
   <rect id="svg_129" rx="60" fill="#009639" height="256" width="256"/>
   <path id="svg_130" d="m195.338,213c-4.592,0 -9.114,-1.787 -12.491,-5.171l-104.5231,-104.522l0,92.033c0,9.755 -7.9055,17.66 -17.6619,17.66c-9.7494,0 -17.662,-7.905 -17.662,-17.66l0,-134.6722c0,-7.1489 4.3095,-13.5844 10.908,-16.3182c6.5915,-2.7409 14.1932,-1.2292 19.2445,3.8288l104.5235,104.5216l0,-92.0322c0,-9.7556 7.906,-17.6604 17.662,-17.6604c9.757,0 17.662,7.9048 17.662,17.6604l0,134.6722c0,7.141 -4.31,13.584 -10.908,16.318c-2.183,0.904 -4.472,1.342 -6.754,1.342z" fill="#fff"/>
  </svg>
  <svg id="svg_131" y="0" x="4500" viewBox="0 0 256 256" fill="none" height="256" width="256" xmlns="http://www.w3.org/2000/svg">
   <rect id="svg_132" rx="60" fill="#242938" height="256" width="256"/>
   <path id="svg_133" d="m119.878,31.1164c4.919,-2.8156 11.325,-2.8281 16.239,0c24.722,13.9691 49.452,27.9168 74.17,41.8944c4.65,2.6188 7.759,7.793 7.712,13.15l0,84.0452c0.035,5.579 -3.382,10.877 -8.287,13.436c-24.641,13.893 -49.27,27.802 -73.907,41.695c-5.019,2.87 -11.554,2.649 -16.418,-0.457c-7.387,-4.282 -14.787,-8.544 -22.1749,-12.822c-1.5099,-0.9 -3.2117,-1.616 -4.2776,-3.08c0.9421,-1.27 2.6273,-1.428 3.9964,-1.983c3.0831,-0.981 5.9161,-2.555 8.7481,-4.082c0.717,-0.49 1.591,-0.302 2.278,0.136c6.317,3.622 12.579,7.35 18.917,10.937c1.352,0.781 2.721,-0.256 3.877,-0.9c24.18,-13.667 48.39,-27.281 72.567,-40.952c0.896,-0.431 1.391,-1.382 1.318,-2.363c0.017,-27.725 0.004,-55.454 0.009,-83.1792c0.102,-1.1133 -0.542,-2.1368 -1.549,-2.5928c-24.555,-13.8288 -49.099,-27.6785 -73.65,-41.5108c-0.871,-0.5989 -2.02,-0.6004 -2.892,-0.0045c-24.552,13.8368 -49.0902,27.6995 -73.6416,41.5273c-1.0032,0.4565 -1.6764,1.4635 -1.557,2.5808c0.0042,27.7252 0,55.4542 0,83.1832c-0.0872,0.981 0.4456,1.912 1.3352,2.334c6.5516,3.715 13.1118,7.404 19.6676,11.107c3.6934,1.987 8.2281,3.169 12.2973,1.646c3.5908,-1.288 6.1078,-4.953 6.0393,-8.765c0.034,-27.563 -0.017,-55.13 0.0255,-82.6892c-0.0894,-1.2237 1.0709,-2.2347 2.2607,-2.1193c3.1482,-0.0215 6.3,-0.0424 9.448,0.0085c1.314,-0.03 2.218,1.2877 2.056,2.5204c-0.013,27.7376 0.034,55.4756 -0.021,83.2126c0.008,7.393 -3.029,15.437 -9.8667,19.054c-8.4236,4.363 -18.8354,3.438 -27.1574,-0.746c-7.2044,-3.596 -14.0796,-7.84 -21.1561,-11.692c-4.9177,-2.545 -8.3178,-7.864 -8.2832,-13.439l0,-84.0462c-0.0516,-5.4679 3.1819,-10.736 7.9758,-13.3163c24.6369,-13.9037 49.2697,-27.8184 73.9016,-41.7281z" fill="#81CD39"/>
   <path id="svg_134" d="m141.372,89.3351c10.745,-0.6918 22.248,-0.4096 31.917,4.8834c7.487,4.0569 11.637,12.5705 11.769,20.8875c-0.209,1.121 -1.382,1.74 -2.453,1.663c-3.117,-0.004 -6.236,0.043 -9.353,-0.021c-1.323,0.051 -2.091,-1.168 -2.257,-2.337c-0.896,-3.98 -3.067,-7.921 -6.812,-9.841c-5.75,-2.878 -12.416,-2.733 -18.686,-2.673c-4.577,0.242 -9.499,0.639 -13.377,3.33c-2.977,2.039 -3.881,6.155 -2.819,9.47c1.002,2.38 3.749,3.148 5.998,3.856c12.949,3.387 26.671,3.049 39.373,7.506c5.259,1.817 10.403,5.35 12.203,10.856c2.355,7.38 1.323,16.2 -3.928,22.124c-4.258,4.875 -10.459,7.529 -16.644,8.97c-8.228,1.835 -16.767,1.882 -25.123,1.067c-7.857,-0.896 -16.034,-2.96 -22.099,-8.313c-5.187,-4.504 -7.72,-11.522 -7.469,-18.294c0.06,-1.144 1.199,-1.942 2.295,-1.848c3.139,-0.025 6.279,-0.034 9.418,0.005c1.255,-0.09 2.184,0.994 2.249,2.176c0.578,3.791 2.003,7.771 5.31,10.018c6.38,4.117 14.387,3.835 21.693,3.95c6.053,-0.268 12.848,-0.349 17.787,-4.35c2.606,-2.282 3.378,-6.1 2.674,-9.384c-0.763,-2.773 -3.664,-4.065 -6.155,-4.91c-12.783,-4.043 -26.659,-2.576 -39.318,-7.149c-5.14,-1.816 -10.11,-5.25 -12.084,-10.53c-2.755,-7.473 -1.493,-16.717 4.308,-22.4409c5.656,-5.6941 13.82,-7.8869 21.583,-8.6715l0,0.0005" fill="#81CD39"/>
  </svg>
  <svg id="svg_135" y="0" x="4800" viewBox="0 0 256 256" fill="none" height="256" width="256" xmlns="http://www.w3.org/2000/svg">
   <rect id="svg_136" rx="60" fill="#001E36" height="256" width="256"/>
   <path id="svg_137" d="m57.6001,178.04l0,-109.7601c0,-0.7467 0.32,-1.1733 1.0667,-1.1733c1.8133,0 3.52,0 5.9733,-0.1067c2.56,-0.1067 5.2267,-0.1067 8.1067,-0.2133c2.88,-0.1067 5.9733,-0.1067 9.28,-0.2134c3.3066,-0.1066 6.5066,-0.1066 9.7066,-0.1066c8.7466,0 15.9996,1.0666 21.9736,3.3066c5.333,1.8134 10.24,4.8 14.293,8.7467c3.413,3.4133 6.08,7.5733 7.787,12.16c1.6,4.48 2.453,9.0667 2.453,13.8671c0,9.173 -2.133,16.746 -6.4,22.72c-4.267,5.973 -10.24,10.453 -17.173,13.013c-7.254,2.667 -15.2536,3.627 -24.0002,3.627c-2.56,0 -4.2667,0 -5.3334,-0.107c-1.0666,-0.107 -2.56,-0.107 -4.5866,-0.107l0,34.24c0.1066,0.747 -0.4267,1.387 -1.1734,1.494c-0.1066,0 -0.2133,0 -0.4266,0l-20.2667,0c-0.8533,0 -1.28,-0.427 -1.28,-1.387zm23.2533,-90.3468l0,35.8398c1.4934,0.107 2.88,0.214 4.16,0.214l5.6534,0c4.16,0 8.32,-0.64 12.2662,-1.92c3.414,-0.96 6.4,-2.987 8.747,-5.654c2.24,-2.666 3.307,-6.293 3.307,-10.986c0.106,-3.307 -0.747,-6.6138 -2.454,-9.4938c-1.813,-2.7733 -4.373,-4.9066 -7.466,-6.08c-3.947,-1.6 -8.2136,-2.24 -12.5869,-2.1333c-2.7733,0 -5.2267,0 -7.2533,0.1067c-2.1334,-0.1067 -3.6267,0 -4.3734,0.1066z" fill="#31A8FF"/>
   <path id="svg_138" d="m204.8,117.027c-3.2,-1.707 -6.613,-2.88 -10.24,-3.627c-3.947,-0.853 -7.893,-1.387 -11.947,-1.387c-2.133,-0.106 -4.373,0.214 -6.4,0.747c-1.386,0.32 -2.56,1.067 -3.306,2.133c-0.534,0.854 -0.854,1.92 -0.854,2.88c0,0.96 0.427,1.92 1.067,2.774c0.96,1.173 2.24,2.133 3.627,2.88c2.453,1.28 5.013,2.453 7.573,3.52c5.76,1.92 11.307,4.586 16.427,7.786c3.52,2.24 6.4,5.227 8.426,8.854c1.707,3.413 2.56,7.146 2.454,10.986c0.106,5.014 -1.387,10.027 -4.16,14.187c-2.987,4.267 -7.147,7.573 -11.947,9.493c-5.227,2.24 -11.627,3.414 -19.307,3.414c-4.906,0 -9.706,-0.427 -14.506,-1.387c-3.734,-0.64 -7.467,-1.813 -10.88,-3.413c-0.747,-0.427 -1.28,-1.174 -1.174,-2.027l0,-18.56c0,-0.32 0.107,-0.747 0.427,-0.96c0.32,-0.213 0.64,-0.107 0.96,0.107c4.16,2.453 8.533,4.16 13.227,5.226c4.053,1.067 8.32,1.6 12.586,1.6c4.054,0 6.934,-0.533 8.854,-1.493c1.706,-0.747 2.88,-2.56 2.88,-4.48c0,-1.493 -0.854,-2.88 -2.56,-4.267c-1.707,-1.386 -5.227,-2.986 -10.454,-5.013c-5.44,-1.92 -10.453,-4.48 -15.146,-7.68c-3.307,-2.347 -6.08,-5.44 -8.107,-9.067c-1.707,-3.413 -2.56,-7.146 -2.453,-10.88c0,-4.586 1.28,-8.96 3.626,-12.906c2.667,-4.267 6.614,-7.6804 11.2,-9.8138c5.014,-2.56 11.307,-3.7333 18.88,-3.7333c4.374,0 8.854,0.32 13.227,0.96c3.2,0.4267 6.293,1.28 9.173,2.4533c0.427,0.1067 0.854,0.5334 1.067,0.96c0.107,0.4267 0.213,0.8534 0.213,1.28l0,17.3868c0,0.427 -0.213,0.853 -0.533,1.067c-0.96,0.213 -1.493,0.213 -1.92,0z" fill="#31A8FF"/>
  </svg>
  <svg id="svg_139" y="0" x="5100" fill="none" viewBox="0 0 256 256" height="256" width="256" xmlns="http://www.w3.org/2000/svg">
   <rect id="svg_140" fill="#242938" rx="60" height="256" width="256"/>
   <path id="svg_141" fill="white" d="m38,128.002c0,-49.7068 40.2952,-90.002 90.002,-90.002c36.547,0 68.007,21.7838 82.103,53.0756l-119.0294,119.0294c-5.1076,-2.301 -9.9622,-5.065 -14.5102,-8.238l73.8656,-73.865l-22.429,0l-63.641,63.641c-16.2872,-16.287 -26.361,-38.788 -26.361,-63.641z"/>
   <path id="svg_142" fill="white" d="m218,128.031l-89.971,89.971c49.682,-0.016 89.954,-40.288 89.971,-89.971z"/>
  </svg>
  <svg id="svg_143" y="300" x="0" fill="none" viewBox="0 0 256 256" height="256" width="256" xmlns="http://www.w3.org/2000/svg">
   <rect id="svg_144" fill="#FF6C37" rx="60" height="256" width="256"/>
   <path id="svg_145" fill="#EEEEEE" d="m169.061,88.6123l-50.54,50.5407l-14.253,-14.252c49.703,-49.7024 54.614,-45.3909 64.793,-36.2887z"/>
   <path id="svg_146" fill="#FF6C37" d="m118.521,140.35c-0.36,0 -0.599,-0.119 -0.839,-0.359l-14.372,-14.252c-0.479,-0.479 -0.479,-1.197 0,-1.676c50.541,-50.5419 55.81,-45.7512 66.47,-36.1698c0.24,0.2396 0.359,0.4792 0.359,0.8385c0,0.3594 -0.119,0.5989 -0.359,0.8377l-50.541,50.4216c-0.119,0.24 -0.479,0.359 -0.718,0.359zm-12.576,-15.449l12.576,12.575l48.744,-48.7443c-8.862,-7.9051 -14.851,-10.3001 -61.32,36.1693z"/>
   <path id="svg_147" fill="#EEEEEE" d="m133.012,153.645l-13.773,-13.773l50.541,-50.5405c13.534,13.6525 -6.707,35.8095 -36.768,64.3135z"/>
   <path id="svg_148" fill="#FF6C37" d="m133.012,154.843c-0.36,0 -0.598,-0.12 -0.838,-0.36l-13.773,-13.773c-0.24,-0.239 -0.24,-0.479 -0.24,-0.838c0,-0.36 0.12,-0.599 0.36,-0.839l50.54,-50.5403c0.479,-0.4792 1.198,-0.4792 1.677,0c3.114,2.8741 4.791,6.946 4.671,11.1378c-0.239,13.2935 -15.33,30.1805 -41.439,54.8525c-0.359,0.24 -0.719,0.36 -0.958,0.36zm-12.096,-14.971c7.664,7.784 10.899,10.899 12.096,12.096c20.121,-19.162 39.642,-38.804 39.762,-52.3375c0.12,-3.1137 -1.077,-6.2274 -3.114,-8.6231l-48.744,48.8646z"/>
   <path id="svg_149" fill="#EEEEEE" d="m104.508,125.26l10.18,10.18c0.239,0.24 0.239,0.479 0,0.719c-0.12,0.12 -0.12,0.12 -0.239,0.12l-21.0797,4.551c-1.0773,0.12 -2.0356,-0.599 -2.2751,-1.677c-0.1198,-0.599 0.1198,-1.197 0.4791,-1.557l12.2157,-12.216c0.24,-0.24 0.599,-0.36 0.719,-0.12z"/>
   <path id="svg_150" fill="#FF6C37" d="m93.01,142.028c-1.796,0 -3.1137,-1.438 -3.1137,-3.235c0,-0.837 0.3594,-1.676 0.9583,-2.275l12.2154,-12.216c0.719,-0.599 1.678,-0.599 2.396,0l10.18,10.18c0.718,0.599 0.718,1.677 0,2.395c-0.24,0.24 -0.479,0.36 -0.839,0.48l-21.0783,4.551c-0.2396,0 -0.4792,0.12 -0.7187,0.12zm11.139,-15.451l-11.7372,11.737c-0.2395,0.24 -0.3593,0.599 -0.1198,0.958c0.1198,0.36 0.4784,0.48 0.8378,0.36l19.7612,-4.312l-8.742,-8.743z"/>
   <path id="svg_151" fill="#EEEEEE" d="m195.769,60.5877c-7.665,-7.4252 -20.001,-7.1856 -27.427,0.599c-7.425,7.7845 -7.185,20.0004 0.599,27.4264c6.348,6.1076 15.93,7.1857 23.475,2.6345l-13.654,-13.6533l17.007,-17.0066z"/>
   <path id="svg_152" fill="#FF6C37" d="m182.355,95.1996c-11.377,0 -20.599,-9.222 -20.599,-20.5994c0,-11.3782 9.222,-20.6002 20.599,-20.6002c5.27,0 10.42,2.0364 14.252,5.749c0.24,0.2396 0.36,0.4791 0.36,0.8385c0,0.3594 -0.12,0.5989 -0.36,0.8385l-16.168,16.1681l12.695,12.695c0.48,0.4792 0.48,1.1979 0,1.677c-0.119,0.1198 -0.119,0.1198 -0.239,0.2396c-3.114,1.9158 -6.827,2.9939 -10.54,2.9939zm0,-38.6841c-10.06,0 -18.204,8.144 -18.084,18.2045c0,10.0605 8.143,18.2044 18.204,18.0847c2.755,0 5.509,-0.599 8.024,-1.9167l-12.575,-12.4554c-0.24,-0.2396 -0.359,-0.4792 -0.359,-0.8385c0,-0.3594 0.119,-0.599 0.359,-0.8385l16.049,-16.0483c-3.234,-2.7543 -7.306,-4.1918 -11.618,-4.1918z"/>
   <path id="svg_153" fill="#EEEEEE" d="m196.128,60.9471l-0.239,-0.2396l-17.127,16.8868l13.534,13.5336c1.318,-0.8385 2.634,-1.796 3.713,-2.8741c7.664,-7.5458 7.664,-19.7617 0.119,-27.3067z"/>
   <path id="svg_154" fill="#FF6C37" d="m192.416,92.4448c-0.36,0 -0.599,-0.1198 -0.839,-0.3593l-13.653,-13.6534c-0.24,-0.2396 -0.359,-0.4791 -0.359,-0.8385c0,-0.3594 0.119,-0.5989 0.359,-0.8385l17.006,-17.0066c0.48,-0.4791 1.198,-0.4791 1.677,0l0.36,0.2396c8.024,8.0241 8.024,20.9588 0.12,29.1035c-1.198,1.1971 -2.516,2.2751 -3.953,3.1137c-0.359,0.1197 -0.598,0.2395 -0.718,0.2395zm-11.977,-14.8512l12.097,12.0961c0.958,-0.5981 1.916,-1.4366 2.634,-2.1553c6.827,-6.8271 7.186,-17.9649 0.599,-25.1506l-15.33,15.2098z"/>
   <path id="svg_155" fill="#EEEEEE" d="m171.098,90.7674c-2.875,-2.8741 -7.546,-2.8741 -10.42,0l-45.152,45.1516l7.546,7.545l47.786,-41.917c3.114,-2.6357 3.353,-7.3066 0.719,-10.4203c-0.24,-0.1197 -0.36,-0.2395 -0.479,-0.3593z"/>
   <path id="svg_156" fill="#FF6C37" d="m122.952,144.662c-0.359,0 -0.599,-0.12 -0.839,-0.359l-7.545,-7.545c-0.479,-0.479 -0.479,-1.198 0,-1.677l45.151,-45.152c3.354,-3.3532 8.743,-3.3532 12.097,0c3.354,3.354 3.354,8.7429 0,12.097c-0.119,0.12 -0.239,0.239 -0.359,0.359l-47.787,41.918c-0.119,0.239 -0.359,0.359 -0.718,0.359zm-5.749,-8.743l5.869,5.869l46.948,-41.2c2.634,-2.1557 2.874,-6.1079 0.718,-8.7424c-2.156,-2.6345 -6.108,-2.8741 -8.743,-0.7187c-0.119,0.1198 -0.239,0.2395 -0.479,0.3593l-44.313,44.4328z"/>
   <path id="svg_157" fill="#EEEEEE" d="m80.9139,187.3c-0.4792,0.239 -0.7188,0.718 -0.599,1.197l2.0364,8.624c0.4792,1.197 -0.2396,2.635 -1.5572,2.994c-0.9583,0.359 -2.0356,0 -2.6345,-0.718l-13.1742,-13.055l42.9956,-42.996l14.851,0.239l10.06,10.061c-2.395,2.036 -16.887,16.048 -51.9781,33.654z"/>
   <path id="svg_158" fill="#FF6C37" d="m79.9556,201.311c-0.9575,0 -1.9158,-0.359 -2.5148,-1.077l-13.0544,-13.055c-0.2395,-0.239 -0.3593,-0.479 -0.3593,-0.838c0,-0.359 0.1198,-0.599 0.3593,-0.839l42.9956,-42.995c0.24,-0.24 0.599,-0.36 0.839,-0.36l14.851,0.24c0.359,0 0.598,0.12 0.837,0.359l10.061,10.06c0.24,0.24 0.359,0.599 0.359,0.958c0,0.36 -0.119,0.599 -0.479,0.839l-0.838,0.719c-12.695,11.137 -29.942,22.276 -51.3794,32.935l2.0364,8.503c0.3585,1.557 -0.3594,3.234 -1.7968,4.072c-0.7188,0.359 -1.3177,0.479 -1.9166,0.479zm-13.1742,-14.97l12.3364,12.216c0.3586,0.599 1.0773,0.838 1.6763,0.479c0.5989,-0.359 0.8385,-1.078 0.4791,-1.677l-2.0356,-8.623c-0.2395,-1.078 0.2388,-2.036 1.1971,-2.515c21.1983,-10.659 38.3253,-21.677 50.9003,-32.576l-8.862,-8.863l-13.773,-0.24l-41.9186,41.799z"/>
   <path id="svg_159" fill="#EEEEEE" d="m54.8051,196.641l10.3001,-10.3l15.3295,15.33l-24.4318,-1.676c-1.078,-0.12 -1.7968,-1.078 -1.677,-2.157c0,-0.479 0.1198,-0.958 0.4792,-1.197z"/>
   <path id="svg_160" fill="#FF6C37" d="m80.4347,202.749l-24.5516,-1.677c-1.7968,-0.12 -2.9947,-1.676 -2.8749,-3.473c0.1198,-0.719 0.3594,-1.437 0.9583,-1.916l10.3001,-10.3c0.4792,-0.479 1.1979,-0.479 1.6763,0l15.3303,15.33c0.3594,0.359 0.4792,0.838 0.2396,1.318c-0.2396,0.479 -0.5989,0.718 -1.0781,0.718zm-15.3296,-14.731l-9.4616,9.461c-0.3593,0.24 -0.3593,0.839 0,1.078c0.1198,0.12 0.2396,0.24 0.4792,0.24l21.1983,1.437l-12.2159,-12.216z"/>
   <path id="svg_161" fill="#FF6C37" d="m103.789,148.855c-0.719,0 -1.198,-0.599 -1.198,-1.198c0,-0.359 0.12,-0.598 0.36,-0.838l11.617,-11.617c0.479,-0.48 1.198,-0.48 1.677,0l7.545,7.545c0.359,0.359 0.479,0.718 0.359,1.198c-0.12,0.359 -0.479,0.718 -0.957,0.838l-19.163,4.072c-0.12,0 -0.24,0 -0.24,0zm11.617,-11.138l-7.904,7.905l12.934,-2.756l-5.03,-5.149z"/>
   <path id="svg_162" fill="#EEEEEE" d="m122.832,143.584l-13.174,2.875c-0.958,0.24 -1.917,-0.359 -2.156,-1.317c-0.12,-0.599 0,-1.198 0.479,-1.677l7.305,-7.306l7.546,7.425z"/>
   <path id="svg_163" fill="#FF6C37" d="m109.418,147.657c-1.677,0 -2.994,-1.317 -2.994,-2.994c0,-0.838 0.359,-1.557 0.838,-2.155l7.306,-7.306c0.479,-0.48 1.198,-0.48 1.677,0l7.545,7.545c0.359,0.359 0.479,0.718 0.359,1.198c-0.12,0.359 -0.479,0.718 -0.957,0.838l-13.175,2.874c-0.239,0 -0.479,0 -0.599,0zm5.988,-9.94l-6.467,6.467c-0.239,0.24 -0.239,0.479 -0.12,0.719c0.12,0.239 0.36,0.359 0.719,0.359l11.018,-2.396l-5.15,-5.149z"/>
   <path id="svg_164" fill="#FF6C37" d="m196.248,72.4434c-0.239,-0.718 -1.078,-1.0773 -1.797,-0.8377c-0.718,0.2387 -1.077,1.0772 -0.837,1.796c0,0.1198 0.119,0.2395 0.119,0.3593c0.718,1.4375 0.48,3.2335 -0.479,4.5511c-0.479,0.599 -0.359,1.4375 0.12,1.9166c0.599,0.4784 1.437,0.3594 1.916,-0.2395c1.797,-2.276 2.156,-5.1501 0.958,-7.5458z"/>
  </svg>
  <svg id="svg_165" y="300" x="300" viewBox="0 0 256 256" fill="none" height="256" width="256" xmlns="http://www.w3.org/2000/svg">
   <rect id="svg_166" rx="60" fill="#242938" height="256" width="256"/>
   <path id="svg_167" d="m127.279,29c-50.7724,0 -47.6018,22.018 -47.6018,22.018l0.0566,22.8104l48.4512,0l0,6.8488l-67.6957,0c0,0 -32.4893,-3.6846 -32.4893,47.5448c0,51.23 28.3573,49.414 28.3573,49.414l16.9239,0l0,-23.773c0,0 -0.9122,-28.357 27.9048,-28.357l48.054,0c0,0 26.999,0.436 26.999,-26.0937l0,-43.8662c0,0 4.099,-26.5461 -48.96,-26.5461zm-26.716,15.339c4.821,0 8.717,3.8961 8.717,8.7166c0,4.8205 -3.896,8.7167 -8.717,8.7167c-4.8204,0 -8.7165,-3.8962 -8.7165,-8.7167c0,-4.8205 3.8961,-8.7166 8.7165,-8.7166z" fill="url(#svg_28)"/>
   <path id="svg_168" d="m128.721,227.958c50.772,0 47.602,-22.017 47.602,-22.017l-0.057,-22.811l-48.451,0l0,-6.849l67.696,0c0,0 32.489,3.685 32.489,-47.545c0,-51.2298 -28.357,-49.413 -28.357,-49.413l-16.924,0l0,23.773c0,0 0.912,28.357 -27.905,28.357l-48.054,0c0,0 -26.9993,-0.437 -26.9993,26.093l0,43.866c0,0 -4.0992,26.546 48.9603,26.546zm26.716,-15.339c-4.821,0 -8.717,-3.896 -8.717,-8.716c0,-4.821 3.896,-8.717 8.717,-8.717c4.82,0 8.717,3.896 8.717,8.717c0,4.82 -3.897,8.716 -8.717,8.716z" fill="url(#svg_27)"/>

  </svg>
  <svg id="svg_169" y="300" x="600" fill="none" viewBox="0 0 256 256" height="256" width="256" xmlns="http://www.w3.org/2000/svg">
   <rect id="svg_170" fill="#242938" rx="60" height="256" width="256"/>
   <path id="svg_171" fill="#EE4C2C" d="m180.975,90.4153l-13.408,13.4087c21.941,21.941 21.941,57.291 0,78.826c-21.942,21.941 -57.292,21.941 -78.8266,0c-21.9413,-21.941 -21.9413,-57.291 0,-78.826l34.7406,-34.7405l4.876,-4.8758l0,-26.2077l-52.4157,52.4153c-29.2551,29.2547 -29.2551,76.3887 0,105.6437c29.2547,29.255 76.3887,29.255 105.0337,0c29.255,-29.459 29.255,-76.389 0,-105.6437z"/>
   <path id="svg_172" fill="#EE4C2C" d="m154.77,87.1705c5.386,0 9.752,-4.366 9.752,-9.7517c0,-5.3857 -4.366,-9.7518 -9.752,-9.7518c-5.385,0 -9.751,4.3661 -9.751,9.7518c0,5.3857 4.366,9.7517 9.751,9.7517z"/>
  </svg>
  <svg id="svg_173" y="300" x="900" viewBox="0 0 256 256" fill="none" height="256" width="256" xmlns="http://www.w3.org/2000/svg">
   <rect id="svg_174" rx="60" fill="#242938" height="256" width="256"/>
   <path id="svg_175" clip-rule="evenodd" d="m99.5884,90.2637c-8.7087,0 -14.7148,2.7398 -18.0181,8.2915c-3.2282,5.5518 -4.8799,14.3478 -4.8799,26.5328c0,12.113 1.5766,20.837 4.7298,26.028c3.1531,5.191 9.2342,7.859 18.1682,7.859c8.9336,0 14.9396,-2.595 18.0936,-7.715c3.078,-5.119 4.654,-13.843 4.654,-26.028c0,-12.257 -1.576,-21.125 -4.805,-26.6768c-3.228,-5.5517 -9.234,-8.2915 -17.9426,-8.2915" fill-rule="evenodd" fill="#41CD52"/>
   <path id="svg_176" clip-rule="evenodd" d="m178.837,169.771c-7.934,0 -13.373,-1.708 -16.321,-5.124c-2.946,-3.415 -4.457,-9.892 -4.457,-19.427l0,-30.743l-10.728,0l0,-12.24l10.728,0l0,-19.2136l15.187,0l0,19.2136l19.341,0l0,12.311l-19.341,0l0,29.106c0,5.408 0.453,8.966 1.284,10.675c0.83,1.779 3.022,2.633 6.422,2.633l11.484,-0.428l0.68,11.529c-6.195,1.138 -10.956,1.708 -14.279,1.708l0,0zm-43.746,13.805l-14.431,6.334l-12.466,-19.286c-1.814,0.499 -4.609,0.784 -8.538,0.784c-14.5819,0 -24.7817,-3.701 -30.5238,-11.102c-5.7421,-7.4 -8.6131,-19.142 -8.6131,-35.084c0,-16.011 2.9466,-27.8948 8.7642,-35.6516c5.8177,-7.7575 15.9419,-11.6715 30.3727,-11.6715c14.431,0 24.555,3.8436 30.297,11.6003c5.818,7.6857 8.689,19.5698 8.689,35.6528c0,10.603 -1.209,19.142 -3.551,25.619c-2.419,6.547 -6.271,11.528 -11.711,14.944l11.711,17.861zm82.278,-132.576l-7.706,0l-161.9125,0l-30.7505,28.9634l0,96.8526l0,7.899l0,20.068l21.3062,0l7.7065,0l161.9123,0l30.75,-28.963l0,-96.8536l0,-7.8984l0,-20.068l-21.306,0z" fill-rule="evenodd" fill="#41CD52"/>
  </svg>
  <svg id="svg_177" y="300" x="1200" viewBox="0 0 256 256" fill="none" height="256" width="256" xmlns="http://www.w3.org/2000/svg">
   <rect id="svg_178" rx="60" fill="#242938" height="256" width="256"/>
   <path id="svg_179" d="m128.001,146.951c10.304,0 18.656,-8.353 18.656,-18.656c0,-10.303 -8.352,-18.656 -18.656,-18.656c-10.303,0 -18.656,8.353 -18.656,18.656c0,10.303 8.353,18.656 18.656,18.656z" fill="#00D8FF"/>
   <path id="svg_180" clip-rule="evenodd" d="m128.002,90.3633c25.048,0 48.317,3.5942 65.862,9.6343c21.139,7.2774 34.136,18.3084 34.136,28.2974c0,10.409 -13.774,22.128 -36.475,29.649c-17.162,5.686 -39.746,8.654 -63.523,8.654c-24.378,0 -47.4631,-2.786 -64.8186,-8.717c-21.9579,-7.505 -35.1834,-19.375 -35.1834,-29.586c0,-9.908 12.4096,-20.854 33.2515,-28.12c17.6102,-6.1397 41.4535,-9.8117 66.7465,-9.8117l0.004,0z" stroke-width="8.911" stroke="#00D8FF" fill-rule="evenodd"/>
   <path id="svg_181" clip-rule="evenodd" d="m94.9811,109.438c12.5139,-21.6978 27.2509,-40.0597 41.2489,-52.2409c16.864,-14.6765 32.914,-20.4243 41.566,-15.4348c9.017,5.2 12.288,22.9873 7.463,46.4089c-3.645,17.7078 -12.359,38.7538 -24.238,59.3518c-12.179,21.118 -26.124,39.724 -39.931,51.792c-17.471,15.272 -34.3616,20.799 -43.2067,15.698c-8.583,-4.946 -11.8652,-21.167 -7.7477,-42.852c3.4789,-18.323 12.2095,-40.812 24.8414,-62.723l0.0041,0z" stroke-width="8.911" stroke="#00D8FF" fill-rule="evenodd"/>
   <path id="svg_182" clip-rule="evenodd" d="m95.0123,147.578c-12.549,-21.674 -21.0929,-43.616 -24.6592,-61.8263c-4.2929,-21.9408 -1.2577,-38.7162 7.387,-43.7202c9.0084,-5.2152 26.0519,0.8345 43.9339,16.7122c13.52,12.0042 27.403,30.0615 39.316,50.6393c12.214,21.098 21.368,42.473 24.929,60.461c4.506,22.764 0.859,40.157 -7.978,45.272c-8.574,4.964 -24.265,-0.291 -40.996,-14.689c-14.136,-12.164 -29.26,-30.959 -41.9327,-52.849z" stroke-width="8.911" stroke="#00D8FF" fill-rule="evenodd"/>
  </svg>
  <svg id="svg_183" y="300" x="1500" viewBox="0 0 256 256" fill="none" height="256" width="256" xmlns="http://www.w3.org/2000/svg">
   <rect id="svg_184" rx="60" fill="#242938" height="256" width="256"/>
   <g id="svg_185" clip-path="url(#svg_33)">
    <path id="svg_186" d="m220.161,174.468c-10.673,5.567 -65.957,28.297 -77.727,34.431c-11.771,6.135 -18.308,6.077 -27.608,1.633c-9.3,-4.443 -68.1315,-28.206 -78.7356,-33.275c-5.302,-2.535 -8.0803,-4.666 -8.0803,-6.681l0,-20.216c0,0 76.5989,-16.675 88.9679,-21.113c12.37,-4.438 16.649,-4.597 27.179,-0.742c10.53,3.854 73.449,15.206 83.846,19.018l0,19.936c0,1.999 -2.396,4.241 -7.831,7.02l-0.011,-0.011z" fill="#A41E11"/>
    <path id="svg_187" d="m220.162,154.246c-10.674,5.567 -65.958,28.297 -77.728,34.431c-11.771,6.135 -18.308,6.076 -27.608,1.633c-9.3,-4.443 -68.1314,-28.207 -78.7355,-33.275c-10.6041,-5.069 -10.8162,-8.552 -0.4083,-12.63l81.2908,-31.473c12.365,-4.432 16.649,-4.597 27.178,-0.742c10.53,3.855 65.481,25.726 75.873,29.596c10.392,3.871 10.8,6.946 0.127,12.513l0.011,-0.053z" fill="#D82C20"/>
    <path id="svg_188" d="m220.161,141.5c-10.673,5.567 -65.957,28.297 -77.727,34.431c-11.771,6.135 -18.308,6.076 -27.608,1.633c-9.3,-4.443 -68.1315,-28.207 -78.7356,-33.275c-5.302,-2.535 -8.0803,-4.666 -8.0803,-6.681l0,-20.217c0,0 76.5989,-16.675 88.9679,-21.1123c12.37,-4.4378 16.649,-4.5969 27.179,-0.7423c10.53,3.8546 73.449,15.2066 83.846,19.0186l0,19.936c0,1.998 -2.396,4.241 -7.831,7.019l-0.011,-0.01z" fill="#A41E11"/>
    <path id="svg_189" d="m220.162,121.283c-10.674,5.567 -65.958,28.297 -77.728,34.432c-11.771,6.134 -18.308,6.076 -27.608,1.633c-9.3,-4.444 -68.1314,-28.207 -78.7355,-33.276c-10.6041,-5.069 -10.8162,-8.552 -0.4083,-12.63l81.2908,-31.4672c12.365,-4.4378 16.649,-4.5968 27.178,-0.7422c10.53,3.8545 65.481,25.7304 75.883,29.5324c10.403,3.802 10.801,6.946 0.128,12.513l0,0.005z" fill="#D82C20"/>
    <path id="svg_190" d="m220.161,107.312c-10.673,5.567 -65.957,28.297 -77.727,34.437c-11.771,6.14 -18.308,6.076 -27.608,1.633c-9.3,-4.443 -68.1315,-28.207 -78.7356,-33.276c-5.302,-2.534 -8.0803,-4.665 -8.0803,-6.68l0,-20.2275c0,0 76.5989,-16.6749 88.9679,-21.1127c12.37,-4.4378 16.649,-4.5969 27.179,-0.7423c10.53,3.8546 73.449,15.2063 83.846,19.0184l0,19.9361c0,1.999 -2.396,4.241 -7.831,7.02l-0.011,-0.006z" fill="#A41E11"/>
    <path id="svg_191" d="m220.162,87.0902c-10.674,5.5671 -65.958,28.2968 -77.728,34.4318c-11.771,6.134 -18.308,6.076 -27.608,1.633c-9.3,-4.443 -68.1314,-28.2072 -78.7355,-33.2759c-10.6041,-5.0688 -10.8162,-8.5522 -0.4083,-12.6295l81.2908,-31.4676c12.365,-4.4378 16.649,-4.5969 27.178,-0.7423c10.53,3.8546 65.481,25.7308 75.883,29.5324c10.403,3.8015 10.801,6.9456 0.128,12.5128l0,0.0053z" fill="#D82C20"/>
    <path id="svg_192" d="m132.996,78.7554l-6.267,-10.4185l-20.01,-1.8027l14.931,-5.3869l-4.481,-8.2712l13.977,5.4611l13.18,-4.3159l-3.563,8.5469l13.436,5.037l-17.327,1.8027l-3.876,9.3475zm-33.3817,20.7416l46.3397,-7.1154l-13.997,20.5294l-32.3427,-13.414z" fill="#fff"/>
    <path id="svg_193" d="m87.1226,92.0158c13.6804,0 24.7714,-4.299 24.7714,-9.602c0,-5.3031 -11.091,-9.602 -24.7714,-9.602c-13.6807,0 -24.7711,4.2989 -24.7711,9.602c0,5.303 11.0904,9.602 24.7711,9.602z" fill="#fff"/>
    <path id="svg_194" d="m202.113,81.0141l-27.411,10.8267l-0.021,-21.6694l27.432,10.8427z" fill="#7A0C00"/>
    <path id="svg_195" d="m174.707,91.8408l-2.969,1.1664l-27.39,-10.8267l30.343,-12.0039l0.016,21.6642z" fill="#AD2115"/>
   </g>
   <defs>
    <clipPath id="svg_33">
     <rect id="svg_196" x="28" y="28" fill="#fff" height="200" width="200"/>
    </clipPath>
   </defs>
  </svg>
  <svg id="svg_197" y="300" x="1800" fill="none" viewBox="0 0 256 256" height="256" width="256" xmlns="http://www.w3.org/2000/svg">
   <rect id="svg_198" fill="#242938" rx="60" height="256" width="256"/>
   <path id="svg_199" fill="white" d="m81.3201,62.2842c0,10.6467 -8.3571,19.2842 -18.6567,19.2842c-10.3063,0 -18.6634,-8.6375 -18.6634,-19.2842c0,-10.6534 8.3571,-19.2842 18.6634,-19.2842c10.2996,0 18.6567,8.6308 18.6567,19.2842z"/>
   <path id="svg_200" fill="white" d="m81.3201,127.999c0,10.647 -8.3571,19.284 -18.6567,19.284c-10.3063,0 -18.6634,-8.637 -18.6634,-19.284c0,-10.653 8.3571,-19.284 18.6634,-19.284c10.2996,0 18.6567,8.631 18.6567,19.284z"/>
   <path id="svg_201" fill="white" d="m81.3201,193.715c0,10.647 -8.3571,19.285 -18.6567,19.285c-10.3063,0 -18.6634,-8.638 -18.6634,-19.285c0,-10.646 8.3571,-19.284 18.6634,-19.284c10.2996,0 18.6567,8.638 18.6567,19.284z"/>
   <path id="svg_202" fill="white" d="m146.435,127.999c0,10.647 -8.35,19.284 -18.656,19.284c-10.307,0 -18.664,-8.637 -18.664,-19.284c0,-10.653 8.357,-19.284 18.664,-19.284c10.306,0 18.656,8.631 18.656,19.284z"/>
   <path id="svg_203" fill="white" d="m146.435,62.2842c0,10.6467 -8.35,19.2842 -18.656,19.2842c-10.307,0 -18.664,-8.6375 -18.664,-19.2842c0,-10.6534 8.357,-19.2842 18.664,-19.2842c10.306,0 18.656,8.6308 18.656,19.2842"/>
   <path id="svg_204" fill="white" d="m211.558,127.999c0,10.647 -8.357,19.284 -18.664,19.284c-10.306,0 -18.656,-8.637 -18.656,-19.284c0,-10.653 8.35,-19.284 18.656,-19.284c10.307,0 18.664,8.631 18.664,19.284z"/>
   <path id="svg_205" fill="white" d="m211.558,62.2842c0,10.6467 -8.357,19.2842 -18.664,19.2842c-10.306,0 -18.656,-8.6375 -18.656,-19.2842c0,-10.6534 8.35,-19.2842 18.656,-19.2842c10.307,0 18.664,8.6308 18.664,19.2842"/>
   <path id="svg_206" fill="white" d="m211.558,193.715c0,10.647 -8.357,19.285 -18.664,19.285c-10.306,0 -18.656,-8.638 -18.656,-19.285c0,-10.646 8.35,-19.284 18.656,-19.284c10.307,0 18.664,8.638 18.664,19.284z"/>
   <path id="svg_207" fill="white" d="m146.436,193.715c0,10.647 -8.351,19.285 -18.657,19.285c-10.306,0 -18.664,-8.638 -18.664,-19.285c0,-10.646 8.358,-19.284 18.664,-19.284c10.306,0 18.657,8.638 18.657,19.284z"/>
  </svg>
  <svg id="svg_208" y="300" x="2100" viewBox="0 0 256 256" fill="none" height="256" width="256" xmlns="http://www.w3.org/2000/svg">
   <rect id="svg_209" rx="60" fill="#E43717" height="256" width="256"/>
   <path id="svg_210" d="m226.574,125.551l-8.39,-5.198c-0.071,-0.818 -0.151,-1.634 -0.239,-2.446l7.224,-6.727c0.734,-0.684 1.063,-1.697 0.864,-2.676c-0.193,-0.984 -0.883,-1.794 -1.821,-2.14l-9.232,-3.44c-0.231,-0.799 -0.474,-1.592 -0.722,-2.389l5.753,-7.9882c0.587,-0.8123 0.707,-1.8691 0.325,-2.7902c-0.383,-0.9231 -1.218,-1.5843 -2.198,-1.7468l-9.729,-1.5823c-0.378,-0.7377 -0.772,-1.4639 -1.17,-2.1787l4.091,-8.982c0.418,-0.9135 0.332,-1.9685 -0.226,-2.8093c-0.556,-0.8333 -1.498,-1.3206 -2.504,-1.2824l-9.881,0.344c-0.51,-0.6383 -1.03,-1.2708 -1.56,-1.8919l2.275,-9.6128c0.229,-0.9765 -0.059,-2.0066 -0.77,-2.7137c-0.706,-0.7071 -1.73,-0.9995 -2.715,-0.7702l-9.613,2.2742c-0.623,-0.5275 -1.256,-1.0492 -1.896,-1.5594l0.346,-9.8803c0.038,-0.9995 -0.45,-1.9493 -1.283,-2.5035c-0.835,-0.5581 -1.892,-0.6422 -2.81,-0.2275l-8.964,4.0898c-0.724,-0.3975 -1.45,-0.7912 -2.178,-1.1715l-1.587,-9.7274c-0.16,-0.9862 -0.822,-1.8232 -1.747,-2.1978c-0.923,-0.3841 -1.987,-0.2599 -2.79,0.3249l-7.989,5.7524c-0.788,-0.2504 -1.579,-0.4912 -2.37,-0.7205l-3.441,-9.2305c-0.35,-0.9403 -1.16,-1.6302 -2.14,-1.8251c-0.983,-0.193 -1.988,0.1338 -2.676,0.8638l-6.728,7.2239c-0.812,-0.0898 -1.63,-0.172 -2.446,-0.2389l-5.199,-8.4088c-0.526,-0.8504 -1.457,-1.3683 -2.466,-1.3683c-1.009,0 -1.93,0.5179 -2.446,1.3683l-5.199,8.4088c-0.818,0.0669 -1.636,0.1491 -2.446,0.2389l-6.728,-7.2239c-0.682,-0.73 -1.695,-1.0568 -2.676,-0.8638c-0.984,0.1968 -1.795,0.8848 -2.141,1.8251l-3.44,9.2305c-0.799,0.2293 -1.59,0.472 -2.37,0.7205l-7.9892,-5.7524c-0.8123,-0.5867 -1.8711,-0.7109 -2.7905,-0.3249c-0.9231,0.3822 -1.5863,1.2193 -1.7469,2.1978l-1.5864,9.7274c-0.7339,0.3803 -1.4602,0.772 -2.1788,1.1715l-8.964,-4.0898c-0.9117,-0.4166 -1.9686,-0.3306 -2.8096,0.2275c-0.8333,0.5542 -1.3207,1.504 -1.2825,2.5035l0.344,9.8803c-0.6383,0.5102 -1.271,1.0319 -1.896,1.5594l-9.6138,-2.2742c-0.9767,-0.2274 -2.0069,0.0631 -2.714,0.7702c-0.711,0.709 -0.9996,1.7314 -0.7703,2.7137l2.2553,9.6128c-0.5256,0.623 -1.0454,1.2536 -1.5558,1.8919l-9.8814,-0.344c-0.9957,-0.0286 -1.9495,0.4491 -2.5038,1.2824c-0.5581,0.8294 -0.6421,1.8919 -0.2274,2.8093l4.0902,8.982c-0.3976,0.7205 -0.7913,1.4467 -1.1716,2.1787l-9.7285,1.5823c-0.9882,0.1606 -1.8215,0.8218 -2.198,1.7468c-0.3823,0.9269 -0.2581,1.9875 0.3249,2.7902l5.753,7.9882c-0.2504,0.789 -0.4931,1.582 -0.7225,2.389l-9.2315,3.44c-0.9366,0.35 -1.6266,1.16 -1.8215,2.14c-0.195,0.983 0.1319,1.988 0.8639,2.676l7.2247,6.727c-0.0898,0.812 -0.1701,1.63 -0.2389,2.446l-8.3906,5.198c-0.8505,0.526 -1.3685,1.454 -1.3685,2.465c0,1.011 0.518,1.931 1.3685,2.447l8.3906,5.198c0.0688,0.818 0.1491,1.634 0.2389,2.446l-7.2247,6.727c-0.732,0.682 -1.0589,1.695 -0.8639,2.675c0.1949,0.985 0.8849,1.793 1.8215,2.141l9.2315,3.44c0.2294,0.799 0.4721,1.592 0.7225,2.389l-5.753,7.988c-0.5849,0.814 -0.7091,1.871 -0.3249,2.79c0.3841,0.927 1.2194,1.588 2.2171,1.747l9.7285,1.582c0.3803,0.738 0.7702,1.464 1.1716,2.179l-4.0902,8.963c-0.4166,0.911 -0.3306,1.968 0.2275,2.809c0.5581,0.835 1.508,1.323 2.5038,1.282l9.8622,-0.345c0.5142,0.642 1.0322,1.27 1.5597,1.895l-2.2554,9.613c-0.2293,0.975 0.0593,1.988 0.7703,2.695c0.7053,0.713 1.7316,0.997 2.714,0.768l9.6139,-2.255c0.6249,0.531 1.2576,1.047 1.896,1.556l-0.3441,9.88c-0.0382,0.999 0.4492,1.949 1.2825,2.503c0.8295,0.556 1.8922,0.641 2.8096,0.224l8.964,-4.09c0.7225,0.402 1.4488,0.791 2.1789,1.172l1.5863,9.727c0.1606,0.99 0.8219,1.827 1.747,2.217c0.9231,0.384 1.9877,0.26 2.7905,-0.323l7.9893,-5.752c0.789,0.25 1.582,0.495 2.389,0.724l3.44,9.23c0.35,0.937 1.16,1.631 2.141,1.822c0.982,0.198 1.988,-0.13 2.676,-0.864l6.728,-7.224c0.812,0.094 1.63,0.172 2.446,0.245l5.199,8.389c0.523,0.847 1.454,1.369 2.446,1.369c0.992,0 1.931,-0.52 2.466,-1.369l5.199,-8.389c0.818,-0.073 1.634,-0.151 2.446,-0.245l6.728,7.224c0.682,0.734 1.695,1.062 2.676,0.864c0.984,-0.193 1.794,-0.885 2.14,-1.822l3.441,-9.23c0.798,-0.229 1.592,-0.474 2.389,-0.724l7.989,5.752c0.812,0.583 1.871,0.707 2.79,0.323c0.925,-0.38 1.587,-1.219 1.747,-2.217l1.587,-9.727c0.734,-0.381 1.46,-0.776 2.179,-1.172l8.964,4.09c0.911,0.417 1.968,0.332 2.809,-0.224c0.833,-0.558 1.319,-1.504 1.283,-2.503l-0.344,-9.88c0.638,-0.511 1.271,-1.025 1.894,-1.556l9.613,2.255c0.977,0.229 2.007,-0.055 2.715,-0.768c0.711,-0.709 0.999,-1.728 0.77,-2.695l-2.256,-9.613c0.528,-0.625 1.048,-1.253 1.556,-1.895l9.882,0.345c0.995,0.041 1.949,-0.447 2.503,-1.282c0.559,-0.833 0.645,-1.894 0.226,-2.809l-4.09,-8.963c0.399,-0.724 0.791,-1.451 1.17,-2.179l9.728,-1.582c0.99,-0.159 1.823,-0.82 2.198,-1.747c0.382,-0.923 0.262,-1.987 -0.325,-2.79l-5.753,-7.988c0.249,-0.79 0.491,-1.583 0.723,-2.389l9.231,-3.44c0.939,-0.352 1.63,-1.16 1.822,-2.141c0.198,-0.982 -0.13,-1.987 -0.864,-2.675l-7.225,-6.727c0.088,-0.812 0.168,-1.63 0.239,-2.446l8.391,-5.198c0.85,-0.524 1.368,-1.455 1.368,-2.447c0,-0.991 -0.516,-1.93 -1.367,-2.465l-0.059,0zm-56.192,69.755c-3.211,-0.692 -5.237,-3.861 -4.549,-7.071c0.686,-3.211 3.842,-5.256 7.053,-4.568c3.211,0.686 5.256,3.86 4.568,7.071c-0.688,3.211 -3.842,5.256 -7.053,4.568l-0.019,0zm-2.848,-19.302c-2.924,-0.627 -5.81,1.234 -6.422,4.166l-2.981,13.912c-9.194,4.167 -19.496,6.498 -30.199,6.498c-11.009,0 -21.406,-2.427 -30.7717,-6.784l-2.9817,-13.913c-0.6269,-2.924 -3.4976,-4.797 -6.4219,-4.166l-12.2897,2.637c-2.2744,-2.35 -4.3959,-4.854 -6.3455,-7.491l59.8235,0c0.677,0 1.128,-0.122 1.128,-0.738l0,-21.213c0,-0.615 -0.451,-0.737 -1.128,-0.737l-17.488,0l0,-13.397l18.902,0c1.726,0 9.232,0.493 11.621,10.09c0.751,2.943 2.408,12.537 3.536,15.614c1.124,3.44 5.696,10.32 10.57,10.32l29.816,0c0.338,0 0.699,-0.039 1.08,-0.107c-2.065,2.809 -4.339,5.465 -6.766,7.95l-12.577,-2.695l-0.105,0.054zm-82.7589,19.015c-3.211,0.692 -6.3647,-1.353 -7.0527,-4.568c-0.6862,-3.21 1.3532,-6.383 4.568,-7.071c3.211,-0.686 6.3646,1.359 7.0527,4.568c0.6861,3.211 -1.3551,6.383 -4.568,7.071zm-22.7445,-91.923c1.3303,3 -0.0229,6.517 -3.0198,7.854c-3.0007,1.332 -6.4984,-0.022 -7.8363,-3.019c-1.3379,-2.997 0.0229,-6.517 3.0198,-7.855c3.0008,-1.3297 6.4984,0.023 7.8363,3.02zm-6.9762,16.512l12.8057,-5.695c2.7331,-1.214 3.9755,-4.415 2.7523,-7.148l-2.6376,-5.962l10.3592,0l0,46.63l-20.8331,0c-1.8139,-6.383 -2.7905,-13.11 -2.7905,-20.066c0,-2.657 0.1433,-5.275 0.4185,-7.855l-0.0745,0.096zm56.1926,-4.53l0,-13.759l24.655,0c1.275,0 9.002,1.473 9.002,7.243c0,4.796 -5.925,6.516 -10.798,6.516l-22.936,0l0.077,0zm89.639,12.384c0,1.827 -0.067,3.631 -0.2,5.428l-7.512,0c-0.751,0 -1.053,0.493 -1.053,1.228l0,3.44c0,8.103 -4.568,9.881 -8.582,10.32c-3.822,0.43 -8.046,-1.597 -8.562,-3.937c-2.256,-12.67 -6.002,-15.365 -11.927,-20.066c7.359,-4.663 15.004,-11.562 15.004,-20.831c0,-9.9564 -6.823,-16.2248 -11.468,-19.3016c-6.536,-4.2999 -13.761,-5.1599 -15.711,-5.1599l-77.5983,0c10.5312,-11.734 24.8469,-20.0664 40.9013,-23.1241l9.156,9.5936c2.064,2.1596 5.485,2.2551 7.664,0.1759l10.244,-9.7848c21.407,3.9942 39.564,17.3335 50.076,35.7372l-7.014,15.8237c-1.21,2.733 0.025,5.944 2.752,7.148l13.494,6c0.233,2.389 0.355,4.816 0.355,7.262l-0.019,0.048zm-77.598,-80.0741c2.37,-2.2742 6.135,-2.1786 8.39,0.193c2.256,2.3698 2.179,6.1346 -0.197,8.4088c-2.37,2.2742 -6.135,2.1786 -8.39,-0.1949c-2.255,-2.3698 -2.179,-6.1346 0.197,-8.4088l0,0.0019zm69.571,55.9951c1.328,-3.001 4.835,-4.3577 7.836,-3.02c3.001,1.33 4.358,4.854 3.02,7.855c-1.328,3 -4.836,4.357 -7.836,3.019c-3.001,-1.33 -4.358,-4.854 -3.02,-7.854z" fill="#fff"/>
  </svg>
  <svg id="svg_211" y="300" x="2400" fill="none" viewBox="0 0 256 256" height="256" width="256" xmlns="http://www.w3.org/2000/svg">
   <g id="svg_212" clip-path="url(#svg_37)">
    <path id="svg_213" fill="#D9D9D9" d="m60,0c-33.1371,0 -60,26.8629 -60,60l0,136c0,33.137 26.8629,60 60,60l108.46,0c-1.779,-5.243 -3.172,-13.546 -3.956,-23.023c-0.675,-8.152 -0.899,-17.171 -0.525,-25.87c-0.101,-1.286 -0.162,-2.122 -0.162,-2.122c0,0 -1.874,-12.61 -4.571,-22.969c-1.194,-4.598 -2.553,-8.756 -3.98,-11.166c-0.735,-1.243 0.08,-6.351 2.131,-13.916c1.2,2.071 6.263,10.932 7.28,13.788c1.145,3.228 1.385,4.153 1.385,4.153c0,0 -2.777,-14.272 -7.333,-22.6c0.999,-3.367 2.192,-7.088 3.542,-11.066c1.578,2.767 5.165,9.121 6.461,12.132c0.12,0.279 0.228,0.541 0.307,0.757c0.184,0.522 0.339,0.965 0.478,1.371c0.731,2.118 0.909,2.792 0.909,2.792c0,0 -0.271,-1.386 -0.775,-3.524c-0.213,-0.903 -0.478,-1.965 -0.773,-3.096c-1.148,-4.409 -2.892,-10.181 -5.125,-14.704c5.732,-29.794 24.181,-68.8065 44.057,-89.8681c1.713,-1.8135 3.434,-3.5112 5.158,-5.0414c11.619,-10.3001 23.392,-13.7792 33.115,-5.118c7.034,6.2678 9.912,14.9251 9.917,24.8909l0,-1.8004c0,-33.1371 -26.863,-60 -60,-60l-136,0z"/>
    <path id="svg_214" fill="url(#svg_38)" d="m60,0c-33.1371,0 -60,26.8629 -60,60l0,136c0,33.137 26.8629,60 60,60l108.46,0c-1.779,-5.243 -3.172,-13.546 -3.956,-23.023c-0.675,-8.152 -0.899,-17.171 -0.525,-25.87c-0.101,-1.286 -0.162,-2.122 -0.162,-2.122c0,0 -1.874,-12.61 -4.571,-22.969c-1.194,-4.598 -2.553,-8.756 -3.98,-11.166c-0.735,-1.243 0.08,-6.351 2.131,-13.916c1.2,2.071 6.263,10.932 7.28,13.788c1.145,3.228 1.385,4.153 1.385,4.153c0,0 -2.777,-14.272 -7.333,-22.6c0.999,-3.367 2.192,-7.088 3.542,-11.066c1.578,2.767 5.165,9.121 6.461,12.132c0.12,0.279 0.228,0.541 0.307,0.757c0.184,0.522 0.339,0.965 0.478,1.371c0.731,2.118 0.909,2.792 0.909,2.792c0,0 -0.271,-1.386 -0.775,-3.524c-0.213,-0.903 -0.478,-1.965 -0.773,-3.096c-1.148,-4.409 -2.892,-10.181 -5.125,-14.704c5.732,-29.794 24.181,-68.8065 44.057,-89.8681c1.713,-1.8135 3.434,-3.5112 5.158,-5.0414c11.619,-10.3001 23.392,-13.7792 33.115,-5.118c7.034,6.2678 9.912,14.9251 9.917,24.8909l0,-1.8004c0,-33.1371 -26.863,-60 -60,-60l-136,0z"/>
    <path id="svg_215" fill="#003B57" d="m246.083,36.9095c-9.723,-8.6612 -21.496,-5.1821 -33.115,5.118c-1.724,1.5302 -3.445,3.2279 -5.158,5.0414c-19.876,21.0616 -38.325,60.0741 -44.057,89.8681c2.233,4.523 3.977,10.295 5.125,14.704c0.295,1.131 0.56,2.193 0.773,3.096c0.504,2.138 0.775,3.524 0.775,3.524c0,0 -0.178,-0.674 -0.909,-2.792c-0.139,-0.406 -0.294,-0.849 -0.478,-1.371c-0.079,-0.216 -0.187,-0.478 -0.307,-0.757c-1.296,-3.011 -4.883,-9.365 -6.461,-12.132c-1.35,3.978 -2.543,7.699 -3.542,11.066c4.556,8.328 7.333,22.6 7.333,22.6c0,0 -0.24,-0.925 -1.385,-4.153c-1.017,-2.856 -6.08,-11.717 -7.28,-13.788c-2.051,7.565 -2.866,12.673 -2.131,13.916c1.427,2.41 2.786,6.568 3.98,11.166c2.697,10.359 4.571,22.969 4.571,22.969c0,0 0.061,0.836 0.162,2.122c-0.374,8.699 -0.15,17.718 0.525,25.87c0.893,10.791 2.575,20.062 4.719,25.023l1.455,-0.793c-3.148,-9.774 -4.427,-22.584 -3.867,-37.358c0.847,-22.581 6.05,-49.813 15.662,-78.196c16.24,-42.8467 38.772,-77.2243 59.394,-93.6417c-18.796,16.9554 -44.235,71.8387 -51.85,92.1627c-8.526,22.759 -14.569,44.117 -18.21,64.579c6.283,-19.183 26.598,-27.429 26.598,-27.429c0,0 9.964,-12.274 21.608,-29.81c-6.975,1.589 -18.428,4.309 -22.265,5.919c-5.658,2.371 -7.183,3.18 -7.183,3.18c0,0 18.33,-11.15 34.056,-16.198c21.628,-34.025 45.19,-82.3619 21.462,-103.5055"/>
    <path id="svg_216" fill="#003B57" d="m28.5202,49c-3.0631,0 -5.5539,0.8947 -7.4634,2.6832c-1.9095,1.7901 -2.8782,4.1365 -2.8782,7.0115c0,1.49 0.2406,2.8485 0.7146,4.0933c0.474,1.2474 1.2116,2.4029 2.2033,3.447c0.9917,1.0451 2.9767,2.4647 5.935,4.2696c3.6301,2.1866 6.0057,3.9612 7.1458,5.3468c1.141,1.3844 1.7071,2.8353 1.7071,4.3479c0,2.0253 -0.6757,3.6419 -2.0643,4.8572c-1.3911,1.2157 -3.2514,1.8214 -5.5579,1.8214c-2.4328,0 -4.5519,-0.8462 -6.3717,-2.5265c-1.8198,-1.6828 -2.7384,-3.9085 -2.7591,-6.6982l-1.1314,0l0,10.1256l1.1314,0c0.3454,-0.9588 0.8234,-1.4493 1.449,-1.4493c0.301,0 1.006,0.2048 2.1041,0.5875c2.6717,0.938 4.8655,1.3906 6.59,1.3906c2.9719,0 5.5087,-1.027 7.6222,-3.1141c2.1104,-2.0861 3.176,-4.6025 3.176,-7.5403c0,-2.278 -0.7035,-4.3047 -2.0842,-6.0714c-1.3808,-1.7688 -4.066,-3.8262 -8.0788,-6.1889c-3.453,-2.047 -5.6944,-3.7142 -6.729,-5.0139c-1.0361,-1.2978 -1.5681,-2.7334 -1.5681,-4.3087c0,-1.7039 0.6344,-3.0726 1.8857,-4.0933c1.2513,-1.0216 2.8909,-1.5277 4.9425,-1.5277c2.3089,0 4.2335,0.6761 5.7564,2.0369c1.5213,1.3631 2.401,3.2521 2.6598,5.6797l1.1315,0l0,-8.7742l-1.0521,0c-0.1286,0.4473 -0.2477,0.7333 -0.3573,0.8618c-0.1064,0.1277 -0.3112,0.1958 -0.6153,0.1958c-0.366,0 -1.0187,-0.152 -1.9452,-0.4505c-1.985,-0.6596 -3.8151,-0.9988 -5.4984,-0.9988zm36.9797,0c-3.7325,0 -7.1212,0.868 -10.1828,2.6048c-3.0664,1.7337 -5.4936,4.1411 -7.2848,7.2074c-1.7904,3.066 -2.6797,6.3224 -2.6797,9.7926c0,4.6623 1.5467,8.8158 4.6647,12.4563c3.1195,3.6382 6.8576,5.9052 11.1951,6.7765c0.9917,0.5098 2.4105,1.8259 4.2676,3.9562c2.093,2.404 3.8635,4.138 5.3197,5.1705c1.4546,1.0331 3.0251,1.7902 4.6845,2.2915c1.661,0.4991 3.457,0.7442 5.399,0.7442c2.3518,0 4.4574,-0.4033 6.3122,-1.2339l-0.4169,-1.0184c-1.0766,0.3832 -2.2247,0.568 -3.4339,0.568c-1.6412,0 -3.2998,-0.534 -4.9624,-1.606c-1.6602,-1.0747 -3.7365,-3.1251 -6.2129,-6.1498c-1.164,-1.4493 -1.9675,-2.3637 -2.4216,-2.7223c4.7456,-0.9144 8.648,-3.1838 11.6913,-6.8157c3.0426,-3.6303 4.5654,-7.7735 4.5654,-12.4171c0,-5.5135 -1.9881,-10.1472 -5.935,-13.9251c-3.95,-3.7782 -8.8076,-5.6797 -14.5695,-5.6797zm23.0849,0l0.0596,1.1947c2.4851,0 3.877,0.7223 4.1882,2.174c0.1159,0.5194 0.1691,1.4784 0.1787,2.8594l-0.0199,26.4205c-0.0206,1.9733 -0.3056,3.2332 -0.8535,3.78c-0.5486,0.5429 -1.476,0.8829 -2.8186,1.0184l-0.0595,1.1947l24.7722,0l0.635,-5.9931l-1.131,0c-0.323,1.6326 -1.064,2.8022 -2.243,3.4666c-1.183,0.6693 -3.273,0.9989 -6.293,0.9989l-2.342,0c-2.7168,0 -4.2889,-0.9692 -4.7041,-2.9182c-0.0858,-0.3856 -0.1152,-0.7991 -0.1191,-1.2535l0.0992,-26.7143c-0.0006,-1.9701 0.2517,-3.2903 0.7741,-3.9366c0.528,-0.644 1.4799,-1.0044 2.8579,-1.0968l-0.059,-1.1947l-12.9221,0l-0.0001,0zm-22.6879,1.4493c4.2096,0 7.6468,1.6359 10.3019,4.9355c2.6542,3.3007 3.9699,7.8246 3.9699,13.553c0,5.4282 -1.3347,9.7745 -4.0096,13.0438c-2.675,3.2682 -6.2352,4.8963 -10.6592,4.8963c-4.2502,0 -7.6969,-1.6789 -10.3416,-5.053c-2.6424,-3.3742 -3.9501,-7.7548 -3.9501,-13.1417c0,-5.5356 1.3236,-9.9668 3.9898,-13.2788c2.6646,-3.3085 6.2327,-4.9551 10.6989,-4.9551zm56.9681,5.6797c-0.604,0 -1.065,0.2014 -1.409,0.6072c-0.353,0.4042 -0.461,0.8938 -0.338,1.4885c0.119,0.5768 0.449,1.0823 0.973,1.508c0.521,0.4253 1.083,0.6463 1.687,0.6463c0.584,0 1.03,-0.221 1.35,-0.6463c0.32,-0.4257 0.417,-0.9312 0.298,-1.508c-0.124,-0.5947 -0.442,-1.0843 -0.933,-1.4885c-0.497,-0.4058 -1.044,-0.6072 -1.628,-0.6072zm16.336,4.0542c-1.027,3.8968 -3.252,6.0056 -6.669,6.3456l0.039,1.1164l3.99,0l-0.079,13.2004c0.006,2.2569 0.076,3.7594 0.238,4.5242c0.393,1.8309 1.605,2.7615 3.632,2.7615c2.934,0 6.012,-1.7633 9.23,-5.288l-0.972,-0.8226c-2.324,2.3212 -4.379,3.4862 -6.173,3.4862c-1.103,0 -1.787,-0.6258 -2.045,-1.8606c-0.071,-0.2999 -0.099,-0.6503 -0.099,-1.0576l0.04,-14.9435l6.093,0l-0.059,-1.7823l-6.015,0l0,-5.6797l-1.151,0l0,0zm23.561,4.9746c-3.408,0 -6.181,1.6327 -8.336,4.8768c-2.145,3.2496 -2.809,6.8499 -1.965,10.811c0.496,2.3202 1.484,4.1185 2.997,5.386c1.51,1.2669 3.426,1.8997 5.716,1.8997c2.133,0 5.103,-0.5328 6.352,-1.606c1.253,-1.0725 2.408,-2.8101 3.474,-5.19l-0.854,-0.8814c-1.7,3.0874 -5.133,4.6417 -7.721,4.6417c-3.559,0 -5.738,-1.9264 -6.55,-5.758c-0.106,-0.4891 -0.185,-1.0146 -0.239,-1.5669c4.234,-0.6613 7.442,-1.8324 9.608,-3.5253c2.163,-1.6938 4.336,-3.4892 3.93,-5.386c-0.242,-1.127 -0.835,-2.0132 -1.747,-2.6831c-0.924,-0.6696 -3.324,-1.0185 -4.665,-1.0185zm-37.257,0.1371l-7.344,1.6648l0,1.2926l2.54,-0.3134c1.231,0 1.955,0.5499 2.184,1.6452c0.077,0.3666 0.125,0.8813 0.139,1.5277l-0.08,11.849c-0.02,1.6397 -0.205,2.5929 -0.575,2.8791c-0.374,0.2867 -1.36,0.4308 -2.958,0.4308l-0.04,1.1164l11.652,0l-0.02,-1.1164c-1.619,0 -2.668,-0.126 -3.136,-0.3721c-0.46,-0.2445 -0.776,-0.6895 -0.913,-1.371c-0.106,-0.4911 -0.152,-1.3373 -0.159,-2.5069l0.04,-16.7258l-1.33,0l0,0zm35.392,2.1936c0.709,0 1.394,0.2702 2.084,0.803c0.68,0.5309 1.095,1.1213 1.23,1.7626c0.665,3.1502 -2.166,5.3281 -8.535,6.5415c-0.182,-2.297 0.222,-4.3822 1.251,-6.2673c1.021,-1.8832 2.351,-2.8398 3.97,-2.8398z"/>
   </g>
   <defs>
    <clipPath id="svg_37">
     <rect id="svg_217" fill="white" rx="60" height="256" width="256"/>
    </clipPath>
   </defs>
  </svg>
  <svg id="svg_233" y="300" x="3000" viewBox="0 0 256 256" fill="none" height="256" width="256" xmlns="http://www.w3.org/2000/svg">
   <rect id="svg_234" rx="60" fill="#242938" height="256" width="256"/>
   <path id="svg_235" clip-rule="evenodd" d="m83,110c5.9991,-23.9991 21.001,-36 45,-36c36,0 40.5,27 58.5,31.5c12.001,3.001 22.5,-1.499 31.5,-13.5c-5.999,23.999 -21.001,36 -45,36c-36,0 -40.5,-27 -58.5,-31.5c-12.001,-3.0009 -22.5,1.4991 -31.5,13.5zm-45,54c5.9991,-23.999 21.0009,-36 45,-36c36,0 40.5,27 58.5,31.5c12.001,3.001 22.5,-1.499 31.5,-13.5c-5.999,23.999 -21.001,36 -45,36c-36,0 -40.5,-27 -58.5,-31.5c-12.0009,-3.001 -22.5,1.499 -31.5,13.5z" fill-rule="evenodd" fill="url(#svg_41)"/>

  </svg>
  <svg id="svg_236" y="300" x="3300" fill="none" viewBox="0 0 256 256" height="256" width="256" xmlns="http://www.w3.org/2000/svg">
   <rect id="svg_237" fill="white" rx="60" height="256" width="256"/>
   <rect id="svg_238" fill="#1D9BF0" rx="60" height="256" width="256"/>
   <path id="svg_239" fill="white" d="m199.572,91.4114c0.11,1.5869 0.11,3.1737 0.11,4.7752c0,48.7974 -37.148,105.0754 -105.075,105.0754l0,-0.03c-20.0659,0.03 -39.7149,-5.718 -56.607,-16.555c2.9177,0.351 5.8501,0.526 8.7898,0.533c16.6288,0.015 32.7824,-5.565 45.8647,-15.839c-15.8026,-0.3 -29.66,-10.603 -34.5009,-25.645c5.5356,1.068 11.2395,0.848 16.6727,-0.636c-17.2285,-3.481 -29.6234,-18.618 -29.6234,-36.198c0,-0.161 0,-0.314 0,-0.468c5.1335,2.859 10.8812,4.446 16.7605,4.622c-16.2267,-10.845 -21.2285,-32.4316 -11.4296,-49.3092c18.7496,23.0713 46.4132,37.0969 76.1102,38.5812c-2.977,-12.8261 1.089,-26.2667 10.683,-35.2832c14.874,-13.9817 38.267,-13.2651 52.249,1.6015c8.27,-1.6307 16.197,-4.6655 23.451,-8.9653c-2.756,8.5485 -8.526,15.8099 -16.234,20.4242c7.32,-0.8629 14.472,-2.8227 21.207,-5.8136c-4.958,7.4296 -11.203,13.9013 -18.428,19.1298z"/>
  </svg>
  <svg id="svg_240" y="300" x="3600" viewBox="0 0 256 256" fill="none" height="256" width="256" xmlns="http://www.w3.org/2000/svg">
   <rect id="svg_241" rx="60" fill="#007ACC" height="256" width="256"/>
   <path id="svg_242" d="m56.6112,128.849l-0.0813,10.484l16.6603,0l16.6603,0l0,47.34l0,47.339l11.7845,0l11.784,0l0,-47.339l0,-47.34l16.66,0l16.66,0l0,-10.281c0,-5.689 -0.121,-10.443 -0.284,-10.565c-0.122,-0.162 -20.399,-0.244 -44.983,-0.203l-44.7389,0.122l-0.1219,10.443z" fill="#fff"/>
   <path id="svg_243" d="m206.567,118.108c6.501,1.626 11.459,4.511 16.01,9.224c2.357,2.52 5.851,7.112 6.136,8.209c0.081,0.325 -11.053,7.802 -17.798,11.987c-0.244,0.163 -1.22,-0.894 -2.317,-2.519c-3.291,-4.795 -6.745,-6.868 -12.028,-7.233c-7.761,-0.529 -12.759,3.535 -12.718,10.321c0,1.991 0.284,3.169 1.097,4.795c1.706,3.535 4.876,5.648 14.832,9.955c18.326,7.884 26.168,13.085 31.045,20.48c5.445,8.249 6.664,21.415 2.966,31.208c-4.063,10.646 -14.141,17.879 -28.323,20.277c-4.388,0.772 -14.791,0.65 -19.504,-0.203c-10.281,-1.829 -20.033,-6.908 -26.047,-13.572c-2.357,-2.601 -6.949,-9.387 -6.664,-9.875c0.121,-0.162 1.178,-0.812 2.356,-1.503c1.138,-0.65 5.446,-3.129 9.509,-5.486l7.355,-4.267l1.544,2.276c2.154,3.291 6.867,7.802 9.712,9.305c8.167,4.308 19.383,3.698 24.909,-1.259c2.357,-2.154 3.332,-4.389 3.332,-7.68c0,-2.967 -0.366,-4.267 -1.91,-6.502c-1.991,-2.844 -6.054,-5.242 -17.595,-10.24c-13.206,-5.689 -18.895,-9.224 -24.096,-14.832c-3.007,-3.25 -5.852,-8.452 -7.03,-12.8c-0.975,-3.616 -1.219,-12.678 -0.447,-16.335c2.722,-12.759 12.353,-21.658 26.25,-24.3c4.511,-0.853 14.994,-0.528 19.424,0.569z" fill="#fff"/>
  </svg>
  <svg id="svg_244" y="300" x="3900" fill="none" viewBox="0 0 256 256" height="256" width="256" xmlns="http://www.w3.org/2000/svg">
   <rect id="svg_245" fill="#242938" rx="60" height="256" width="256"/>
   <path id="svg_246" fill="white" d="m128,34l95,164.853l-190,0l95,-164.853z"/>
  </svg>
  <svg id="svg_247" y="300" x="4200" fill="none" viewBox="0 0 256 256" height="256" width="256" xmlns="http://www.w3.org/2000/svg">
   <rect id="svg_248" fill="#242938" rx="60" height="256" width="256"/>
   <path id="svg_249" fill="url(#svg_47)" d="m227.088,57.6016l-93.832,167.7874c-1.938,3.465 -6.915,3.485 -8.881,0.038l-95.6927,-167.8093c-2.1423,-3.7567 1.0701,-8.3072 5.3273,-7.5462l93.9324,16.7898c0.599,0.1071 1.213,0.1061 1.812,-0.0031l91.968,-16.7627c4.243,-0.7733 7.47,3.7419 5.366,7.5061z"/>
   <path id="svg_250" fill="url(#svg_46)" d="m172.687,28.0492l-69.438,13.6062c-1.142,0.2236 -1.987,1.1908 -2.055,2.3516l-4.2719,72.141c-0.1005,1.699 1.46,3.018 3.1179,2.635l19.333,-4.461c1.809,-0.417 3.443,1.176 3.072,2.995l-5.744,28.126c-0.387,1.893 1.391,3.511 3.239,2.95l11.941,-3.628c1.851,-0.562 3.63,1.061 3.238,2.956l-9.128,44.179c-0.571,2.764 3.105,4.271 4.638,1.901l1.024,-1.582l56.582,-112.9198c0.948,-1.8907 -0.686,-4.0466 -2.763,-3.6458l-19.899,3.8406c-1.87,0.3605 -3.461,-1.381 -2.934,-3.2106l12.989,-45.0252c0.528,-1.8327 -1.069,-3.5757 -2.941,-3.209z"/>

  </svg>
  <svg id="svg_251" y="300" x="4500" viewBox="0 0 256 256" fill="none" height="256" width="256" xmlns="http://www.w3.org/2000/svg">
   <rect id="svg_252" rx="60" fill="#242938" height="256" width="256"/>
   <path id="svg_253" d="m33.7158,100.208c0,0 -4.7344,-3.413 0.9469,-7.9699l13.2367,-11.8361c0,0 3.7875,-3.9848 7.7921,-0.5129l122.1485,92.4789l0,44.346c0,0 -0.059,6.964 -8.996,6.194l-135.1282,-122.7z" fill="#2489CA"/>
   <path id="svg_254" d="m65.1997,128.792l-31.484,28.623c0,0 -3.2352,2.407 0,6.708l14.6176,13.295c0,0 3.4719,3.729 8.6008,-0.513l33.3778,-25.309l-25.1122,-22.804z" fill="#1070B3"/>
   <path id="svg_255" d="m120.474,129.029l57.741,-44.0899l-0.375,-44.1091c0,0 -2.466,-9.6267 -10.692,-4.6161l-76.836,69.9311l30.162,22.884z" fill="#0877B9"/>
   <path id="svg_256" d="m168.844,222.968c3.354,3.432 7.418,2.308 7.418,2.308l44.997,-22.173c5.76,-3.926 4.951,-8.798 4.951,-8.798l0,-132.4068c0,-5.8194 -5.958,-7.8315 -5.958,-7.8315l-38.999,-18.7997c-8.522,-5.267 -14.105,0.9469 -14.105,0.9469c0,0 7.18,-5.1684 10.692,4.6161l0,175.075c0,1.204 -0.257,2.387 -0.769,3.453c-1.026,2.071 -3.255,4.004 -8.601,3.195l0.374,0.415z" fill="#3C99D4"/>
  </svg>
  <svg id="svg_257" y="300" x="4800" viewBox="0 0 256 256" fill="none" height="256" width="256" xmlns="http://www.w3.org/2000/svg">
   <rect id="svg_258" rx="60" fill="#242938" height="256" width="256"/>
   <path id="svg_259" d="m182,50l36,0l-90,155.25l-90,-155.25l35.55,0l33.3,0l21.15,36l20.7,-36l33.3,0z" fill="#41B883"/>
   <path id="svg_260" d="m38,50l90,155.25l90,-155.25l-36,0l-54,93.15l-54.45,-93.15l-35.55,0z" fill="#41B883"/>
   <path id="svg_261" d="m73.55,50l54.45,93.6l54,-93.6l-33.3,0l-20.7,36l-21.15,-36l-33.3,0z" fill="#fff"/>
  </svg>
  <g id="svg_262">undefined</g>
  <g stroke="null" id="svg_270">
   <path stroke="null" id="svg_267" p-id="3732" fill="#FB759C" d="m2790.606985,347.109815l-22.825434,-23.214859s-3.565522,-4.6046 2.468438,-9.816752c6.064434,-5.180175 6.36918,-2.877875 8.410974,-1.438938c2.041795,1.438938 33.948643,34.470548 33.948643,34.470548l-22.002621,0zm75.820668,0.863363l22.825434,-23.214859s3.565522,-4.6046 -2.468438,-9.816752c-6.03396,-5.180175 -6.36918,-2.877875 -8.410974,-1.438938c-2.041795,1.438938 -33.948643,34.470548 -33.948643,34.470548l22.002621,0z"/>
   <path stroke="null" id="svg_268" p-id="3733" fill="#FB759C" d="m2952.091598,390.949445c-0.822813,-36.357155 -30.931663,-43.264056 -30.931663,-43.264056s-154.262146,-1.311032 -186.443266,0c-32.181119,9.528964 -29.712681,43.264056 -29.712681,43.264056s0.426644,72.266641 -0.030475,108.847631c3.474098,36.58099 30.352647,42.400693 30.352647,42.400693s10.72704,0.223835 18.558998,0.223835c0.822813,2.366253 1.432304,13.845777 13.622122,13.845777c12.159343,0 13.622122,-13.845777 13.622122,-13.845777s89.107569,-0.447669 96.512884,-0.447669c0.426644,3.90112 2.255116,14.485305 14.444934,14.293446c12.159343,-0.223835 12.982156,-15.156809 12.982156,-15.156809s4.114064,-0.447669 16.486729,0c28.859394,-5.627845 30.535494,-41.121637 30.535494,-41.121637s-0.396169,-72.682334 0,-109.03949zm-24.836754,115.722555c0,5.723774 -4.327385,10.392327 -9.660431,10.392327l-175.624802,0c-5.333045,0 -9.660431,-4.636577 -9.660431,-10.392327l0,-122.05388c0,-5.723774 4.327385,-10.392327 9.660431,-10.392327l175.624802,0c5.333045,0 9.660431,4.636577 9.660431,10.392327l0,122.05388z"/>
   <path stroke="null" id="svg_269" p-id="3734" fill="#FB759C" d="m2750.807229,419.088668l51.56293,-10.392327l3.900742,20.336984l-51.136286,10.392327l-4.327385,-20.336984zm164.775864,20.336984l-51.56293,-10.392327l-3.931216,20.336984l51.166761,10.392327l4.327385,-20.336984zm-104.984807,9.752799s11.336531,21.424181 23.922518,-6.938877c12.159343,27.691554 25.568143,7.35457 25.568143,7.35457l7.618636,5.212152s-14.231612,24.014269 -33.003932,5.851679c-15.877238,18.162589 -32.577289,-5.787727 -32.577289,-5.787727l8.471923,-5.691797z"/>
  </g>
 </g>
</svg>