<svg width="5356" height="556" xmlns="http://www.w3.org/2000/svg" version="1.1" fill="none">
 <g>
  <title>background</title>
  <rect fill="none" id="canvas_background" height="684" width="1441" y="-1" x="-1"/>
 </g>
 <g>
  <title>Layer 1</title>
  <g id="svg_1" transform="matrix(1,0,0,1,0,0) ">
   <svg id="svg_51" y="0" x="0" viewBox="0 0 256 256" fill="none" height="256" width="256" xmlns="http://www.w3.org/2000/svg">
    <rect id="svg_52" rx="60" fill="#242938" height="256" width="256"/>
    <path id="svg_53" clip-rule="evenodd" d="m203.819,68.8354l-63.14,-37.4802c-7.536,-4.4736 -16.825,-4.4736 -24.361,0l-63.1406,37.4802c-7.534,4.4737 -12.1774,12.7396 -12.1774,21.6869l0,74.9607c0,8.945 4.6434,17.215 12.1796,21.689l63.1404,37.473c3.768,2.238 7.97,3.354 12.179,3.354c4.207,0 8.41,-1.116 12.178,-3.354l63.14,-37.473c7.536,-4.474 12.182,-12.744 12.182,-21.689l0,-74.9607c0,-8.9473 -4.646,-17.2132 -12.18,-21.6869z" fill-rule="evenodd" fill="#242938"/>
    <path id="svg_54" clip-rule="evenodd" d="m118.527,220.808l-63.1404,-37.474c-6.1758,-3.666 -10.0122,-10.506 -10.0122,-17.852l0,-74.9586c0,-7.3466 3.8365,-14.186 10.01,-17.8504l63.1426,-37.4802c3.027,-1.797 6.475,-2.7473 9.972,-2.7473c3.495,0 6.943,0.9503 9.973,2.7473l63.14,37.4802c5.204,3.0889 8.714,8.4379 9.701,14.4373c-2.094,-4.4692 -6.817,-5.6841 -12.32,-2.4694l-59.734,36.8961c-7.448,4.354 -12.94,9.24 -12.945,18.221l0,73.604c-0.004,5.378 2.168,8.861 5.504,9.871c-1.096,0.19 -2.201,0.322 -3.319,0.322c-3.497,0 -6.945,-0.95 -9.972,-2.747zm85.292,-151.9737l-63.14,-37.478c-3.768,-2.2379 -7.975,-3.3558 -12.18,-3.3558c-4.206,0 -8.413,1.1179 -12.181,3.3558l-63.1406,37.478c-7.534,4.4737 -12.1774,12.7418 -12.1774,21.6891l0,74.9586c0,8.945 4.6434,17.215 12.1796,21.689l63.1404,37.475c3.77,2.236 7.973,3.354 12.179,3.354c4.207,0 8.41,-1.118 12.178,-3.354l63.142,-37.475c7.536,-4.474 12.18,-12.744 12.18,-21.689l0,-74.9586c0,-8.9473 -4.644,-17.2154 -12.18,-21.6891z" fill-rule="evenodd" fill="#fff"/>
    <path id="svg_55" clip-rule="evenodd" d="m187.267,172.729l-15.722,9.41c-0.417,0.243 -0.723,0.516 -0.726,1.017l0,4.114c0,0.503 0.338,0.712 0.754,0.467l15.966,-9.703c0.416,-0.243 0.48,-0.708 0.483,-1.209l0,-3.629c0,-0.5 -0.338,-0.71 -0.755,-0.467z" fill-rule="evenodd" fill="#47B353"/>
    <path id="svg_56" clip-rule="evenodd" d="m153.788,138.098c0.509,-0.258 0.928,0.059 0.935,0.725l0.053,5.439c2.277,-0.906 4.255,-1.148 6.047,-0.734c0.389,0.104 0.561,0.633 0.402,1.261l-1.197,4.82c-0.093,0.364 -0.298,0.732 -0.545,0.961c-0.104,0.102 -0.21,0.181 -0.315,0.234c-0.161,0.082 -0.32,0.108 -0.472,0.077c-0.818,-0.185 -2.763,-0.61 -5.823,0.94c-3.21,1.625 -4.333,4.414 -4.311,6.484c0.027,2.472 1.295,3.221 5.673,3.296c5.834,0.097 8.355,2.646 8.416,8.522c0.06,5.77 -3.02,11.966 -7.732,15.763l0.104,5.384c0.006,0.648 -0.415,1.391 -0.924,1.649l-3.189,1.837c-0.511,0.258 -0.93,-0.06 -0.937,-0.708l-0.055,-5.296c-2.731,1.135 -5.499,1.409 -7.267,0.699c-0.333,-0.13 -0.476,-0.622 -0.344,-1.182l1.156,-4.868c0.092,-0.384 0.295,-0.768 0.571,-1.012c0.097,-0.095 0.198,-0.168 0.299,-0.219c0.183,-0.092 0.362,-0.112 0.514,-0.055c1.905,0.642 4.342,0.342 6.685,-0.844c2.977,-1.506 4.968,-4.542 4.937,-7.558c-0.029,-2.737 -1.51,-3.874 -5.113,-3.901c-4.586,0.013 -8.861,-0.891 -8.932,-7.642c-0.057,-5.558 2.833,-11.342 7.408,-14.999l-0.057,-5.435c-0.007,-0.668 0.401,-1.403 0.926,-1.667l3.087,-1.971z" fill-rule="evenodd" fill="#242938"/>
   </svg>
  </g>
  <svg id="svg_57" y="0" x="300" viewBox="0 0 256 256" fill="none" height="256" width="256" xmlns="http://www.w3.org/2000/svg">
   <rect id="svg_58" rx="60" fill="#2396ED" height="256" width="256"/>
   <path id="svg_59" d="m141.187,122.123l20.717,0l0,-18.744l-20.717,0l0,18.744zm-24.662,0l20.716,0l0,-18.744l-20.716,0l0,18.744zm-24.1696,0l20.7166,0l0,-18.744l-20.7166,0l0,18.744zm-24.1695,0l20.2234,0l0,-18.744l-20.2234,0l0,18.744zm-24.6626,0l20.7166,0l0,-18.744l-20.7166,0l0,18.744zm24.6626,-22.6897l20.2234,0l0,-18.7437l-20.2234,0l0,18.7437zm24.1695,0l20.7166,0l0,-18.7437l-20.7166,0l0,18.7437zm24.1696,0l20.716,0l0,-18.7437l-20.716,0l0,18.7437zm0,-22.6897l20.716,0l0,-18.7436l-20.716,0l0,18.7436zm111.475,36.9944c0,0 -8.879,-8.386 -27.129,-5.426c-1.973,-14.3045 -17.264,-22.6898 -17.264,-22.6898c0,0 -14.304,17.2638 -3.946,36.5008c-2.959,1.48 -7.892,3.453 -15.291,3.453l-135.6443,0c-2.4663,9.372 -2.4663,71.521 65.6027,71.521c48.8316,0 85.3326,-22.689 102.5966,-64.123c25.649,1.974 31.075,-19.236 31.075,-19.236z" fill="#fff"/>
  </svg>
  <svg id="svg_60" y="646.55127" x="791.379166" viewBox="0 0 256 256" fill="none" height="256" width="256" xmlns="http://www.w3.org/2000/svg">
   <rect id="svg_61" rx="60" fill="#F03C2E" height="256" width="256"/>
   <g id="svg_62" clip-path="url(#svg_3)">
    <path id="svg_63" d="m224.225,119.094l-87.319,-87.319c-1.195,-1.1963 -2.615,-2.1452 -4.177,-2.7926c-1.563,-0.6475 -3.238,-0.9807 -4.929,-0.9807c-1.691,0 -3.366,0.3332 -4.929,0.9807c-1.562,0.6474 -2.982,1.5963 -4.177,2.7926l-18.125,18.125l23,23c5.35,-1.875 11.475,-0.5938 15.737,3.6687c2.029,2.0327 3.446,4.5951 4.088,7.3945c0.642,2.7994 0.484,5.723 -0.457,8.4368l22.169,22.169c5.363,-1.85 11.55,-0.657 15.831,3.637c1.424,1.424 2.553,3.114 3.323,4.974c0.77,1.86 1.166,3.853 1.166,5.866c-0.001,2.013 -0.397,4.006 -1.168,5.866c-0.771,1.859 -1.9,3.549 -3.324,4.972c-1.423,1.424 -3.113,2.552 -4.973,3.322c-1.86,0.771 -3.853,1.167 -5.866,1.166c-2.013,0 -4.007,-0.397 -5.866,-1.167c-1.86,-0.771 -3.55,-1.9 -4.973,-3.324c-4.5,-4.5 -5.612,-11.125 -3.337,-16.669l-20.675,-20.675l0,54.407c1.501,0.742 2.872,1.722 4.062,2.9c1.423,1.423 2.552,3.112 3.323,4.972c0.77,1.859 1.166,3.852 1.166,5.865c0,2.013 -0.396,4.006 -1.166,5.865c-0.771,1.86 -1.9,3.55 -3.323,4.973c-1.423,1.423 -3.113,2.552 -4.972,3.322c-1.86,0.77 -3.853,1.167 -5.865,1.167c-2.013,0 -4.006,-0.397 -5.865,-1.167c-1.86,-0.77 -3.55,-1.899 -4.973,-3.322c-1.425,-1.423 -2.555,-3.112 -3.326,-4.971c-0.772,-1.86 -1.169,-3.854 -1.169,-5.867c0,-2.013 0.397,-4.006 1.169,-5.866c0.771,-1.86 1.901,-3.549 3.326,-4.971c1.481,-1.475 3.125,-2.594 5.019,-3.344l0,-54.913c-1.825,-0.75 -3.538,-1.8558 -5.019,-3.3433c-2.152,-2.1494 -3.615,-4.8911 -4.203,-7.8753c-0.587,-2.9843 -0.273,-6.076 0.903,-8.8809l-22.6873,-22.675l-59.875,59.8125c-1.1971,1.196 -2.1468,2.616 -2.7948,4.179c-0.648,1.563 -0.9815,3.238 -0.9815,4.93c0,1.692 0.3335,3.368 0.9815,4.931c0.648,1.563 1.5977,2.983 2.7948,4.179l87.3253,87.312c1.195,1.196 2.615,2.145 4.177,2.793c1.563,0.647 3.238,0.98 4.929,0.98c1.691,0 3.366,-0.333 4.929,-0.98c1.562,-0.648 2.982,-1.597 4.177,-2.793l86.919,-86.781c1.197,-1.196 2.147,-2.616 2.795,-4.179c0.648,-1.563 0.981,-3.238 0.981,-4.93c0,-1.692 -0.333,-3.368 -0.981,-4.931c-0.648,-1.563 -1.598,-2.983 -2.795,-4.179" fill="#fff"/>
   </g>
   <defs>
    <clipPath id="svg_3">
     <rect id="svg_64" x="28" y="28" fill="#fff" height="200" width="200"/>
    </clipPath>
    <linearGradient y2="0.499632" y1="0.499632" x2="1.000528" x1="-0.000319" id="svg_11">
     <stop stop-color="#F97A12" offset="0.258"/>
     <stop stop-color="#B07B58" offset="0.459"/>
     <stop stop-color="#577BAE" offset="0.724"/>
     <stop stop-color="#1E7CE5" offset="0.91"/>
     <stop stop-color="#087CFA" offset="1"/>
    </linearGradient>
    <linearGradient y2="0.776051" y1="0.34514" x2="1.212255" x1="0.003768" id="svg_10">
     <stop stop-color="#F97A12"/>
     <stop stop-color="#CB7A3E" offset="0.072"/>
     <stop stop-color="#9E7B6A" offset="0.154"/>
     <stop stop-color="#757B91" offset="0.242"/>
     <stop stop-color="#537BB1" offset="0.334"/>
     <stop stop-color="#387CCC" offset="0.432"/>
     <stop stop-color="#237CE0" offset="0.538"/>
     <stop stop-color="#147CEF" offset="0.655"/>
     <stop stop-color="#0B7CF7" offset="0.792"/>
     <stop stop-color="#087CFA" offset="1"/>
    </linearGradient>
    <linearGradient y2="-0.065868" y1="0.976988" x2="0.301935" x1="0.782246" id="svg_9">
     <stop stop-color="#FE315D"/>
     <stop stop-color="#CB417E" offset="0.078"/>
     <stop stop-color="#9E4E9B" offset="0.16"/>
     <stop stop-color="#755BB4" offset="0.247"/>
     <stop stop-color="#5365CA" offset="0.339"/>
     <stop stop-color="#386DDB" offset="0.436"/>
     <stop stop-color="#2374E9" offset="0.541"/>
     <stop stop-color="#1478F3" offset="0.658"/>
     <stop stop-color="#0B7BF8" offset="0.794"/>
     <stop stop-color="#087CFA" offset="1"/>
    </linearGradient>
    <linearGradient y2="1.326207" y1="0.241187" x2="1.033957" x1="0.199636" id="svg_8">
     <stop stop-color="#FE315D"/>
     <stop stop-color="#F63462" offset="0.04"/>
     <stop stop-color="#DF3A71" offset="0.104"/>
     <stop stop-color="#C24383" offset="0.167"/>
     <stop stop-color="#AD4A91" offset="0.291"/>
     <stop stop-color="#755BB4" offset="0.55"/>
     <stop stop-color="#1D76ED" offset="0.917"/>
     <stop stop-color="#087CFA" offset="1"/>
    </linearGradient>
    <linearGradient y2="0.780523" y1="0.120395" x2="0.797863" x1="0.129591" id="svg_28">
     <stop stop-color="#387EB8"/>
     <stop stop-color="#366994" offset="1"/>
    </linearGradient>
    <linearGradient y2="0.882699" y1="0.205795" x2="0.908922" x1="0.191276" id="svg_27">
     <stop stop-color="#FFE052"/>
     <stop stop-color="#FFC331" offset="1"/>
    </linearGradient>
   </defs>
  </svg>
  <svg id="svg_65" y="0" x="900" fill="none" viewBox="0 0 256 256" height="256" width="256" xmlns="http://www.w3.org/2000/svg">
   <rect id="svg_66" fill="#242938" rx="60" height="256" width="256"/>
   <path id="svg_67" fill="white" d="m128.001,30c-55.2219,0 -100.001,44.7708 -100.001,100.001c0,44.183 28.6533,81.667 68.3867,94.89c4.9973,0.926 6.8323,-2.169 6.8323,-4.81c0,-2.385 -0.093,-10.262 -0.136,-18.618c-27.8199,6.049 -33.6903,-11.799 -33.6903,-11.799c-4.549,-11.559 -11.1033,-14.632 -11.1033,-14.632c-9.0731,-6.207 0.6839,-6.079 0.6839,-6.079c10.0418,0.705 15.3293,10.305 15.3293,10.305c8.9191,15.288 23.3939,10.868 29.1004,8.313c0.898,-6.464 3.489,-10.875 6.349,-13.372c-22.2115,-2.529 -45.5607,-11.104 -45.5607,-49.421c0,-10.918 3.9064,-19.839 10.3034,-26.8418c-1.0383,-2.5187 -4.4612,-12.6897 0.9688,-26.464c0,0 8.3974,-2.6877 27.5075,10.2504c7.977,-2.2157 16.531,-3.3268 25.03,-3.3649c8.498,0.0381 17.06,1.1492 25.051,3.3649c19.087,-12.9381 27.473,-10.2504 27.473,-10.2504c5.443,13.7743 2.019,23.9453 0.98,26.464c6.412,7.0028 10.292,15.9238 10.292,26.8418c0,38.409 -23.394,46.866 -45.662,49.341c3.587,3.104 6.783,9.189 6.783,18.519c0,13.38 -0.116,24.149 -0.116,27.443c0,2.661 1.8,5.779 6.869,4.797c39.712,-13.238 68.329,-50.709 68.329,-94.877c0,-55.2302 -44.773,-100.001 -99.999,-100.001zm-62.5474,142.453c-0.2203,0.497 -1.0019,0.646 -1.714,0.305c-0.7253,-0.326 -1.1327,-1.004 -0.8975,-1.502c0.2153,-0.512 0.9985,-0.654 1.7222,-0.311c0.727,0.326 1.141,1.01 0.8893,1.508zm4.9189,4.389c-0.4769,0.443 -1.4092,0.237 -2.0418,-0.462c-0.6541,-0.697 -0.7767,-1.629 -0.2931,-2.078c0.4918,-0.442 1.396,-0.235 2.0517,0.462c0.6541,0.706 0.7816,1.631 0.2832,2.078zm3.3746,5.616c-0.6127,0.426 -1.6146,0.027 -2.2339,-0.863c-0.6128,-0.889 -0.6128,-1.955 0.0132,-2.383c0.621,-0.427 1.608,-0.043 2.2356,0.84c0.611,0.904 0.611,1.971 -0.0149,2.406zm5.7071,6.504c-0.5481,0.604 -1.7156,0.442 -2.5701,-0.383c-0.8743,-0.806 -1.1178,-1.95 -0.568,-2.555c0.5548,-0.606 1.7289,-0.435 2.59,0.383c0.8677,0.804 1.1326,1.957 0.5481,2.555zm7.3759,2.195c-0.2418,0.784 -1.3662,1.14 -2.4989,0.807c-1.131,-0.343 -1.8712,-1.26 -1.6427,-2.052c0.2352,-0.788 1.3645,-1.159 2.5055,-0.803c1.1294,0.341 1.8712,1.252 1.6361,2.048zm8.3941,0.932c0.0281,0.824 -0.9323,1.508 -2.1213,1.523c-1.1956,0.027 -2.1627,-0.641 -2.176,-1.452c0,-0.833 0.939,-1.51 2.1346,-1.53c1.189,-0.023 2.1627,0.639 2.1627,1.459zm8.2458,-0.316c0.143,0.804 -0.683,1.631 -1.864,1.851c-1.161,0.212 -2.2358,-0.285 -2.3831,-1.083c-0.1441,-0.825 0.6971,-1.651 1.8561,-1.865c1.183,-0.205 2.241,0.279 2.391,1.097z"/>
  </svg>
  <svg id="svg_75" y="2.608695" x="1502.608695" viewBox="0 0 256 256" fill="none" height="256" width="256" xmlns="http://www.w3.org/2000/svg">
   <rect id="svg_76" rx="60" fill="#E14E1D" height="256" width="256"/>
   <path id="svg_77" d="m48,38l8.6098,96.593l110.7102,0l-3.715,41.43l-35.646,9.638l-35.579,-9.624l-2.3788,-26.602l-32.0623,0l4.5847,51.281l65.4274,18.172l65.51,-18.172l8.783,-98.061l-116.4199,0l-2.9231,-32.7102l122.14,0l0.098,0l2.861,-31.9448l-160,0z" fill="#fff"/>
   <path id="svg_78" d="m128,38l-80,0l8.6098,96.593l71.3902,0l0,-31.938l-42.1759,0l-2.9231,-32.7102l45.099,0l0,-31.9448z" fill="#EBEBEB"/>
   <path id="svg_79" d="m128,185.647l-0.041,0.014l-35.579,-9.624l-2.3788,-26.602l-32.0624,0l4.5848,51.281l65.4274,18.172l0.049,-0.014l0,-33.227z" fill="#EBEBEB"/>
  </svg>
  <svg id="svg_80" y="0" x="1800" viewBox="0 0 256 256" fill="none" height="256" width="256" xmlns="http://www.w3.org/2000/svg">
   <rect id="svg_81" rx="60" fill="#242938" height="256" width="256"/>
   <path id="svg_82" d="m78.5714,184l-48.2858,-38.286l24,-44.571l68.8574,26.857l-44.5716,56z" fill="url(#svg_11)"/>
   <path id="svg_83" d="m228,81.4285l-3.714,115.7145l-76.857,30.857l-46.286,-29.714l67.714,-70.286l-29.714,-64.8572l26.571,-32l62.286,50.2857z" fill="url(#svg_10)"/>
   <path id="svg_84" d="m228,81.4285l-60.857,72.0005l-28,-90.2862l26.571,-32l62.286,50.2857z" fill="url(#svg_9)"/>
   <path id="svg_85" d="m124.286,194l-80.286,29.143l12.8571,-45.143l16.8572,-55.429l-45.7143,-15.428l28.8571,-79.143l62.8569,7.7143l61.715,70.5717l-57.143,87.714z" fill="url(#svg_8)"/>
   <path id="svg_86" d="m190.571,66.5715l-123.4282,0l0,123.4285l123.4282,0l0,-123.4285z" fill="#000"/>
   <path id="svg_87" d="m124.857,166.857l-46.2857,0l0,7.714l46.2857,0l0,-7.714z" fill="#fff"/>
   <path id="svg_88" d="m112,92.0001l0,-9.4286l-25.7144,0l0,9.4286l7.4286,0l0,32.2859l-7.4286,0l0,9.428l25.7144,0l0,-9.428l-7.143,0l0,-32.2859l7.143,0z" fill="#fff"/>
   <path id="svg_89" d="m136.571,134.572c-4,0 -7.428,-0.858 -10,-2.286c-2.571,-1.429 -4.857,-3.429 -6.571,-5.429l7.143,-8c1.428,1.715 2.857,2.857 4.286,3.715c1.428,0.857 3.142,1.428 4.857,1.428c2,0 3.714,-0.571 5.143,-2c1.142,-1.428 1.714,-3.428 1.714,-6.571l0,-32.8575l11.428,0l0,33.4285c0,3.143 -0.285,5.714 -1.142,8c-0.858,2.286 -2,4 -3.715,5.714c-1.428,1.429 -3.428,2.858 -5.714,3.429c-2.286,0.857 -4.571,1.429 -7.429,1.429z" fill="#fff"/>

  </svg>
  <svg id="svg_90" y="-344.444458" x="2066.666668" viewBox="0 0 256 256" fill="none" height="256" width="256" xmlns="http://www.w3.org/2000/svg">
   <rect id="svg_91" rx="60" fill="#242938" height="256" width="256"/>
   <path id="svg_92" d="m101.634,182.619c0,0 -7.6792,4.674 5.345,6.011c15.728,2.004 24.044,1.669 41.407,-1.668c0,0 4.674,3.009 11.02,5.344c-39.075,16.696 -88.4971,-1.002 -57.772,-9.687zm-5.0088,-21.705c0,0 -8.3499,6.346 4.6738,7.679c17.028,1.669 30.391,2.004 53.433,-2.667c0,0 3.009,3.341 8.015,5.01c-47.083,14.025 -99.8495,1.333 -66.1218,-10.019l0,-0.003zm92.1698,38.07c0,0 5.676,4.674 -6.346,8.35c-22.376,6.678 -93.8386,8.685 -113.8755,0c-7.0095,-3.009 6.3462,-7.352 10.6852,-8.015c4.3425,-1.002 6.6779,-1.002 6.6779,-1.002c-7.6797,-5.344 -51.0942,11.02 -22.0407,15.729c79.8131,13.027 145.6031,-5.676 124.8961,-15.028l0.003,-0.034zm-83.488,-60.781c0,0 -36.4018,8.685 -13.0277,11.687c10.0187,1.333 29.7207,1.002 48.0887,-0.335c15.028,-1.334 30.09,-4.007 30.09,-4.007c0,0 -5.345,2.338 -9.017,4.674c-37.099,9.693 -108.2303,5.351 -87.8583,-4.668c17.3699,-8.35 31.7243,-7.351 31.7243,-7.351l0,0zm65.116,36.401c37.407,-19.37 20.037,-38.07 8.015,-35.731c-3.009,0.667 -4.342,1.334 -4.342,1.334c0,0 1.001,-2.004 3.34,-2.667c23.709,-8.35 42.413,25.046 -7.679,38.07c0,0 0.335,-0.335 0.666,-1.002l0,-0.004zm-61.444,52.76c36.067,2.339 91.168,-1.334 92.505,-18.369c0,0 -2.667,6.678 -29.72,11.688c-30.722,5.676 -68.796,5.009 -91.1683,1.333c0,0 4.6741,4.007 28.3863,5.344l-0.003,0.004z" fill="#fff"/>
   <path id="svg_93" d="m147.685,28c0,0 20.704,21.0388 -19.702,52.7594c-32.3939,25.7126 -7.351,40.4086 0,57.1016c-19.035,-17.028 -32.7221,-32.059 -23.377,-46.0848c13.725,-20.6934 51.456,-30.7118 43.079,-63.7762zm-10.685,95.842c9.683,11.02 -2.667,21.039 -2.667,21.039c0,0 24.711,-12.686 13.359,-28.387c-10.354,-15.028 -18.368,-22.3756 25.046,-47.4251c0,0 -68.46,17.0279 -35.731,54.7661l-0.007,0.007z" fill="#F58219"/>
  </svg>
  <svg id="svg_94" y="0" x="2400" fill="none" viewBox="0 0 256 256" height="256" width="256" xmlns="http://www.w3.org/2000/svg">
   <rect id="svg_95" fill="#F0DB4F" rx="60" height="256" width="256"/>
   <path id="svg_96" fill="#323330" d="m67.3117,213.932l19.591,-11.856c3.7794,6.701 7.2175,12.371 15.4643,12.371c7.905,0 12.889,-3.092 12.889,-15.12l0,-81.798l24.058,0l0,82.138c0,24.917 -14.606,36.259 -35.916,36.259c-19.2447,0 -30.4161,-9.967 -36.0867,-21.996"/>
   <path id="svg_97" fill="#323330" d="m152.381,211.354l19.588,-11.341c5.157,8.421 11.859,14.607 23.715,14.607c9.969,0 16.325,-4.984 16.325,-11.858c0,-8.248 -6.53,-11.17 -17.528,-15.98l-6.013,-2.579c-17.357,-7.388 -28.871,-16.668 -28.871,-36.258c0,-18.044 13.748,-31.792 35.229,-31.792c15.294,0 26.292,5.328 34.196,19.247l-18.731,12.029c-4.125,-7.389 -8.591,-10.31 -15.465,-10.31c-7.046,0 -11.514,4.468 -11.514,10.31c0,7.217 4.468,10.139 14.778,14.608l6.014,2.577c20.449,8.765 31.963,17.699 31.963,37.804c0,21.654 -17.012,33.51 -39.867,33.51c-22.339,0 -36.774,-10.654 -43.819,-24.574"/>
  </svg>
  <svg id="svg_113" y="0" x="3000" viewBox="0 0 256 256" fill="none" height="256" width="256" xmlns="http://www.w3.org/2000/svg">
   <rect id="svg_114" rx="60" fill="#242938" height="256" width="256"/>
   <path id="svg_115" d="m217,69l-178,0c-5.5228,0 -10,4.4772 -10,10l0,98c0,5.523 4.4772,10 10,10l178,0c5.523,0 10,-4.477 10,-10l0,-98c0,-5.5228 -4.477,-10 -10,-10z" stroke-width="10" stroke="#fff"/>
   <path id="svg_116" d="m54,162l0,-68l20,0l20,25l20,-25l20,0l0,68l-20,0l0,-39l-20,25l-20,-25l0,39l-20,0zm125,0l-30,-33l20,0l0,-35l20,0l0,35l20,0l-30,33z" fill="#fff"/>
  </svg>
  <svg id="svg_135" y="296.153809" x="1211.538696" viewBox="0 0 256 256" fill="none" height="256" width="256" xmlns="http://www.w3.org/2000/svg">
   <rect id="svg_136" rx="60" fill="#001E36" height="256" width="256"/>
   <path id="svg_137" d="m57.6001,178.04l0,-109.7601c0,-0.7467 0.32,-1.1733 1.0667,-1.1733c1.8133,0 3.52,0 5.9733,-0.1067c2.56,-0.1067 5.2267,-0.1067 8.1067,-0.2133c2.88,-0.1067 5.9733,-0.1067 9.28,-0.2134c3.3066,-0.1066 6.5066,-0.1066 9.7066,-0.1066c8.7466,0 15.9996,1.0666 21.9736,3.3066c5.333,1.8134 10.24,4.8 14.293,8.7467c3.413,3.4133 6.08,7.5733 7.787,12.16c1.6,4.48 2.453,9.0667 2.453,13.8671c0,9.173 -2.133,16.746 -6.4,22.72c-4.267,5.973 -10.24,10.453 -17.173,13.013c-7.254,2.667 -15.2536,3.627 -24.0002,3.627c-2.56,0 -4.2667,0 -5.3334,-0.107c-1.0666,-0.107 -2.56,-0.107 -4.5866,-0.107l0,34.24c0.1066,0.747 -0.4267,1.387 -1.1734,1.494c-0.1066,0 -0.2133,0 -0.4266,0l-20.2667,0c-0.8533,0 -1.28,-0.427 -1.28,-1.387zm23.2533,-90.3468l0,35.8398c1.4934,0.107 2.88,0.214 4.16,0.214l5.6534,0c4.16,0 8.32,-0.64 12.2662,-1.92c3.414,-0.96 6.4,-2.987 8.747,-5.654c2.24,-2.666 3.307,-6.293 3.307,-10.986c0.106,-3.307 -0.747,-6.6138 -2.454,-9.4938c-1.813,-2.7733 -4.373,-4.9066 -7.466,-6.08c-3.947,-1.6 -8.2136,-2.24 -12.5869,-2.1333c-2.7733,0 -5.2267,0 -7.2533,0.1067c-2.1334,-0.1067 -3.6267,0 -4.3734,0.1066z" fill="#31A8FF"/>
   <path id="svg_138" d="m204.8,117.027c-3.2,-1.707 -6.613,-2.88 -10.24,-3.627c-3.947,-0.853 -7.893,-1.387 -11.947,-1.387c-2.133,-0.106 -4.373,0.214 -6.4,0.747c-1.386,0.32 -2.56,1.067 -3.306,2.133c-0.534,0.854 -0.854,1.92 -0.854,2.88c0,0.96 0.427,1.92 1.067,2.774c0.96,1.173 2.24,2.133 3.627,2.88c2.453,1.28 5.013,2.453 7.573,3.52c5.76,1.92 11.307,4.586 16.427,7.786c3.52,2.24 6.4,5.227 8.426,8.854c1.707,3.413 2.56,7.146 2.454,10.986c0.106,5.014 -1.387,10.027 -4.16,14.187c-2.987,4.267 -7.147,7.573 -11.947,9.493c-5.227,2.24 -11.627,3.414 -19.307,3.414c-4.906,0 -9.706,-0.427 -14.506,-1.387c-3.734,-0.64 -7.467,-1.813 -10.88,-3.413c-0.747,-0.427 -1.28,-1.174 -1.174,-2.027l0,-18.56c0,-0.32 0.107,-0.747 0.427,-0.96c0.32,-0.213 0.64,-0.107 0.96,0.107c4.16,2.453 8.533,4.16 13.227,5.226c4.053,1.067 8.32,1.6 12.586,1.6c4.054,0 6.934,-0.533 8.854,-1.493c1.706,-0.747 2.88,-2.56 2.88,-4.48c0,-1.493 -0.854,-2.88 -2.56,-4.267c-1.707,-1.386 -5.227,-2.986 -10.454,-5.013c-5.44,-1.92 -10.453,-4.48 -15.146,-7.68c-3.307,-2.347 -6.08,-5.44 -8.107,-9.067c-1.707,-3.413 -2.56,-7.146 -2.453,-10.88c0,-4.586 1.28,-8.96 3.626,-12.906c2.667,-4.267 6.614,-7.6804 11.2,-9.8138c5.014,-2.56 11.307,-3.7333 18.88,-3.7333c4.374,0 8.854,0.32 13.227,0.96c3.2,0.4267 6.293,1.28 9.173,2.4533c0.427,0.1067 0.854,0.5334 1.067,0.96c0.107,0.4267 0.213,0.8534 0.213,1.28l0,17.3868c0,0.427 -0.213,0.853 -0.533,1.067c-0.96,0.213 -1.493,0.213 -1.92,0z" fill="#31A8FF"/>
  </svg>
  <svg id="svg_165" y="0.97878" x="595.572932" viewBox="0 0 256 256" fill="none" height="256" width="256" xmlns="http://www.w3.org/2000/svg">
   <rect id="svg_166" rx="60" fill="#242938" height="256" width="256"/>
   <path id="svg_167" d="m127.279,29c-50.7724,0 -47.6018,22.018 -47.6018,22.018l0.0566,22.8104l48.4512,0l0,6.8488l-67.6957,0c0,0 -32.4893,-3.6846 -32.4893,47.5448c0,51.23 28.3573,49.414 28.3573,49.414l16.9239,0l0,-23.773c0,0 -0.9122,-28.357 27.9048,-28.357l48.054,0c0,0 26.999,0.436 26.999,-26.0937l0,-43.8662c0,0 4.099,-26.5461 -48.96,-26.5461zm-26.716,15.339c4.821,0 8.717,3.8961 8.717,8.7166c0,4.8205 -3.896,8.7167 -8.717,8.7167c-4.8204,0 -8.7165,-3.8962 -8.7165,-8.7167c0,-4.8205 3.8961,-8.7166 8.7165,-8.7166z" fill="url(#svg_28)"/>
   <path id="svg_168" d="m128.721,227.958c50.772,0 47.602,-22.017 47.602,-22.017l-0.057,-22.811l-48.451,0l0,-6.849l67.696,0c0,0 32.489,3.685 32.489,-47.545c0,-51.2298 -28.357,-49.413 -28.357,-49.413l-16.924,0l0,23.773c0,0 0.912,28.357 -27.905,28.357l-48.054,0c0,0 -26.9993,-0.437 -26.9993,26.093l0,43.866c0,0 -4.0992,26.546 48.9603,26.546zm26.716,-15.339c-4.821,0 -8.717,-3.896 -8.717,-8.716c0,-4.821 3.896,-8.717 8.717,-8.717c4.82,0 8.717,3.896 8.717,8.717c0,4.82 -3.897,8.716 -8.717,8.716z" fill="url(#svg_27)"/>

  </svg>
  <svg id="svg_236" y="296.153845" x="3.845215" fill="none" viewBox="0 0 256 256" height="256" width="256" xmlns="http://www.w3.org/2000/svg">
   <rect id="svg_237" fill="white" rx="60" height="256" width="256"/>
   <rect id="svg_238" fill="#1D9BF0" rx="60" height="256" width="256"/>
   <path id="svg_239" fill="white" d="m199.572,91.4114c0.11,1.5869 0.11,3.1737 0.11,4.7752c0,48.7974 -37.148,105.0754 -105.075,105.0754l0,-0.03c-20.0659,0.03 -39.7149,-5.718 -56.607,-16.555c2.9177,0.351 5.8501,0.526 8.7898,0.533c16.6288,0.015 32.7824,-5.565 45.8647,-15.839c-15.8026,-0.3 -29.66,-10.603 -34.5009,-25.645c5.5356,1.068 11.2395,0.848 16.6727,-0.636c-17.2285,-3.481 -29.6234,-18.618 -29.6234,-36.198c0,-0.161 0,-0.314 0,-0.468c5.1335,2.859 10.8812,4.446 16.7605,4.622c-16.2267,-10.845 -21.2285,-32.4316 -11.4296,-49.3092c18.7496,23.0713 46.4132,37.0969 76.1102,38.5812c-2.977,-12.8261 1.089,-26.2667 10.683,-35.2832c14.874,-13.9817 38.267,-13.2651 52.249,1.6015c8.27,-1.6307 16.197,-4.6655 23.451,-8.9653c-2.756,8.5485 -8.526,15.8099 -16.234,20.4242c7.32,-0.8629 14.472,-2.8227 21.207,-5.8136c-4.958,7.4296 -11.203,13.9013 -18.428,19.1298z"/>
  </svg>
  <svg id="svg_251" y="292.30769" x="288.460449" viewBox="0 0 256 256" fill="none" height="256" width="256" xmlns="http://www.w3.org/2000/svg">
   <rect id="svg_252" rx="60" fill="#242938" height="256" width="256"/>
   <path id="svg_253" d="m33.7158,100.208c0,0 -4.7344,-3.413 0.9469,-7.9699l13.2367,-11.8361c0,0 3.7875,-3.9848 7.7921,-0.5129l122.1485,92.4789l0,44.346c0,0 -0.059,6.964 -8.996,6.194l-135.1282,-122.7z" fill="#2489CA"/>
   <path id="svg_254" d="m65.1997,128.792l-31.484,28.623c0,0 -3.2352,2.407 0,6.708l14.6176,13.295c0,0 3.4719,3.729 8.6008,-0.513l33.3778,-25.309l-25.1122,-22.804z" fill="#1070B3"/>
   <path id="svg_255" d="m120.474,129.029l57.741,-44.0899l-0.375,-44.1091c0,0 -2.466,-9.6267 -10.692,-4.6161l-76.836,69.9311l30.162,22.884z" fill="#0877B9"/>
   <path id="svg_256" d="m168.844,222.968c3.354,3.432 7.418,2.308 7.418,2.308l44.997,-22.173c5.76,-3.926 4.951,-8.798 4.951,-8.798l0,-132.4068c0,-5.8194 -5.958,-7.8315 -5.958,-7.8315l-38.999,-18.7997c-8.522,-5.267 -14.105,0.9469 -14.105,0.9469c0,0 7.18,-5.1684 10.692,4.6161l0,175.075c0,1.204 -0.257,2.387 -0.769,3.453c-1.026,2.071 -3.255,4.004 -8.601,3.195l0.374,0.415z" fill="#3C99D4"/>
  </svg>
  <g id="svg_262">undefined</g>
  <g stroke="null" id="svg_290">
   <path stroke="null" id="svg_289" p-id="3657" fill="#264DE4" d="m2233.556308,127.088236zm-119.963178,-125.464876l21.822856,225.819963l97.983998,25.081766l98.265381,-25.10979l21.854121,-225.791938l-239.926356,0zm181.617436,187.566767l-61.622993,15.749667l-61.529198,-15.83374l-4.189488,-43.521767l30.139302,0l2.157274,22.167236l33.48464,8.491369l0.093795,0.140122l0.031265,0l33.42211,-8.323223l3.470397,-35.927177l-70.220823,0l-2.501187,-27.996295l75.379521,0l2.751306,-28.556781l-114.992069,0l-2.501187,-27.435808l150.321334,0l-13.693998,141.046398z"/>
  </g>
  <g stroke="null" id="svg_304">
   <path stroke="null" id="svg_301" p-id="7843" fill="#4DB6AC" d="m1272.759796,113.656425l-61.361161,24.400329l47.45468,36.31907l37.843275,-40.543361l-23.936794,-20.175189l0,-0.000849z"/>
   <path stroke="null" id="svg_302" p-id="7844" fill="#00897B" d="m1378.736763,4.247249c-5.13289,0.754973 -3.741224,0.428692 -11.108287,6.809138c-7.043594,6.101564 -27.350246,42.465914 -38.203512,54.699934c-9.656387,10.885309 -13.478573,5.162501 -23.508105,14.245021c-10.044395,9.096059 -25.530679,27.280562 -25.530679,27.280562l25.024156,20.025383l39.671839,-59.027903c9.366945,-13.936516 9.267594,-15.770623 14.371932,-30.393555c2.497017,-7.154885 6.94659,-12.653399 10.856395,-19.38594c4.884516,-8.410494 11.806858,-14.750314 8.426261,-14.253062l0,0.000423z"/>
   <path stroke="null" id="svg_303" p-id="7845" fill="#FFB74D" d="m1377.959575,3.548984c-12.230068,-0.079982 -24.277083,58.080803 -45.199778,102.704566c-21.333776,45.501038 -63.456088,74.828575 -63.456088,74.828575c7.101482,3.488361 13.565017,2.077867 21.213699,9.900125c5.231456,6.840452 20.374319,40.616148 29.403322,61.835349c0,0 7.417519,-4.357593 16.816539,-11.720264c9.399019,-7.362249 20.778753,-17.729998 28.703186,-29.750305c10.514934,-15.950902 18.734284,-25.832829 25.698866,-31.853985c6.964582,-6.022005 12.674399,-8.182816 18.171435,-8.692338c19.649935,-1.821836 48.728612,36.306377 48.728612,36.306377s-60.890229,-203.433684 -80.079794,-203.5581z"/>
  </g>
  <g stroke="null" transform="rotate(-0.47358596324920654 2838.56811523437,148.7732696533664) " id="svg_326">
   <path stroke="null" id="svg_325" p-id="17029" fill="#d81e06" d="m2721.924287,42.405076l95.259323,-21.489129l95.259323,21.489129l-95.259323,34.387155l-95.259323,-34.387155zm99.79491,42.982591l0,120.353059l95.259514,-38.685054l0,-116.050287l-95.259514,34.382282zm66.244025,73.611341l-7.699316,-0.737494l-8.352672,-43.25694l-16.077132,57.909357l-9.505474,-1.891386c-5.937731,-19.805852 -12.519294,-39.469837 -17.37432,-59.512135c-1.307284,-5.385368 2.639711,-11.910008 4.176527,-17.914647c4.311198,4.444458 8.936693,8.661857 12.803685,13.427773c2.080644,2.562458 2.854195,6.0707 4.989698,10.846182c8.397817,-13.815472 -3.113632,-38.169746 27.269142,-36.335216l9.001457,32.997179c12.055278,-13.744538 -6.017734,-37.687469 24.140461,-47.228687c-8.677255,33.082191 -0.958129,66.140919 -23.372244,91.696013l0.00019,0zm-170.574522,-107.993623l0,116.050287l95.259133,38.685054l0,-120.352878l-95.259133,-34.382463zm236.93817,222.138447c-5.488572,4.595711 -21.800189,4.661952 -27.748016,0.118223c-10.443412,-7.980857 -16.60077,-21.002159 -24.554571,-31.909709l8.058567,-6.349742l27.383812,26.519829l6.920622,-4.302591c-4.480728,-6.326278 -8.562203,-12.945496 -13.512281,-18.883894c-6.865763,-8.24582 -16.965163,-15.039936 -20.782249,-24.269082c-2.894006,-6.974067 -0.743455,-22.222111 3.757274,-24.113316c7.66922,-3.285874 20.792344,-1.702048 28.197174,2.836988c7.649219,4.694802 11.21182,15.361394 16.560959,23.413365l-5.608577,5.276531l-26.21101,-20.50093l-6.606516,5.768194c5.259231,5.626326 10.413697,11.347411 15.812552,16.860207c7.564454,7.711561 18.232446,14.156062 22.074675,23.229081c3.188492,7.541176 1.776252,21.687672 -3.742416,26.306847z"/>
  </g>
  <g stroke="null" id="svg_333">
   <path stroke="null" id="svg_330" p-id="19140" fill="#659AD3" d="m3550.218527,64.637516l-109.326767,-63.067048c-1.810795,-1.134299 -4.300639,-1.588019 -7.016832,-1.588019c-2.716193,0 -5.206037,0.68058 -7.016832,1.588019l-108.647719,63.293908c-3.84794,2.268599 -6.564133,7.940096 -6.564133,12.250434l0,126.360956c0,2.495459 0.452699,5.444637 2.263494,7.940096l241.741175,-140.653128c-1.358096,-2.722319 -3.395241,-4.764058 -5.432386,-6.125217z"/>
   <path stroke="null" id="svg_331" p-id="19141" fill="#03599C" d="m3313.23069,211.189002c1.131747,1.814879 2.716193,3.402898 4.300639,4.310338l109.100418,63.293908c1.810795,1.134299 4.300639,1.588019 7.016832,1.588019c2.716193,0 5.206037,-0.68058 7.016832,-1.588019l108.647719,-63.293908c3.84794,-2.268599 6.564133,-7.940096 6.564133,-12.250434l0,-126.360956c0,-2.041739 -0.226349,-4.310338 -1.358096,-6.352077l-241.288476,140.653128z"/>
   <path stroke="null" id="svg_332" p-id="19142" fill="#FFFFFF" d="m3482.087353,167.631904c-9.506675,16.787631 -27.614629,28.130626 -48.212425,28.130626c-30.557171,0 -55.455607,-24.954587 -55.455607,-55.580672s24.898436,-55.580672 55.455607,-55.580672c20.597797,0 38.70575,11.342994 48.212425,28.357486l29.425424,-17.014491c-15.39176,-26.996326 -44.364485,-45.371977 -77.637849,-45.371977c-49.344172,0 -89.408019,40.1542 -89.408019,89.609654s40.063846,89.609654 89.408019,89.609654c33.047015,0 62.01974,-18.148791 77.4115,-44.918257l-29.199075,-17.241351z"/>
  </g>
  <g stroke="null" id="svg_338">
   <path stroke="null" id="svg_337" p-id="36605" fill="#979797" d="m3815.904149,198.520616l-50.385518,0c-4.090676,0 -7.406787,3.08062 -7.406787,6.88188l0,41.636841l8.065169,0l49.727136,-47.288158l0,-1.230563zm0,-13.759545l0,-21.775056c0,-3.750689 3.253177,-6.784953 7.261556,-6.784953s7.261556,3.034264 7.261556,6.784953l0,39.542357c0,1.78263 -0.75036,3.489403 -2.081647,4.762108l-53.943678,51.295917a7.019505,6.110671 0 0 1 -5.179912,2.03127l-108.715176,0c-18.444352,0 -33.403158,-13.982899 -33.403158,-31.231845l0,-181.967332c0,-17.244733 14.958806,-31.227632 33.403158,-31.227632l136.517254,0c18.444352,0 33.403158,13.982899 33.403158,31.231845l0,12.082272c0,3.750686 -3.253177,6.78495 -7.261556,6.78495s-7.261556,-3.034264 -7.261556,-6.78495l0,-12.086484c0,-9.747573 -8.452451,-17.653516 -18.880046,-17.653516l-136.517254,0c-10.427595,0 -18.880046,7.905944 -18.880046,17.657729l0,181.958904c0,9.747573 8.452451,17.653516 18.880046,17.653516l82.781739,0l0,-41.636844c0,-11.395347 9.953174,-20.637209 22.230043,-20.637209l50.385518,0zm-107.33548,-109.570638c9.362565,0 16.880695,2.136627 22.336547,6.405667c5.262206,4.075186 7.973189,9.701217 8.278174,16.688451l-12.707723,0c-0.73584,-4.564039 -2.74971,-7.859585 -6.148118,-9.996213c-3.287065,-2.132412 -7.726296,-3.105905 -13.298329,-3.105905c-8.360473,0 -14.920078,2.427411 -19.824048,7.471875c-4.487642,4.467109 -7.203464,10.674707 -8.249128,18.627007c-1.07471,8.154584 -0.014523,14.459112 3.199924,18.825079c3.509754,4.656753 9.65787,7.079949 18.347533,7.079949c5.688218,0 10.534098,-1.255846 14.406927,-3.58633c4.134245,-2.621268 7.334172,-6.599524 9.585254,-11.837844l12.707723,0c-2.856211,8.150371 -7.813434,14.454897 -14.992694,19.018935c-6.690313,4.26904 -14.32947,6.405667 -22.912629,6.405667c-13.264443,0 -22.694782,-3.691688 -28.213565,-10.872779c-4.865243,-6.207598 -6.549924,-14.551824 -5.170228,-25.032677c1.355489,-10.282781 5.36871,-18.723937 12.117115,-25.125389c7.658522,-7.374948 17.829543,-10.965493 30.537266,-10.965493zm64.96672,25.268674l8.108739,0l-2.028394,15.394676l17.684309,0l-0.929479,7.063091l-17.684309,0l-2.04292,15.470531l-8.108736,0l2.042917,-15.470531l-17.776289,0l0.929479,-7.063091l17.776289,0l2.033236,-15.394676l-0.004842,0zm58.092449,0l8.108739,0l-2.028394,15.394676l17.684309,0l-0.929479,7.063091l-17.684309,0l-2.04292,15.470531l-8.108736,0l2.042917,-15.470531l-17.776289,0l0.929479,-7.063091l17.776289,0l2.033236,-15.394676l-0.004842,0z"/>
  </g>
  <g stroke="null" id="svg_345">
   <path stroke="null" id="svg_342" p-id="39441" d="m3921.798799,153.995459a-44.263339,43.623657 0 0 0 16.997232,-27.175738a-6.66634,6.57 0 0 1 3.088997,-4.264771a-41.870046,41.264951 0 0 0 4.650935,-22.614933c6.034587,-11.109795 19.136661,-17.406683 19.136661,-17.406683s0.300371,-1.459149 -2.565768,-1.770462a-8.561597,8.437867 0 0 0 -5.658637,-3.361395c-0.753838,-1.040887 0,-2.305231 -1.507677,-2.752142a-9.495658,9.35843 0 0 0 -5.583061,-2.826628c-1.658834,-2.083684 -2.187877,-4.910313 -3.168448,-5.653257s-4.373818,-2.158171 -5.732278,-5.133769s0.67826,-3.496996 -2.263455,-5.504284a-6.782615,6.684594 0 0 0 -3.100624,-5.653257c-0.075579,-1.115374 0.678262,-1.850678 0,-2.822808a-11.935462,11.762973 0 0 0 -3.319606,-5.286559a-6.906639,6.806826 0 0 0 0.829417,-4.239942c0,-0.595884 -1.432101,-1.336918 -2.412672,-3.199055a-6.05978,5.972206 0 0 0 0,-5.059283c0.527105,-1.264341 1.507679,-2.009198 1.356522,-2.901112s-2.412672,-4.612369 0.831355,-8.183854a-8.495708,8.37293 0 0 0 7.920155,-2.305228c0.602684,-0.14897 3.100624,-3.055815 6.3369,-3.496998s5.883433,-0.14897 6.71285,-0.446913s1.434038,-2.083682 4.149023,-2.305228s4.300178,0.14897 4.753644,0a-8.4492,8.327095 0 0 0 5.507483,-2.454201a-16.780188,16.537685 0 0 0 5.656699,1.562284a-7.342664,7.23655 0 0 0 4.678066,-2.083682c3.100624,-0.074486 5.280749,2.083682 6.412478,2.158168s3.166511,-1.264344 5.813668,-0.744854a-11.873451,11.701859 0 0 0 4.375756,2.454199c0.753838,0.223457 3.468823,-0.670367 5.732278,-0.074484a-11.968406,11.795442 0 0 0 5.129595,3.793029a-3.639356,3.586761 0 0 1 3.848649,1.189857c1.507677,-0.372427 7.569398,3.422512 12.421873,11.159453s4.550163,11.232027 4.550163,11.232027l1.216997,0s-0.302312,-3.496998 4.550163,-11.232027s10.914196,-11.52997 12.421873,-11.159453a-3.637419,3.584852 0 0 1 3.846711,-1.189857a-11.972282,11.799262 0 0 0 5.129595,-3.793029c2.263455,-0.595884 4.97844,0.29794 5.734216,0.074484a-11.850196,11.67894 0 0 0 4.373818,-2.442739c2.641344,-0.5214 4.678066,0.81743 5.813668,0.744854s3.319606,-2.232655 6.412478,-2.158168a-7.334913,7.22891 0 0 0 4.676128,2.083682a-16.786002,16.543415 0 0 0 5.658637,-1.562284a-8.451138,8.329005 0 0 0 5.507483,2.454201c0.453467,0.14897 2.036722,-0.223457 4.753644,0s3.319606,2.009198 4.149023,2.305228s3.470761,0 6.714788,0.446913s5.734216,3.348025 6.3369,3.496998a-8.495708,8.37293 0 0 0 7.908527,2.299499c3.244027,3.571485 0.980572,7.290027 0.829417,8.183854s0.829417,1.636768 1.356522,2.901112a-6.061718,5.974116 0 0 0 0,5.059283c-0.980572,1.860228 -2.41461,2.603172 -2.41461,3.199055a-6.896949,6.797276 0 0 0 0.829417,4.239942a-11.921899,11.749607 0 0 0 -3.313792,5.284649c-0.678262,0.97213 0.075579,1.707435 0,2.822808a-6.782615,6.684594 0 0 0 -3.100624,5.653257c-2.941715,2.009198 -0.904993,2.528685 -2.263455,5.504284s-4.753642,4.392732 -5.734213,5.133769s-1.509617,3.571482 -3.168451,5.653257a-9.495658,9.35843 0 0 0 -5.583061,2.826628c-1.509614,0.446911 -0.753838,1.718894 -1.509614,2.752142a-8.553845,8.430227 0 0 0 -5.658637,3.361395c-2.866139,0.311313 -2.56383,1.770462 -2.56383,1.770462s13.100135,6.302618 19.136661,17.406683a-41.881674,41.276411 0 0 0 4.650938,22.614933a-6.662464,6.56618 0 0 1 3.087056,4.264771a-44.261401,43.621747 0 0 0 17.016611,27.171918a-38.676402,38.117461 0 0 0 -8.825151,31.05471c-3.100624,3.074914 -2.131677,5.347676 -3.042487,9.322144s-4.526911,9.522682 -4.928054,10.911167a-45.984187,45.319635 0 0 0 -3.294413,12.987209c-3.29441,8.233509 -15.309329,19.045364 -20.750923,21.027823s-8.95305,5.456539 -14.886869,9.014651s-14.786097,6.359912 -16.084484,7.353052s-7.644976,7.438998 -15.388784,10.809945a-72.614666,71.565258 0 0 0 -18.99132,4.364084a-72.604977,71.555708 0 0 0 -18.991317,-4.364084c-7.751559,-3.370947 -14.082645,-9.818715 -15.388784,-10.809945s-10.160355,-3.794939 -16.094174,-7.353052s-9.454965,-7.030282 -14.886869,-9.014651s-17.460388,-12.796224 -20.748985,-21.027823a-45.941552,45.277617 0 0 0 -3.294413,-12.987209c-0.403081,-1.388485 -4.024999,-6.942429 -4.929992,-10.911167s0.052324,-6.24723 -3.040549,-9.322144a-38.668651,38.109821 0 0 0 -8.811585,-31.05471z"/>
   <path stroke="null" id="svg_343" p-id="39442" fill="#7CC331" d="m4084.286979,13.792794c-2.358413,0.954941 -9.086766,3.493179 -10.098345,3.796849l-0.957317,-3.588671c-1.594883,1.025608 -7.129496,4.429021 -8.115884,4.965697l-1.775106,-3.628777c-1.387529,1.29108 -6.040401,5.137586 -6.83106,5.643704a-19.289753,19.010983 0 0 0 -1.724723,-4.024125l-8.168205,8.554371l-2.131677,-3.707086c-2.308028,3.16277 -4.693569,5.972209 -6.532626,9.085318a-28.760221,28.344586 0 0 1 -4.743955,15.945621a-12.685427,12.5021 0 0 1 7.757373,10.710629a-2.83707,2.79607 0 0 1 2.449493,-0.506121c14.51867,-11.421105 31.033367,-19.22871 48.404611,-25.493129a-3.8564,3.800669 0 0 0 2.645219,-0.101225c-0.649194,0.404895 -1.282884,0.83462 -1.937891,1.201317a-202.687765,199.758573 0 0 1 -38.079532,25.090146a-65.113096,64.172098 0 0 1 -5.522986,5.238812a-3.009542,2.966049 0 0 1 -0.649194,3.546653a-16.563144,16.323778 0 0 1 8.224405,8.947805a-50.179717,49.454532 0 0 1 22.512463,4.612372l-2.255704,-3.378587l13.565229,-1.936621l-3.538588,-2.809439l12.243587,-4.098612l-4.329246,-2.024477l11.799813,-6.57l-4.796278,-1.527906l9.369697,-7.030282a-17.473951,17.221422 0 0 0 -4.472649,-1.999648l8.139137,-6.644486a-50.31343,49.586313 0 0 1 -5.158661,-1.682609a-88.299945,87.023857 0 0 0 7.817445,-8.250698l-6.131483,-0.278844l4.368005,-9.604805l-12.030419,0l3.088997,-4.213204c-3.862214,0.51949 -12.729999,1.441963 -13.844284,1.455332l0.37595,-3.644059a-96.340251,94.947966 0 0 0 -9.904556,1.898426a-26.204146,25.825451 0 0 1 0.968947,-3.947732m-112.560389,0c2.371979,0.954941 9.108084,3.493179 10.098345,3.796849l0.961193,-3.590581c1.594883,1.025608 7.129496,4.429021 8.113944,4.965697l1.79061,-3.628777q3.294413,2.94886 6.817497,5.643704a-19.332387,19.053001 0 0 1 1.724723,-4.024125l8.166267,8.554371l2.131677,-3.707086c2.308028,3.16277 4.693569,5.972209 6.546192,9.085318a-28.756346,28.340766 0 0 0 4.743955,15.945621a-12.698992,12.51547 0 0 0 -7.776752,10.718269a-2.804126,2.763601 0 0 0 -2.437865,-0.506121c-14.534174,-11.426835 -31.046932,-19.234439 -48.418176,-25.498859a-3.852524,3.796849 0 0 1 -2.643281,-0.101225c0.647256,0.404895 1.296449,0.83462 1.95727,1.201317a-202.618,199.689817 0 0 0 38.067905,25.088236a-65.113096,64.172098 0 0 0 5.521048,5.238812a-3.009542,2.966049 0 0 0 0.649194,3.546653a-16.55733,16.318048 0 0 0 -8.232157,8.945895a-50.295989,49.569124 0 0 0 -22.491149,4.614282l2.242138,-3.378587l-13.565227,-1.936621l3.55215,-2.809439l-12.249401,-4.087152l4.329246,-2.024477l-11.797872,-6.581459l4.796278,-1.527906l-9.3852,-7.036012a-17.873156,17.614858 0 0 1 4.484277,-1.999648l-8.139139,-6.644486a-50.294051,49.567214 0 0 0 5.160601,-1.682609a-90.859899,89.546815 0 0 1 -7.831011,-8.250698l6.131481,-0.278844l-4.354436,-9.604805l12.014916,0l-3.085121,-4.213204c3.875779,0.51949 12.729999,1.441963 13.844284,1.455332l-0.362385,-3.644059a-98.097916,96.68023 0 0 1 9.883239,1.898426a-26.198332,25.819721 0 0 0 -0.968947,-3.947732"/>
   <path stroke="null" id="svg_344" p-id="39443" fill="#DA0039" d="m4059.075032,111.5502c-13.014867,0.045838 -23.733337,8.628855 -25.351474,22.773456c-1.720845,14.948659 8.398815,30.535223 22.952367,35.966932c17.931293,6.657855 35.341296,-4.220843 36.25404,-22.67987c0.835231,-17.09537 -12.518766,-33.040992 -29.994657,-35.754938c-1.27707,-0.190988 -2.569641,-0.211995 -3.860276,-0.31131m4.096699,106.623087c-0.286809,10.17777 4.668376,15.336365 14.071017,13.861937a-46.703142,46.028201 0 0 1 4.786589,-0.97404c18.266547,-4.847286 29.915203,-22.605386 26.496766,-40.340568c-1.329394,-6.942427 -6.395037,-10.265626 -13.706695,-8.865681a-33.856871,33.367581 0 0 1 -17.266597,9.841631a-55.662006,54.857593 0 0 1 -10.980085,14.874175a-35.821891,35.304202 0 0 1 -3.391306,11.614006m44.85052,-45.010232a-19.865309,19.57822 0 0 1 3.650984,5.347674c1.904947,2.035937 3.488202,1.848768 5.426093,-0.190988a-31.725192,31.266707 0 0 1 -2.368103,-45.05225a-33.188299,32.70867 0 0 1 -3.631605,-2.731133c-3.681991,-2.372078 -6.395037,-1.936624 -7.04229,2.372075c-2.726612,18.057951 0.104645,31.371752 3.964921,40.250803m-2.660723,-56.756019c-0.170534,-20.56945 -20.735419,-36.366098 -41.718889,-32.059312c-2.790563,0.572965 -3.294413,1.145932 -1.6162,3.437791a-57.409985,56.58031 0 0 1 8.398812,9.616265c6.637274,5.744932 13.549726,11.203381 20.603644,16.472748a-51.741655,50.993898 0 0 1 9.858046,5.296109c3.846711,1.718897 4.486215,1.224236 4.447456,-2.773151m-105.655686,-20.73179c0,8.667053 18.322747,13.712967 28.293192,13.712967s28.324196,-5.042094 28.324196,-13.716786s-12.675737,-17.672155 -28.293192,-17.672155s-28.293189,9.005102 -28.293189,17.672155m58.136692,146.631334c0,-7.668184 -19.861433,-11.115525 -29.862882,-11.115525s-29.8435,3.447341 -29.8435,11.115525s14.21442,16.646547 29.862879,16.646547s29.862882,-8.966904 29.862882,-16.635088m-61.122979,-46.933487c0,15.200767 15.413974,27.513786 31.258159,27.513786s31.258162,-12.313019 31.258162,-27.513786s-15.427539,-27.502327 -31.258162,-27.502327s-31.271725,12.314932 -31.271725,27.511876m0.170534,-83.832442c13.028432,0.049658 23.735272,8.628855 25.365037,22.779186c1.70922,14.948659 -8.398812,30.535223 -22.963992,35.966932c-17.931293,6.657855 -35.341296,-4.220843 -36.25404,-22.67987c-0.835231,-17.09537 12.518766,-33.040992 29.992719,-35.754938c1.279005,-0.190988 2.569641,-0.211995 3.860276,-0.31131m-4.081196,106.615447c0.273241,10.17777 -4.681941,15.336365 -14.084583,13.861937a-46.689577,46.014831 0 0 0 -4.786589,-0.97404c-18.256858,-4.845376 -29.915203,-22.603477 -26.498704,-40.338659c1.342959,-6.942427 6.416354,-10.265626 13.72026,-8.865681a-33.765789,33.277815 0 0 0 17.247217,9.841631a-55.700765,54.895792 0 0 0 10.980085,14.874175a-35.593222,35.078838 0 0 0 3.402933,11.614006m-44.83114,-45.010232a-20.365283,20.070969 0 0 0 -3.664549,5.347674c-1.904947,2.035937 -3.488202,1.848768 -5.426093,-0.190988a-31.725192,31.266707 0 0 0 2.368103,-45.05225a-33.213492,32.733499 0 0 0 3.631605,-2.731133c3.681991,-2.372078 6.395034,-1.936624 7.04229,2.372075c2.738239,18.057951 -0.104645,31.371752 -3.964921,40.250803m2.674288,-56.759839c0.143403,-20.556081 20.735419,-36.366098 41.691758,-32.045942c2.790563,0.572965 3.294413,1.145932 1.6162,3.437791a-57.966158,57.128446 0 0 0 -8.385249,9.616265c-6.650836,5.744932 -13.565227,11.201471 -20.605582,16.472748a-52.129233,51.375874 0 0 0 -9.858043,5.296109c-3.860276,1.718897 -4.486215,1.224236 -4.457146,-2.773151"/>
  </g>
  <g stroke="null" id="svg_373">
   <path stroke="null" id="svg_371" p-id="48499" fill="#444444" d="m710.691323,565.510509c-2.500311,0 -5.021899,-0.648207 -7.234938,-1.923371l-107.534564,-62.015475a14.544351,14.526244 0 0 1 -7.234938,-12.517861l0,-124.030953c0,-5.132535 2.7663,-9.935651 7.234938,-12.517858l107.534564,-62.015478c4.468637,-2.582207 10.001235,-2.582207 14.469872,0l107.534564,62.015478c4.457999,2.582207 7.234938,7.385323 7.234938,12.517858l0,124.030953c0,5.132535 -2.776939,9.925025 -7.234938,12.517861l-107.545203,62.015475c-2.213038,1.275164 -4.734627,1.923371 -7.234938,1.923371l0.010642,0zm-0.010642,-264.554024a2.042806,2.040262 0 0 0 -1.032041,0.276283l-107.523926,62.026104a2.106643,2.104021 0 0 0 -1.032041,1.774604l0,124.03095c0,0.743848 0.404306,1.43456 1.032041,1.774604l107.534564,61.994224a2.021525,2.019009 0 0 0 2.064086,0l107.534564,-62.015478a2.106643,2.104021 0 0 0 1.032041,-1.774601l0,-124.020328a2.127924,2.125274 0 0 0 -1.032041,-1.80648l-107.534564,-62.015478a2.383274,2.380307 0 0 0 -1.032041,-0.244404l-0.010642,0z"/>
   <path stroke="null" id="svg_372" p-id="48500" fill="#444444" d="m600.645809,401.577551l10.990719,0l10.586416,19.97757l0.457502,0l10.586416,-19.97757l10.990719,0l-16.938261,29.976979l0,16.396486l-9.745887,0l0,-16.396486l-16.927623,-29.966354l0,-0.010625zm88.840764,23.19736c0,5.058148 -0.968204,9.351202 -2.883334,12.911036a19.970554,19.945691 0 0 1 -7.798835,8.129171a22.034637,22.007204 0 0 1 -11.065198,2.784107c-4.128169,0 -7.830754,-0.935119 -11.107756,-2.805361a20.02375,19.998821 0 0 1 -7.777558,-8.129171c-1.904489,-3.549205 -2.851415,-7.842259 -2.851415,-12.889782c0,-5.058152 0.946927,-9.351205 2.851415,-12.90041c1.904492,-3.549205 4.500556,-6.248304 7.766919,-8.107917a21.992079,21.9647 0 0 1 11.118394,-2.805361c4.09625,0 7.777558,0.935119 11.065198,2.805361c3.298279,1.859613 5.894343,4.558711 7.798835,8.107917c1.91513,3.549205 2.872695,7.842259 2.872695,12.90041l0.010639,0zm-9.958677,0c0,-3.272922 -0.489421,-6.035778 -1.478905,-8.288566a11.224792,11.210818 0 0 0 -4.09625,-5.111284a11.033279,11.019543 0 0 0 -6.213535,-1.742722c-2.372633,0 -4.447357,0.573824 -6.213535,1.742722c-1.766175,1.168901 -3.138685,2.869119 -4.128169,5.111284c-0.957565,2.252788 -1.446986,5.015644 -1.446986,8.288566c0,3.272919 0.478783,6.035775 1.446986,8.288566c0.989484,2.252788 2.361994,3.953008 4.128169,5.111281c1.766178,1.168901 3.830261,1.753351 6.213535,1.753351c2.372633,0 4.447357,-0.584449 6.213535,-1.753351c1.766175,-1.158273 3.128046,-2.869119 4.09625,-5.111281c0.989484,-2.252791 1.478905,-5.015647 1.478905,-8.288566zm17.225534,23.176106l0,-46.373465l9.809722,0l0,38.286799l19.896078,0l0,8.086666l-29.705799,0zm59.847821,-46.36284c0,5.058152 -0.957565,9.351205 -2.872695,12.911036a19.970554,19.945691 0 0 1 -7.809477,8.129171a22.045278,22.017833 0 0 1 -11.065195,2.78411c-4.11753,0 -7.820115,-0.935122 -11.097117,-2.805361a20.013111,19.988196 0 0 1 -7.777558,-8.129171c-1.91513,-3.549209 -2.862054,-7.842259 -2.862054,-12.889785c0,-5.058152 0.957565,-9.351202 2.862054,-12.900407c1.904492,-3.549209 4.489918,-6.248304 7.766919,-8.10792a21.992079,21.9647 0 0 1 11.118394,-2.805361c4.085611,0 7.777558,0.935122 11.065198,2.805361c3.28764,1.859616 5.883705,4.558711 7.788196,8.10792c1.91513,3.549205 2.872695,7.842259 2.872695,12.900407l0.010639,0zm-9.948039,0a20.747245,20.721415 0 0 0 -1.478905,-8.288566a11.224792,11.210818 0 0 0 -4.106891,-5.111281a11.033279,11.019543 0 0 0 -6.202893,-1.742725c-2.372633,0 -4.447357,0.573824 -6.213535,1.742725c-1.766175,1.168901 -3.149323,2.869119 -4.128169,5.111281c-0.957565,2.252791 -1.446986,5.015644 -1.446986,8.288566c0,3.272922 0.478783,6.035778 1.446986,8.288566c0.978845,2.252791 2.361994,3.953008 4.128169,5.111284c1.766178,1.168898 3.830261,1.753351 6.213535,1.753351c2.372633,0 4.436718,-0.584452 6.202893,-1.753351c1.776816,-1.158276 3.138688,-2.869119 4.106891,-5.111284a20.747245,20.721415 0 0 0 1.478905,-8.288566zm34.259555,23.824316a24.045523,24.015588 0 0 1 -9.309662,-1.700221a15.576393,15.557001 0 0 1 -6.373129,-4.686228a10.67153,10.658245 0 0 1 -2.308795,-6.72649c0,-1.934 0.436225,-3.708601 1.308672,-5.313181c0.893727,-1.636463 2.106643,-2.98601 3.628109,-4.059274c1.532104,-1.083889 3.234441,-1.78523 5.128291,-2.082767l0,-0.318791a10.065072,10.052542 0 0 1 -6.03266,-3.602338a10.373622,10.360708 0 0 1 -2.308795,-6.673357c0,-2.401561 0.702214,-4.537461 2.106643,-6.407699a14.044289,14.026804 0 0 1 5.77731,-4.441823c2.468389,-1.083889 5.266608,-1.625834 8.394654,-1.625834c3.128046,0 5.915624,0.531319 8.362735,1.625834c2.457751,1.083889 4.394161,2.571582 5.79859,4.463074a10.490659,10.477599 0 0 1 2.12792,6.37582a10.352342,10.339454 0 0 1 -2.351352,6.694611a10.12891,10.1163 0 0 1 -5.990103,3.591713l0,0.318791c1.861931,0.297537 3.55363,0.998877 5.064457,2.082767c1.521463,1.062639 2.734378,2.422812 3.617467,4.048646a10.873685,10.860148 0 0 1 -0.946927,12.0503a15.555113,15.535747 0 0 1 -6.383768,4.675602c-2.713101,1.137022 -5.809228,1.700218 -9.29902,1.700218l-0.010639,0.010628zm0,-7.204677a9.330939,9.319323 0 0 0 4.085611,-0.839485a6.702956,6.694611 0 0 0 2.72374,-2.348425a6.213535,6.205799 0 0 0 1.000123,-3.48545a6.29865,6.290808 0 0 0 -1.021403,-3.559831a7.022144,7.013402 0 0 0 -2.766297,-2.444065a8.575529,8.564853 0 0 0 -4.011135,-0.90324a8.671285,8.66049 0 0 0 -4.021774,0.90324a6.979587,6.970898 0 0 0 -2.787577,2.444065a6.405048,6.397074 0 0 0 -0.989484,3.559831c0,1.307043 0.319188,2.465316 0.968204,3.48545a6.681676,6.673357 0 0 0 2.74502,2.348425c1.170358,0.563198 2.542868,0.85011 4.085611,0.85011l-0.010639,-0.010625zm0,-20.721415c1.308672,0 2.457751,-0.255033 3.479153,-0.786352a5.979461,5.972017 0 0 0 3.234441,-5.430072a5.79859,5.791371 0 0 0 -3.213164,-5.32381a7.341333,7.332193 0 0 0 -3.489792,-0.796978a7.437089,7.42783 0 0 0 -3.500434,0.796978a5.851786,5.844501 0 0 0 -2.372633,2.146525a5.915624,5.908259 0 0 0 -0.85117,3.177285a5.979461,5.972017 0 0 0 3.245083,5.430072c1.021403,0.531319 2.170481,0.786352 3.479153,0.786352l-0.010639,0z"/>
  </g>
  <g stroke="null" id="svg_384">
   <path stroke="null" id="svg_377" p-id="49684" fill="#ABAEBD" d="m919.590299,323.256887l-27.365106,-19.840259l-11.042709,8.01337l27.365551,19.839939l11.042263,-8.01305z"/>
   <path stroke="null" id="svg_378" p-id="49685" fill="#ABAEBD" d="m1000.943825,277.008695l15.630242,0l0,28.059012l-15.630242,0l0,-28.059009l0,-0.000003z"/>
   <path stroke="null" id="svg_379" p-id="49686" fill="#ABAEBD" d="m955.33681,387.098045l-24.855823,0l0,51.738179l24.766844,0c11.30294,0 20.535232,-2.423104 27.68972,-7.266417c7.154488,-4.841384 10.738216,-11.258316 10.738216,-19.253366c-0.000446,-16.812264 -12.784272,-25.218396 -38.338957,-25.218396zm15.985705,38.043259c-4.155155,3.117027 -9.867212,4.674575 -17.142423,4.674575l-8.367995,0l0,-33.69974l8.317467,0c6.938528,0 12.580385,1.440879 16.913499,4.325201s6.5066,6.896477 6.5066,12.041591c0,5.320929 -2.071543,9.541029 -6.227148,12.658373z"/>
   <path stroke="null" id="svg_380" p-id="49687" fill="#ABAEBD" d="m1136.348376,311.429997l-11.048971,-8.01337l-27.384781,19.840259l11.061939,8.01305l27.371813,-19.839939z"/>
   <path stroke="null" id="svg_381" p-id="49688" fill="#ABAEBD" d="m1062.537441,406.972373c-0.65504,1.089574 -1.163425,2.414102 -1.531856,3.973579l-0.190477,0c-0.902303,-2.315752 -1.474179,-3.67467 -1.71518,-4.074181l-12.084519,-19.773726l-17.517565,0l22.860295,33.466717l0,18.271461l15.331556,0l0,-18.470094l23.515335,-33.268084l-16.265161,0l-12.402427,19.874329z"/>
   <path stroke="null" id="svg_382" p-id="49689" fill="#ABAEBD" d="m999.66683,395.682237l6.087195,0l0,34.569791l-6.087195,0l0,8.584195l27.600741,0l0,-8.584195l-6.176174,0l0,-34.569791l6.176174,0l0,-8.584192l-27.600741,0l0,8.584192z"/>
   <path stroke="null" id="svg_383" p-id="49690" fill="#ABAEBD" d="m1008.765876,328.015992c-61.803318,0 -112.073877,36.45357 -112.073877,81.256385c0,31.226174 24.417192,58.38781 60.144477,71.984696l0,38.707613c0,20.758203 23.292664,37.65725 51.9294,37.65725c28.623321,0 51.934765,-16.899047 51.934765,-37.65725l0,-38.707613c35.721474,-13.596887 60.144923,-40.762702 60.144923,-71.984696c0,-44.802815 -50.277262,-81.256385 -112.079689,-81.256385zm36.298266,191.948374c0,14.510332 -16.297355,26.32565 -36.298712,26.32565c-20.008514,0 -36.299162,-11.815639 -36.299162,-26.32565l0,-8.42188l72.597874,0l0,8.42188zm0,-16.1132l-72.597424,0l0,-17.698067c0.940308,0.233019 1.880616,0.452222 2.833893,0.6666c0.145765,0.032141 0.298236,0.068782 0.444446,0.1051c0.673375,0.146243 1.347195,0.292162 2.014308,0.429403c0.209703,0.04564 0.413148,0.08678 0.616144,0.127599c0.667113,0.137241 1.334226,0.269664 2.007601,0.393085c0.177959,0.036318 0.355913,0.07328 0.533871,0.109598c0.83881,0.155242 1.683882,0.301481 2.528508,0.447724c0.107755,0.018321 0.21596,0.032141 0.317907,0.04564c0.723898,0.123421 1.448247,0.23752 2.172591,0.347122c0.298682,0.045961 0.597364,0.082279 0.889339,0.127919c0.546836,0.082282 1.099487,0.155242 1.652134,0.228201c0.32998,0.045961 0.654149,0.087103 0.978318,0.127922c0.54639,0.07328 1.09233,0.136921 1.632462,0.196381c0.317907,0.036318 0.629108,0.077457 0.953277,0.109598c0.642076,0.068462 1.276995,0.132423 1.925329,0.196061c0.215964,0.018641 0.431928,0.045961 0.647892,0.063961c0.851329,0.077781 1.703108,0.14624 2.554436,0.210201c0.253969,0.018321 0.508384,0.036321 0.762354,0.054639c0.622851,0.041142 1.23899,0.082282 1.861391,0.1186c0.317912,0.018644 0.635369,0.036642 0.959538,0.054962c0.571427,0.027319 1.143754,0.054959 1.714735,0.07328c0.317907,0.018321 0.648783,0.027319 0.972948,0.036321c0.603625,0.022819 1.213057,0.041139 1.810421,0.054959c0.286609,0.008999 0.571877,0.0135 0.851329,0.018321c0.889784,0.01382 1.772861,0.022819 2.662646,0.022819c0.888893,0 1.771966,-0.008999 2.66175,-0.022819c0.292425,-0.004821 0.571877,-0.008999 0.863852,-0.018321c0.597364,-0.01382 1.194728,-0.032141 1.792087,-0.054959c0.330876,-0.009002 0.667118,-0.027319 1.00425,-0.036321c0.552651,-0.018321 1.105748,-0.045961 1.658395,-0.07328c0.343394,-0.018321 0.679636,-0.036321 1.016323,-0.054962c0.584395,-0.036318 1.168345,-0.07296 1.753631,-0.113779c0.285718,-0.022819 0.5844,-0.041139 0.870559,-0.05946c0.832103,-0.063961 1.670468,-0.13242 2.503021,-0.210201c0.279456,-0.027319 0.566065,-0.054639 0.845517,-0.082282c0.571877,-0.054639 1.143308,-0.109598 1.708923,-0.173559c0.36262,-0.036321 0.723898,-0.082282 1.080261,-0.123421c0.49497,-0.05946 0.991282,-0.113779 1.486252,-0.17806c0.368431,-0.045964 0.731051,-0.09128 1.099487,-0.146243c0.502123,-0.063638 1.00335,-0.136921 1.505478,-0.2057c0.337133,-0.050141 0.680082,-0.095781 1.016319,-0.150741c0.642076,-0.09128 1.283702,-0.196381 1.925779,-0.301484c0.184216,-0.02764 0.368436,-0.054959 0.558913,-0.091277c0.826292,-0.137244 1.652134,-0.283164 2.465461,-0.438402c0.222667,-0.041142 0.438185,-0.082282 0.661302,-0.123421c0.628658,-0.123421 1.251508,-0.242021 1.88017,-0.369943c0.228928,-0.04564 0.457411,-0.095778 0.686339,-0.145919c0.654149,-0.13242 1.295775,-0.274162 1.944113,-0.415583c0.165886,-0.041139 0.337133,-0.077781 0.502123,-0.114099c0.940758,-0.20988 1.873913,-0.434225 2.80841,-0.666924l0,17.703212l0.000891,0zm-21.100398,-25.530808l-0.007153,0c-0.501232,0.05946 -1.009616,0.113779 -1.518001,0.164564c-0.21641,0.027319 -0.426112,0.045637 -0.635815,0.063638c-0.438185,0.045961 -0.883077,0.087103 -1.321262,0.127922c-0.330876,0.027319 -0.65504,0.054639 -0.978764,0.077457c-0.374693,0.032144 -0.743124,0.063961 -1.117817,0.09128c-0.673375,0.050141 -1.347645,0.09128 -2.021019,0.132423c-0.266488,0.008999 -0.533421,0.022819 -0.800805,0.036318c-0.489155,0.02764 -0.978313,0.050462 -1.467027,0.063961c-0.279452,0.018318 -0.5598,0.027319 -0.839256,0.036638c-0.501232,0.0135 -1.003355,0.027323 -1.511739,0.036321c-0.248154,0.008999 -0.489159,0.018321 -0.736867,0.018321c-0.743124,0.01382 -1.493405,0.018318 -2.24279,0.018318c-0.756092,0 -1.506374,-0.004498 -2.255759,-0.018318c-0.228932,0 -0.470825,-0.009002 -0.71183,-0.018321c-0.515087,-0.008999 -1.035544,-0.022822 -1.55019,-0.036321c-0.267384,-0.009319 -0.534317,-0.018641 -0.800805,-0.036638c-0.514196,-0.0135 -1.029733,-0.036321 -1.55019,-0.063961c-0.23519,-0.0135 -0.470379,-0.027319 -0.705123,-0.036318c-0.693046,-0.041142 -1.391462,-0.082282 -2.0778,-0.137244c-0.317462,-0.022498 -0.635369,-0.04564 -0.952831,-0.07296c-0.387657,-0.032141 -0.781579,-0.063961 -1.169236,-0.1006c-0.393923,-0.032141 -0.781579,-0.073283 -1.168791,-0.109922c-0.292425,-0.027319 -0.578138,-0.054642 -0.864302,-0.086783c-0.451149,-0.050138 -0.896041,-0.09128 -1.347195,-0.14624c-46.00764,-5.284287 -81.290033,-34.231671 -81.290033,-69.054734c0,-38.552371 43.262727,-69.918039 96.444085,-69.918039c53.186274,0 96.443189,31.365667 96.443189,69.918039c0.000446,34.805706 -35.256906,63.75277 -81.244875,69.051198z"/>
  </g>
 </g>
</svg>